SplineFontDB: 3.2
FontName: tamil5
FullName: tamil5
FamilyName: tamil5
Weight: Thin
Copyright: Copyright 2020 The Catamaran Project Authors (https://github.com/VanillaandCream/Catamaran-Tamil)
Version: 1.000
ItalicAngle: 0
UnderlinePosition: -150
UnderlineWidth: 50
Ascent: 800
Descent: 200
InvalidEm: 0
sfntRevision: 0x00020000
LayerCount: 2
Layer: 0 1 "Back" 1
Layer: 1 1 "Fore" 0
XUID: [1021 467 -1121320856 8563389]
StyleMap: 0x0040
FSType: 0
OS2Version: 4
OS2_WeightWidthSlopeOnly: 0
OS2_UseTypoMetrics: 1
CreationTime: 1427313689
ModificationTime: 1638488310
PfmFamily: 81
TTFWeight: 100
TTFWidth: 5
LineGap: 0
VLineGap: 0
Panose: 0 0 0 0 0 0 0 0 0 0
OS2TypoAscent: 1100
OS2TypoAOffset: 0
OS2TypoDescent: -540
OS2TypoDOffset: 0
OS2TypoLinegap: 0
OS2WinAscent: 1100
OS2WinAOffset: 0
OS2WinDescent: 540
OS2WinDOffset: 0
HheadAscent: 1100
HheadAOffset: 0
HheadDescent: -540
HheadDOffset: 0
OS2SubXSize: 650
OS2SubYSize: 600
OS2SubXOff: 0
OS2SubYOff: 75
OS2SupXSize: 650
OS2SupYSize: 600
OS2SupXOff: 0
OS2SupYOff: 350
OS2StrikeYSize: 50
OS2StrikeYPos: 291
OS2CapHeight: 680
OS2XHeight: 485
OS2Vendor: 'PYRS'
OS2CodePages: 20000093.00000000
OS2UnicodeRanges: 801000af.5000204b.00000000.00000000
Lookup: 4 0 0 "'psts' Post Base Substitutions lookup 0" { "'psts' Post Base Substitutions lookup 0 subtable"  } ['akhn' ('taml' <'dflt' > 'tml2' <'dflt' > ) 'psts' ('taml' <'dflt' > 'tml2' <'dflt' > ) ]
Lookup: 4 0 0 "'abvs' Above Base Substitutions lookup 1" { "'abvs' Above Base Substitutions lookup 1 subtable"  } ['abvs' ('taml' <'dflt' > 'tml2' <'dflt' > ) ]
Lookup: 4 0 0 "'psts' Post Base Substitutions lookup 2" { "'psts' Post Base Substitutions lookup 2 subtable"  } ['psts' ('taml' <'dflt' > 'tml2' <'dflt' > ) ]
Lookup: 4 0 0 "'psts' Post Base Substitutions lookup 3" { "'psts' Post Base Substitutions lookup 3 subtable"  } ['psts' ('taml' <'dflt' > 'tml2' <'dflt' > ) ]

StartChar: .notdef
Encoding: 65536 -1 0
Width: 628
Flags: W
LayerCount: 2
Fore
SplineSet
100 696 m 1,0,-1
 100 0 l 1,1,-1
 528 0 l 1,2,-1
 528 696 l 1,3,-1
 100 696 l 1,0,-1
478 657 m 1,4,-1
 478 39 l 1,5,-1
 149 39 l 1,6,-1
 149 657 l 1,7,-1
 478 657 l 1,4,-1
EndSplineSet
EndChar

StartChar: uni200C
Encoding: 8204 8204 5
Width: 0
Flags: W
LayerCount: 2
Fore
SplineSet
-25 -68 m 1,0,-1
 24 -68 l 1,1,-1
 24 1100 l 1,2,-1
 -25 1100 l 1,3,-1
 -25 -68 l 1,0,-1
EndSplineSet
EndChar

StartChar: uni200D
Encoding: 8205 8205 6
Width: 0
Flags: W
LayerCount: 2
Fore
SplineSet
0 1026 m 1,0,-1
 -73 1100 l 1,1,-1
 -113 1060 l 1,2,-1
 -39 986 l 1,3,-1
 -113 912 l 1,4,-1
 -74 873 l 1,5,-1
 -25 916 l 1,6,-1
 -25 -68 l 1,7,-1
 24 -68 l 1,8,-1
 24 917 l 1,9,-1
 75 873 l 1,10,-1
 114 912 l 1,11,-1
 40 986 l 1,12,-1
 114 1060 l 1,13,-1
 74 1100 l 1,14,-1
 0 1026 l 1,0,-1
EndSplineSet
EndChar

StartChar: uni25CC
Encoding: 9676 9676 7
Width: 615
Flags: W
LayerCount: 2
Fore
SplineSet
307 459 m 256,0,1
 320 459 320 459 328 467 c 128,-1,2
 336 475 336 475 336 488 c 256,3,4
 336 501 336 501 328 509.5 c 128,-1,5
 320 518 320 518 307 518 c 256,6,7
 294 518 294 518 286 509.5 c 128,-1,8
 278 501 278 501 278 488 c 256,9,10
 278 475 278 475 286 467 c 128,-1,11
 294 459 294 459 307 459 c 256,0,1
397 444 m 0,12,13
 410 444 410 444 418 452 c 128,-1,14
 426 460 426 460 426 473 c 256,15,16
 426 486 426 486 418 494 c 128,-1,17
 410 502 410 502 397 502 c 256,18,19
 384 502 384 502 376 494 c 128,-1,20
 368 486 368 486 368 473 c 0,21,22
 368 444 368 444 397 444 c 0,12,13
218 502 m 256,23,24
 205 502 205 502 197 494 c 128,-1,25
 189 486 189 486 189 473 c 256,26,27
 189 460 189 460 197 452 c 128,-1,28
 205 444 205 444 218 444 c 256,29,30
 231 444 231 444 239 452 c 128,-1,31
 247 460 247 460 247 473 c 256,32,33
 247 486 247 486 239 494 c 128,-1,34
 231 502 231 502 218 502 c 256,23,24
473 393 m 256,35,36
 486 393 486 393 494.5 401 c 128,-1,37
 503 409 503 409 503 422 c 256,38,39
 503 435 503 435 494.5 443.5 c 128,-1,40
 486 452 486 452 473 452 c 256,41,42
 460 452 460 452 452 443.5 c 128,-1,43
 444 435 444 435 444 422 c 256,44,45
 444 409 444 409 452 401 c 128,-1,46
 460 393 460 393 473 393 c 256,35,36
142 452 m 256,47,48
 129 452 129 452 120.5 443.5 c 128,-1,49
 112 435 112 435 112 422 c 256,50,51
 112 409 112 409 120.5 401 c 128,-1,52
 129 393 129 393 142 393 c 256,53,54
 155 393 155 393 163 401 c 128,-1,55
 171 409 171 409 171 422 c 256,56,57
 171 435 171 435 163 443.5 c 128,-1,58
 155 452 155 452 142 452 c 256,47,48
521 314 m 256,59,60
 534 314 534 314 542 322 c 128,-1,61
 550 330 550 330 550 343 c 256,62,63
 550 356 550 356 542 364.5 c 128,-1,64
 534 373 534 373 521 373 c 256,65,66
 508 373 508 373 500 364.5 c 128,-1,67
 492 356 492 356 492 343 c 256,68,69
 492 330 492 330 500 322 c 128,-1,70
 508 314 508 314 521 314 c 256,59,60
94 373 m 256,71,72
 81 373 81 373 72.5 364.5 c 128,-1,73
 64 356 64 356 64 343 c 256,74,75
 64 330 64 330 72.5 322 c 128,-1,76
 81 314 81 314 94 314 c 256,77,78
 107 314 107 314 115 322 c 128,-1,79
 123 330 123 330 123 343 c 256,80,81
 123 356 123 356 115 364.5 c 128,-1,82
 107 373 107 373 94 373 c 256,71,72
535 229 m 256,83,84
 548 229 548 229 556.5 236.5 c 128,-1,85
 565 244 565 244 565 257 c 0,86,87
 565 271 565 271 556.5 279 c 128,-1,88
 548 287 548 287 535 287 c 256,89,90
 522 287 522 287 514 279 c 128,-1,91
 506 271 506 271 506 257 c 0,92,93
 506 244 506 244 514 236.5 c 128,-1,94
 522 229 522 229 535 229 c 256,83,84
80 287 m 256,95,96
 67 287 67 287 58.5 279 c 128,-1,97
 50 271 50 271 50 257 c 0,98,99
 50 244 50 244 58.5 236.5 c 128,-1,100
 67 229 67 229 80 229 c 256,101,102
 93 229 93 229 101 236.5 c 128,-1,103
 109 244 109 244 109 257 c 0,104,105
 109 271 109 271 101 279 c 128,-1,106
 93 287 93 287 80 287 c 256,95,96
521 145 m 256,107,108
 534 145 534 145 542 153 c 128,-1,109
 550 161 550 161 550 174 c 256,110,111
 550 187 550 187 542 195 c 128,-1,112
 534 203 534 203 521 203 c 256,113,114
 508 203 508 203 500 195 c 128,-1,115
 492 187 492 187 492 174 c 256,116,117
 492 161 492 161 500 153 c 128,-1,118
 508 145 508 145 521 145 c 256,107,108
94 203 m 256,119,120
 81 203 81 203 72.5 195 c 128,-1,121
 64 187 64 187 64 174 c 256,122,123
 64 161 64 161 72.5 153 c 128,-1,124
 81 145 81 145 94 145 c 256,125,126
 107 145 107 145 115 153 c 128,-1,127
 123 161 123 161 123 174 c 256,128,129
 123 187 123 187 115 195 c 128,-1,130
 107 203 107 203 94 203 c 256,119,120
474 65 m 256,131,132
 487 65 487 65 495.5 73 c 128,-1,133
 504 81 504 81 504 94 c 256,134,135
 504 107 504 107 495.5 115 c 128,-1,136
 487 123 487 123 474 123 c 256,137,138
 461 123 461 123 453 115 c 128,-1,139
 445 107 445 107 445 94 c 256,140,141
 445 81 445 81 453 73 c 128,-1,142
 461 65 461 65 474 65 c 256,131,132
141 123 m 256,143,144
 128 123 128 123 119.5 115 c 128,-1,145
 111 107 111 107 111 94 c 256,146,147
 111 81 111 81 119.5 73 c 128,-1,148
 128 65 128 65 141 65 c 256,149,150
 154 65 154 65 162 73 c 128,-1,151
 170 81 170 81 170 94 c 256,152,153
 170 107 170 107 162 115 c 128,-1,154
 154 123 154 123 141 123 c 256,143,144
218 74 m 256,155,156
 205 74 205 74 197 65.5 c 128,-1,157
 189 57 189 57 189 44 c 256,158,159
 189 31 189 31 197 23 c 128,-1,160
 205 15 205 15 218 15 c 256,161,162
 231 15 231 15 239 23 c 128,-1,163
 247 31 247 31 247 44 c 256,164,165
 247 57 247 57 239 65.5 c 128,-1,166
 231 74 231 74 218 74 c 256,155,156
397 15 m 256,167,168
 410 15 410 15 418 23 c 128,-1,169
 426 31 426 31 426 44 c 256,170,171
 426 57 426 57 418 65.5 c 128,-1,172
 410 74 410 74 397 74 c 256,173,174
 384 74 384 74 376 65.5 c 128,-1,175
 368 57 368 57 368 44 c 256,176,177
 368 31 368 31 376 23 c 128,-1,178
 384 15 384 15 397 15 c 256,167,168
307 0 m 256,179,180
 320 0 320 0 328 8 c 128,-1,181
 336 16 336 16 336 29 c 256,182,183
 336 42 336 42 328 50.5 c 128,-1,184
 320 59 320 59 307 59 c 256,185,186
 294 59 294 59 286 50.5 c 128,-1,187
 278 42 278 42 278 29 c 256,188,189
 278 16 278 16 286 8 c 128,-1,190
 294 0 294 0 307 0 c 256,179,180
EndSplineSet
EndChar

StartChar: A
Encoding: 65 65 8
Width: 1055
Flags: W
LayerCount: 2
Fore
SplineSet
955 -126 m 1,0,-1
 955 513 l 1,1,-1
 911 513 l 1,2,-1
 911 -126 l 1,3,-1
 955 -126 l 1,0,-1
471 531 m 0,4,5
 405 531 405 531 353 505 c 128,-1,6
 301 479 301 479 271 434.5 c 128,-1,7
 241 390 241 390 241 332 c 0,8,9
 241 283 241 283 274.5 250 c 128,-1,10
 308 217 308 217 360 216 c 0,11,12
 414 215 414 215 449 247 c 128,-1,13
 484 279 484 279 485 329 c 0,14,15
 486 377 486 377 450.5 409 c 128,-1,16
 415 441 415 441 361 441 c 0,17,18
 332 441 332 441 307 426.5 c 128,-1,19
 282 412 282 412 267.5 387 c 128,-1,20
 253 362 253 362 253 329 c 1,21,-1
 280 329 l 1,22,23
 280 362 280 362 303.5 383 c 128,-1,24
 327 404 327 404 361 404 c 0,25,26
 396 404 396 404 418.5 383 c 128,-1,27
 441 362 441 362 441 329 c 0,28,29
 441 295 441 295 418 274 c 128,-1,30
 395 253 395 253 360 254 c 0,31,32
 326 256 326 256 303 277 c 128,-1,33
 280 298 280 298 280 329 c 0,34,35
 280 378 280 378 304.5 413.5 c 128,-1,36
 329 449 329 449 372.5 469 c 128,-1,37
 416 489 416 489 471 489 c 0,38,39
 542 489 542 489 592 456 c 128,-1,40
 642 423 642 423 669 364.5 c 128,-1,41
 696 306 696 306 696 230 c 0,42,43
 696 133 696 133 648.5 58 c 128,-1,44
 601 -17 601 -17 518 -59.5 c 128,-1,45
 435 -102 435 -102 327 -102 c 0,46,47
 257 -102 257 -102 203 -85 c 128,-1,48
 149 -68 149 -68 118.5 -38 c 128,-1,49
 88 -8 88 -8 88 32 c 0,50,51
 88 58 88 58 102 74 c 128,-1,52
 116 90 116 90 150 90 c 2,53,-1
 911 90 l 1,54,-1
 911 125 l 1,55,-1
 146 125 l 2,56,57
 94 125 94 125 67 99 c 128,-1,58
 40 73 40 73 40 32 c 0,59,60
 40 -18 40 -18 77 -58 c 128,-1,61
 114 -98 114 -98 179 -121 c 128,-1,62
 244 -144 244 -144 327 -144 c 0,63,64
 418 -144 418 -144 494 -116.5 c 128,-1,65
 570 -89 570 -89 626 -38.5 c 128,-1,66
 682 12 682 12 713 80.5 c 128,-1,67
 744 149 744 149 744 230 c 0,68,69
 744 317 744 317 711 385 c 128,-1,70
 678 453 678 453 616.5 492 c 128,-1,71
 555 531 555 531 471 531 c 0,4,5
EndSplineSet
EndChar

StartChar: B
Encoding: 66 66 9
Width: 565
Flags: W
LayerCount: 2
Fore
SplineSet
269 0 m 2,0,1
 322 0 322 0 368 9.5 c 128,-1,2
 414 19 414 19 449.5 40.5 c 128,-1,3
 485 62 485 62 505 98 c 128,-1,4
 525 134 525 134 525 188 c 0,5,6
 525 259 525 259 486.5 301 c 128,-1,7
 448 343 448 343 386 362 c 1,8,9
 427 382 427 382 457 417 c 128,-1,10
 487 452 487 452 487 503 c 0,11,12
 487 571 487 571 455.5 609.5 c 128,-1,13
 424 648 424 648 369 664 c 128,-1,14
 314 680 314 680 242 680 c 2,15,-1
 100 680 l 1,16,-1
 100 0 l 1,17,-1
 269 0 l 2,0,1
254 641 m 2,18,19
 309 641 309 641 349.5 628 c 128,-1,20
 390 615 390 615 412.5 584.5 c 128,-1,21
 435 554 435 554 435 502 c 0,22,23
 435 454 435 454 408 425.5 c 128,-1,24
 381 397 381 397 337 385 c 128,-1,25
 293 373 293 373 241 372 c 2,26,-1
 150 372 l 1,27,-1
 150 641 l 1,28,-1
 254 641 l 2,18,19
292 333 m 2,29,30
 374 333 374 333 423.5 297.5 c 128,-1,31
 473 262 473 262 473 186 c 0,32,33
 473 134 473 134 447.5 101.5 c 128,-1,34
 422 69 422 69 378.5 54 c 128,-1,35
 335 39 335 39 281 39 c 2,36,-1
 150 39 l 1,37,-1
 150 333 l 1,38,-1
 292 333 l 2,29,30
EndSplineSet
EndChar

StartChar: C
Encoding: 67 67 10
Width: 667
Flags: W
AnchorPoint: "Anchor-1" 387 0 basechar 0
AnchorPoint: "Anchor-0" 675 0 basechar 0
LayerCount: 2
Fore
SplineSet
246 96 m 4,0,1
 262 96 262 96 273.5 107 c 132,-1,2
 285 118 285 118 285 134 c 260,3,4
 285 150 285 150 273.5 161 c 132,-1,5
 262 172 262 172 246 172 c 4,6,7
 229 172 229 172 218.5 161 c 132,-1,8
 208 150 208 150 208 134 c 260,9,10
 208 118 208 118 218.5 107 c 132,-1,11
 229 96 229 96 246 96 c 4,0,1
453 205 m 2,12,13
 453 132 453 132 425 82 c 128,-1,14
 397 32 397 32 348 7 c 128,-1,15
 299 -18 299 -18 236 -18 c 0,16,17
 180 -18 180 -18 138 2 c 128,-1,18
 96 22 96 22 73 57 c 128,-1,19
 50 92 50 92 50 136 c 0,20,21
 50 201 50 201 96 244 c 128,-1,22
 142 287 142 287 225 287 c 2,23,-1
 622 287 l 1,24,-1
 627 252 l 1,25,-1
 226 252 l 2,26,27
 164 252 164 252 131 219 c 128,-1,28
 98 186 98 186 98 135 c 0,29,30
 98 85 98 85 134.5 54.5 c 128,-1,31
 171 24 171 24 236 24 c 0,32,33
 286 24 286 24 325 44 c 128,-1,34
 364 64 364 64 386.5 104.5 c 128,-1,35
 409 145 409 145 409 205 c 2,36,-1
 409 478 l 1,37,-1
 211 478 l 1,38,-1
 211 263 l 1,39,-1
 167 263 l 1,40,-1
 167 513 l 1,41,-1
 622 513 l 1,42,-1
 627 478 l 1,43,-1
 453 478 l 1,44,-1
 453 205 l 2,12,13
EndSplineSet
EndChar

StartChar: D
Encoding: 68 68 11
Width: 662
Flags: W
LayerCount: 2
Fore
SplineSet
321 0 m 2,0,1
 421 0 421 0 485 46.5 c 128,-1,2
 549 93 549 93 580.5 171.5 c 128,-1,3
 612 250 612 250 612 344 c 0,4,5
 612 437 612 437 583.5 513 c 128,-1,6
 555 589 555 589 492 634.5 c 128,-1,7
 429 680 429 680 324 680 c 2,8,-1
 100 680 l 1,9,-1
 100 0 l 1,10,-1
 321 0 l 2,0,1
332 641 m 2,11,12
 410 641 410 641 460.5 600 c 128,-1,13
 511 559 511 559 536 491.5 c 128,-1,14
 561 424 561 424 561 343 c 0,15,16
 561 256 561 256 531 187 c 128,-1,17
 501 118 501 118 447.5 78.5 c 128,-1,18
 394 39 394 39 322 39 c 2,19,-1
 149 39 l 1,20,-1
 149 641 l 1,21,-1
 332 641 l 2,11,12
EndSplineSet
EndChar

StartChar: E
Encoding: 69 69 12
Width: 839
Flags: W
LayerCount: 2
Fore
SplineSet
628 478 m 1,0,-1
 628 0 l 1,1,-1
 584 0 l 1,2,-1
 584 478 l 1,3,-1
 469 478 l 1,4,-1
 468 513 l 1,5,-1
 824 513 l 1,6,-1
 829 478 l 1,7,-1
 628 478 l 1,0,-1
108 237 m 0,8,9
 108 173 108 173 136 123.5 c 128,-1,10
 164 74 164 74 216 45.5 c 128,-1,11
 268 17 268 17 339 17 c 0,12,13
 392 17 392 17 426 51 c 128,-1,14
 460 85 460 85 460 137 c 0,15,16
 460 190 460 190 426 223.5 c 128,-1,17
 392 257 392 257 339 257 c 0,18,19
 287 257 287 257 252.5 224 c 128,-1,20
 218 191 218 191 218 139 c 0,21,22
 218 86 218 86 252.5 51.5 c 128,-1,23
 287 17 287 17 339 17 c 1,24,-1
 339 -8 l 1,25,26
 292 -8 292 -8 254.5 11 c 128,-1,27
 217 30 217 30 196 63 c 128,-1,28
 175 96 175 96 175 139 c 0,29,30
 175 185 175 185 196 220 c 128,-1,31
 217 255 217 255 254.5 275.5 c 128,-1,32
 292 296 292 296 339 296 c 0,33,34
 388 296 388 296 425.5 275.5 c 128,-1,35
 463 255 463 255 485 219.5 c 128,-1,36
 507 184 507 184 507 137 c 0,37,38
 507 92 507 92 485 57 c 128,-1,39
 463 22 463 22 425.5 2 c 128,-1,40
 388 -18 388 -18 339 -18 c 0,41,42
 254 -18 254 -18 191 15 c 128,-1,43
 128 48 128 48 94 105.5 c 128,-1,44
 60 163 60 163 60 237 c 0,45,46
 60 320 60 320 97 382 c 128,-1,47
 134 444 134 444 206.5 478.5 c 128,-1,48
 279 513 279 513 385 513 c 2,49,-1
 565 513 l 1,50,-1
 565 478 l 1,51,-1
 394 478 l 2,52,53
 300 478 300 478 236 448 c 128,-1,54
 172 418 172 418 140 364 c 128,-1,55
 108 310 108 310 108 237 c 0,8,9
EndSplineSet
EndChar

StartChar: F
Encoding: 70 70 13
Width: 463
Flags: W
LayerCount: 2
Fore
SplineSet
378 364 m 1,0,-1
 149 364 l 1,1,-1
 149 641 l 1,2,-1
 443 641 l 1,3,-1
 436 680 l 1,4,-1
 100 680 l 1,5,-1
 100 0 l 1,6,-1
 149 0 l 1,7,-1
 149 325 l 1,8,-1
 384 325 l 1,9,-1
 378 364 l 1,0,-1
EndSplineSet
EndChar

StartChar: G
Encoding: 71 71 14
Width: 614
Flags: W
LayerCount: 2
Fore
SplineSet
350 303 m 1,0,-1
 503 303 l 1,1,-1
 503 52 l 1,2,3
 478 43 478 43 447.5 36 c 128,-1,4
 417 29 417 29 381 29 c 0,5,6
 301 29 301 29 238.5 68.5 c 128,-1,7
 176 108 176 108 140.5 177.5 c 128,-1,8
 105 247 105 247 105 336 c 0,9,10
 105 405 105 405 126 463 c 128,-1,11
 147 521 147 521 185.5 563.5 c 128,-1,12
 224 606 224 606 276 629.5 c 128,-1,13
 328 653 328 653 390 653 c 0,14,15
 426 653 426 653 450.5 649.5 c 128,-1,16
 475 646 475 646 495 639.5 c 128,-1,17
 515 633 515 633 535 624 c 1,18,-1
 554 657 l 1,19,20
 536 670 536 670 504.5 678 c 128,-1,21
 473 686 473 686 441 690 c 128,-1,22
 409 694 409 694 388 694 c 0,23,24
 315 694 315 694 253 667.5 c 128,-1,25
 191 641 191 641 145.5 593 c 128,-1,26
 100 545 100 545 75 479.5 c 128,-1,27
 50 414 50 414 50 336 c 0,28,29
 50 237 50 237 90 157.5 c 128,-1,30
 130 78 130 78 204.5 32 c 128,-1,31
 279 -14 279 -14 382 -14 c 0,32,33
 411 -14 411 -14 443 -8 c 128,-1,34
 475 -2 475 -2 504.5 8.5 c 128,-1,35
 534 19 534 19 552 31 c 1,36,-1
 552 342 l 1,37,-1
 356 342 l 1,38,-1
 350 303 l 1,0,-1
EndSplineSet
EndChar

StartChar: H
Encoding: 72 72 15
Width: 1531
Flags: W
AnchorPoint: "Anchor-1" 1140 0 basechar 0
AnchorPoint: "Anchor-0" 1542 0 basechar 0
LayerCount: 2
Fore
SplineSet
551 0 m 1,0,-1
 551 35 l 1,1,2
 589 73 589 73 614 129 c 128,-1,3
 639 185 639 185 639 255 c 0,4,5
 639 323 639 323 607.5 376 c 128,-1,6
 576 429 576 429 517.5 459 c 128,-1,7
 459 489 459 489 379 489 c 0,8,9
 296 489 296 489 235 456.5 c 128,-1,10
 174 424 174 424 141 367 c 128,-1,11
 108 310 108 310 108 237 c 0,12,13
 108 173 108 173 136 123.5 c 128,-1,14
 164 74 164 74 216 45.5 c 128,-1,15
 268 17 268 17 339 17 c 0,16,17
 392 17 392 17 426 51 c 128,-1,18
 460 85 460 85 460 137 c 0,19,20
 460 190 460 190 426 223.5 c 128,-1,21
 392 257 392 257 339 257 c 0,22,23
 287 257 287 257 252.5 224 c 128,-1,24
 218 191 218 191 218 139 c 0,25,26
 218 86 218 86 252.5 51.5 c 128,-1,27
 287 17 287 17 339 17 c 1,28,-1
 339 -8 l 1,29,30
 292 -8 292 -8 254.5 11 c 128,-1,31
 217 30 217 30 196 63 c 128,-1,32
 175 96 175 96 175 139 c 0,33,34
 175 185 175 185 196 220 c 128,-1,35
 217 255 217 255 254.5 275.5 c 128,-1,36
 292 296 292 296 339 296 c 0,37,38
 388 296 388 296 425.5 275.5 c 128,-1,39
 463 255 463 255 485 219.5 c 128,-1,40
 507 184 507 184 507 137 c 0,41,42
 507 92 507 92 485 57 c 128,-1,43
 463 22 463 22 425.5 2 c 128,-1,44
 388 -18 388 -18 339 -18 c 0,45,46
 254 -18 254 -18 191 15 c 128,-1,47
 128 48 128 48 94 105.5 c 128,-1,48
 60 163 60 163 60 237 c 0,49,50
 60 323 60 323 99.5 389 c 128,-1,51
 139 455 139 455 210.5 493 c 128,-1,52
 282 531 282 531 379 531 c 0,53,54
 473 531 473 531 541.5 495.5 c 128,-1,55
 610 460 610 460 648 397.5 c 128,-1,56
 686 335 686 335 686 255 c 0,57,58
 686 191 686 191 666 133.5 c 128,-1,59
 646 76 646 76 612 35 c 1,60,-1
 847 35 l 1,61,-1
 847 337 l 2,62,63
 847 401 847 401 865.5 444 c 128,-1,64
 884 487 884 487 918 509 c 128,-1,65
 952 531 952 531 996 531 c 0,66,67
 1044 531 1044 531 1080 504.5 c 128,-1,68
 1116 478 1116 478 1136 433 c 1,69,70
 1156 481 1156 481 1193.5 506 c 128,-1,71
 1231 531 1231 531 1273 531 c 0,72,73
 1340 531 1340 531 1384 492.5 c 128,-1,74
 1428 454 1428 454 1449.5 386 c 128,-1,75
 1471 318 1471 318 1471 231 c 0,76,77
 1471 116 1471 116 1439.5 27 c 128,-1,78
 1408 -62 1408 -62 1338.5 -113 c 128,-1,79
 1269 -164 1269 -164 1153 -164 c 2,80,-1
 259 -164 l 2,81,82
 201 -164 201 -164 158.5 -186 c 128,-1,83
 116 -208 116 -208 94 -243 c 1,84,-1
 60 -222 l 1,85,86
 84 -181 84 -181 138 -155 c 128,-1,87
 192 -129 192 -129 259 -129 c 2,88,-1
 1153 -129 l 2,89,90
 1254 -129 1254 -129 1313.5 -82 c 128,-1,91
 1373 -35 1373 -35 1398.5 46.5 c 128,-1,92
 1424 128 1424 128 1424 231 c 0,93,94
 1424 307 1424 307 1408 365 c 128,-1,95
 1392 423 1392 423 1359.5 456 c 128,-1,96
 1327 489 1327 489 1277 489 c 0,97,98
 1225 489 1225 489 1193.5 452 c 128,-1,99
 1162 415 1162 415 1162 338 c 2,100,-1
 1162 0 l 1,101,-1
 1118 0 l 1,102,-1
 1118 320 l 2,103,104
 1118 369 1118 369 1103.5 407 c 128,-1,105
 1089 445 1089 445 1063 467 c 128,-1,106
 1037 489 1037 489 1000 489 c 0,107,108
 948 489 948 489 919.5 452 c 128,-1,109
 891 415 891 415 891 338 c 2,110,-1
 891 0 l 1,111,-1
 551 0 l 1,0,-1
EndSplineSet
EndChar

StartChar: I
Encoding: 73 73 16
Width: 1030
Flags: W
LayerCount: 2
Fore
SplineSet
490 531 m 0,0,1
 428 531 428 531 380 505 c 128,-1,2
 332 479 332 479 305 434.5 c 128,-1,3
 278 390 278 390 278 332 c 0,4,5
 278 283 278 283 311.5 250 c 128,-1,6
 345 217 345 217 397 216 c 0,7,8
 451 215 451 215 486 247 c 128,-1,9
 521 279 521 279 522 329 c 0,10,11
 523 377 523 377 487.5 409 c 128,-1,12
 452 441 452 441 398 441 c 0,13,14
 369 441 369 441 344 426.5 c 128,-1,15
 319 412 319 412 304.5 387 c 128,-1,16
 290 362 290 362 290 329 c 1,17,-1
 317 329 l 1,18,19
 317 362 317 362 340.5 383 c 128,-1,20
 364 404 364 404 398 404 c 0,21,22
 433 404 433 404 455.5 383 c 128,-1,23
 478 362 478 362 478 329 c 0,24,25
 478 295 478 295 455 274 c 128,-1,26
 432 253 432 253 397 254 c 0,27,28
 363 256 363 256 340 277 c 128,-1,29
 317 298 317 298 317 329 c 0,30,31
 317 402 317 402 365.5 445.5 c 128,-1,32
 414 489 414 489 490 489 c 0,33,34
 578 489 578 489 619.5 441.5 c 128,-1,35
 661 394 661 394 661 320 c 0,36,37
 661 263 661 263 632 198.5 c 128,-1,38
 603 134 603 134 554 71 c 128,-1,39
 505 8 505 8 443 -43 c 128,-1,40
 381 -94 381 -94 314 -125 c 128,-1,41
 247 -156 247 -156 183 -156 c 0,42,43
 133 -156 133 -156 110.5 -139.5 c 128,-1,44
 88 -123 88 -123 88 -95 c 0,45,46
 88 -50 88 -50 117 -12.5 c 128,-1,47
 146 25 146 25 196 52.5 c 128,-1,48
 246 80 246 80 310 95 c 128,-1,49
 374 110 374 110 444 110 c 0,50,51
 505 110 505 110 560.5 95 c 128,-1,52
 616 80 616 80 660 52.5 c 128,-1,53
 704 25 704 25 729.5 -12.5 c 128,-1,54
 755 -50 755 -50 755 -95 c 0,55,56
 755 -123 755 -123 732.5 -139.5 c 128,-1,57
 710 -156 710 -156 659 -156 c 0,58,59
 585 -156 585 -156 514 -130 c 128,-1,60
 443 -104 443 -104 381 -57 c 128,-1,61
 319 -10 319 -10 272.5 53.5 c 128,-1,62
 226 117 226 117 199.5 192 c 128,-1,63
 173 267 173 267 173 349 c 0,64,65
 173 452 173 452 220 523 c 128,-1,66
 267 594 267 594 350.5 631.5 c 128,-1,67
 434 669 434 669 542 669 c 0,68,69
 643 669 643 669 720.5 630.5 c 128,-1,70
 798 592 798 592 842 522 c 128,-1,71
 886 452 886 452 886 356 c 2,72,-1
 886 -148 l 1,73,-1
 930 -148 l 1,74,-1
 930 358 l 2,75,76
 930 438 930 438 901.5 503 c 128,-1,77
 873 568 873 568 820.5 614.5 c 128,-1,78
 768 661 768 661 697 686 c 128,-1,79
 626 711 626 711 542 711 c 0,80,81
 451 711 451 711 375 686.5 c 128,-1,82
 299 662 299 662 243 615.5 c 128,-1,83
 187 569 187 569 156.5 502 c 128,-1,84
 126 435 126 435 126 349 c 256,85,86
 126 263 126 263 155 182.5 c 128,-1,87
 184 102 184 102 235 33 c 128,-1,88
 286 -36 286 -36 353.5 -88 c 128,-1,89
 421 -140 421 -140 499 -169 c 128,-1,90
 577 -198 577 -198 659 -198 c 0,91,92
 729 -198 729 -198 765.5 -169 c 128,-1,93
 802 -140 802 -140 802 -95 c 0,94,95
 802 -41 802 -41 773 4 c 128,-1,96
 744 49 744 49 694 82.5 c 128,-1,97
 644 116 644 116 579.5 134 c 128,-1,98
 515 152 515 152 444 152 c 0,99,100
 363 152 363 152 290.5 134 c 128,-1,101
 218 116 218 116 161.5 82.5 c 128,-1,102
 105 49 105 49 72.5 4 c 128,-1,103
 40 -41 40 -41 40 -95 c 0,104,105
 40 -140 40 -140 76.5 -169 c 128,-1,106
 113 -198 113 -198 183 -198 c 0,107,108
 242 -198 242 -198 304 -174.5 c 128,-1,109
 366 -151 366 -151 424.5 -110.5 c 128,-1,110
 483 -70 483 -70 534.5 -18 c 128,-1,111
 586 34 586 34 625.5 92.5 c 128,-1,112
 665 151 665 151 687 209.5 c 128,-1,113
 709 268 709 268 709 320 c 0,114,115
 709 381 709 381 684.5 428.5 c 128,-1,116
 660 476 660 476 611.5 503.5 c 128,-1,117
 563 531 563 531 490 531 c 0,0,1
EndSplineSet
EndChar

StartChar: J
Encoding: 74 74 17
Width: 841
Flags: W
AnchorPoint: "Anchor-1" 430 0 basechar 0
AnchorPoint: "Anchor-0" 880 0 basechar 0
LayerCount: 2
Fore
SplineSet
257.5 -53 m 4,0,1
 273.5 -53 273.5 -53 285 -42 c 132,-1,2
 296.5 -31 296.5 -31 296.5 -15 c 260,3,4
 296.5 1 296.5 1 285 12 c 132,-1,5
 273.5 23 273.5 23 257.5 23 c 4,6,7
 240.5 23 240.5 23 230 12 c 132,-1,8
 219.5 1 219.5 1 219.5 -15 c 260,9,10
 219.5 -31 219.5 -31 230 -42 c 132,-1,11
 240.5 -53 240.5 -53 257.5 -53 c 4,0,1
257.5 -53 m 4,12,13
 273.5 -53 273.5 -53 285 -42 c 132,-1,14
 296.5 -31 296.5 -31 296.5 -15 c 260,15,16
 296.5 1 296.5 1 285 12 c 132,-1,17
 273.5 23 273.5 23 257.5 23 c 4,18,19
 240.5 23 240.5 23 230 12 c 132,-1,20
 219.5 1 219.5 1 219.5 -15 c 260,21,22
 219.5 -31 219.5 -31 230 -42 c 132,-1,23
 240.5 -53 240.5 -53 257.5 -53 c 4,12,13
599.5 318 m 0,24,25
 615.5 318 615.5 318 627 329 c 128,-1,26
 638.5 340 638.5 340 638.5 356 c 256,27,28
 638.5 372 638.5 372 627 383 c 128,-1,29
 615.5 394 615.5 394 599.5 394 c 0,30,31
 582.5 394 582.5 394 572 383 c 128,-1,32
 561.5 372 561.5 372 561.5 356 c 256,33,34
 561.5 340 561.5 340 572 329 c 128,-1,35
 582.5 318 582.5 318 599.5 318 c 0,24,25
599.5 318 m 0,36,37
 615.5 318 615.5 318 627 329 c 128,-1,38
 638.5 340 638.5 340 638.5 356 c 256,39,40
 638.5 372 638.5 372 627 383 c 128,-1,41
 615.5 394 615.5 394 599.5 394 c 0,42,43
 582.5 394 582.5 394 572 383 c 128,-1,44
 561.5 372 561.5 372 561.5 356 c 256,45,46
 561.5 340 561.5 340 572 329 c 128,-1,47
 582.5 318 582.5 318 599.5 318 c 0,36,37
463 274 m 1,48,-1
 419 274 l 1,49,-1
 419 343 l 2,50,51
 419 408 419 408 377.5 448.5 c 128,-1,52
 336 489 336 489 271 489 c 0,53,54
 219 489 219 489 183 470 c 128,-1,55
 147 451 147 451 129 417.5 c 128,-1,56
 111 384 111 384 111 339 c 0,57,58
 111 314 111 314 128 297 c 128,-1,59
 145 280 145 280 170 280 c 0,60,61
 196 280 196 280 213.5 296.5 c 128,-1,62
 231 313 231 313 232 338 c 0,63,64
 232 365 232 365 215 383 c 128,-1,65
 198 401 198 401 172 401 c 0,66,67
 145 401 145 401 127.5 383 c 128,-1,68
 110 365 110 365 111 339 c 1,69,-1
 81 338 l 1,70,71
 80 382 80 382 106.5 409.5 c 128,-1,72
 133 437 133 437 173 437 c 0,73,74
 220 437 220 437 248.5 409.5 c 128,-1,75
 277 382 277 382 275 338 c 0,76,77
 274 298 274 298 244.5 271 c 128,-1,78
 215 244 215 244 170 245 c 256,79,80
 125 246 125 246 96 273 c 128,-1,81
 67 300 67 300 67 342 c 0,82,83
 67 397 67 397 93.5 439.5 c 128,-1,84
 120 482 120 482 166 506.5 c 128,-1,85
 212 531 212 531 271 531 c 0,86,87
 317 531 317 531 351.5 515 c 128,-1,88
 386 499 386 499 411.5 472.5 c 128,-1,89
 437 446 437 446 454 412 c 1,90,-1
 454 368 l 1,91,-1
 426 368 l 1,92,-1
 426 412 l 1,93,94
 452 462 452 462 495 496.5 c 128,-1,95
 538 531 538 531 605 531 c 0,96,97
 656 531 656 531 695.5 508.5 c 128,-1,98
 735 486 735 486 758 447 c 128,-1,99
 781 408 781 408 781 358 c 0,100,101
 781 296 781 296 748.5 255 c 128,-1,102
 716 214 716 214 656 190.5 c 128,-1,103
 596 167 596 167 511 156 c 2,104,-1
 330 131 l 2,105,106
 270 123 270 123 219.5 103 c 128,-1,107
 169 83 169 83 139 50 c 128,-1,108
 109 17 109 17 108 -32 c 0,109,110
 108 -90 108 -90 141 -126.5 c 128,-1,111
 174 -163 174 -163 231 -163 c 0,112,113
 271 -163 271 -163 309.5 -139.5 c 128,-1,114
 348 -116 348 -116 387 -81.5 c 128,-1,115
 426 -47 426 -47 466 -12 c 128,-1,116
 506 23 506 23 548 46.5 c 128,-1,117
 590 70 590 70 635 70 c 0,118,119
 678 70 678 70 710.5 53 c 128,-1,120
 743 36 743 36 762 5.5 c 128,-1,121
 781 -25 781 -25 781 -64 c 0,122,123
 781 -104 781 -104 759.5 -135 c 128,-1,124
 738 -166 738 -166 699.5 -184 c 128,-1,125
 661 -202 661 -202 609 -202 c 2,126,-1
 488 -202 l 1,127,-1
 488 -167 l 1,128,-1
 609 -167 l 2,129,130
 667 -167 667 -167 700 -137.5 c 128,-1,131
 733 -108 733 -108 733 -64 c 0,132,133
 733 -23 733 -23 706 2.5 c 128,-1,134
 679 28 679 28 635 28 c 0,135,136
 603 28 603 28 571.5 11 c 128,-1,137
 540 -6 540 -6 509 -32.5 c 128,-1,138
 478 -59 478 -59 445.5 -88.5 c 128,-1,139
 413 -118 413 -118 379 -144.5 c 128,-1,140
 345 -171 345 -171 308.5 -188 c 128,-1,141
 272 -205 272 -205 231 -205 c 0,142,143
 180 -205 180 -205 141.5 -182.5 c 128,-1,144
 103 -160 103 -160 81.5 -121 c 128,-1,145
 60 -82 60 -82 60 -32 c 0,146,147
 60 29 60 29 93 69.5 c 128,-1,148
 126 110 126 110 186.5 134.5 c 128,-1,149
 247 159 247 159 330 170 c 2,150,-1
 511 194 l 2,151,152
 572 202 572 202 622 222 c 128,-1,153
 672 242 672 242 702.5 276 c 128,-1,154
 733 310 733 310 733 358 c 0,155,156
 733 417 733 417 698 453 c 128,-1,157
 663 489 663 489 605 489 c 0,158,159
 564 489 564 489 532 470.5 c 128,-1,160
 500 452 500 452 481.5 419 c 128,-1,161
 463 386 463 386 463 343 c 2,162,-1
 463 274 l 1,48,-1
EndSplineSet
EndChar

StartChar: K
Encoding: 75 75 18
Width: 723
Flags: W
AnchorPoint: "Anchor-1" 381 0 basechar 0
AnchorPoint: "Anchor-0" 680 0 basechar 0
LayerCount: 2
Fore
SplineSet
250.5 101 m 4,0,1
 266.5 101 266.5 101 278 112 c 132,-1,2
 289.5 123 289.5 123 289.5 139 c 260,3,4
 289.5 155 289.5 155 278 166 c 132,-1,5
 266.5 177 266.5 177 250.5 177 c 4,6,7
 233.5 177 233.5 177 223 166 c 132,-1,8
 212.5 155 212.5 155 212.5 139 c 260,9,10
 212.5 123 212.5 123 223 112 c 132,-1,11
 233.5 101 233.5 101 250.5 101 c 4,0,1
250.5 101 m 4,12,13
 266.5 101 266.5 101 278 112 c 132,-1,14
 289.5 123 289.5 123 289.5 139 c 260,15,16
 289.5 155 289.5 155 278 166 c 132,-1,17
 266.5 177 266.5 177 250.5 177 c 4,18,19
 233.5 177 233.5 177 223 166 c 132,-1,20
 212.5 155 212.5 155 212.5 139 c 260,21,22
 212.5 123 212.5 123 223 112 c 132,-1,23
 233.5 101 233.5 101 250.5 101 c 4,12,13
453 205 m 2,24,25
 453 132 453 132 425 82 c 128,-1,26
 397 32 397 32 348 7 c 128,-1,27
 299 -18 299 -18 236 -18 c 0,28,29
 180 -18 180 -18 138 2 c 128,-1,30
 96 22 96 22 73 57 c 128,-1,31
 50 92 50 92 50 136 c 0,32,33
 50 201 50 201 96 244 c 128,-1,34
 142 287 142 287 225 287 c 2,35,-1
 504 287 l 2,36,37
 560 287 560 287 600 268 c 128,-1,38
 640 249 640 249 661.5 216 c 128,-1,39
 683 183 683 183 683 140 c 0,40,41
 683 95 683 95 660.5 59 c 128,-1,42
 638 23 638 23 595 2.5 c 128,-1,43
 552 -18 552 -18 492 -18 c 1,44,-1
 492 17 l 1,45,46
 563 17 563 17 599 51.5 c 128,-1,47
 635 86 635 86 635 140 c 0,48,49
 635 188 635 188 602.5 220 c 128,-1,50
 570 252 570 252 505 252 c 2,51,-1
 226 252 l 2,52,53
 164 252 164 252 131 219 c 128,-1,54
 98 186 98 186 98 135 c 0,55,56
 98 85 98 85 134.5 54.5 c 128,-1,57
 171 24 171 24 236 24 c 0,58,59
 286 24 286 24 325 44 c 128,-1,60
 364 64 364 64 386.5 104.5 c 128,-1,61
 409 145 409 145 409 205 c 2,62,-1
 409 478 l 1,63,-1
 211 478 l 1,64,-1
 211 263 l 1,65,-1
 167 263 l 1,66,-1
 167 513 l 1,67,-1
 622 513 l 1,68,-1
 627 478 l 1,69,-1
 453 478 l 1,70,-1
 453 205 l 2,24,25
EndSplineSet
EndChar

StartChar: L
Encoding: 76 76 19
Width: 1199
Flags: W
AnchorPoint: "Anchor-1" 666 0 basechar 0
AnchorPoint: "Anchor-0" 1208 0 basechar 0
LayerCount: 2
Fore
SplineSet
108 237 m 0,0,1
 108 173 108 173 136 123.5 c 128,-1,2
 164 74 164 74 216 45.5 c 128,-1,3
 268 17 268 17 339 17 c 0,4,5
 392 17 392 17 426 51 c 128,-1,6
 460 85 460 85 460 137 c 0,7,8
 460 190 460 190 426 223.5 c 128,-1,9
 392 257 392 257 339 257 c 0,10,11
 287 257 287 257 252.5 224 c 128,-1,12
 218 191 218 191 218 139 c 0,13,14
 218 86 218 86 252.5 51.5 c 128,-1,15
 287 17 287 17 339 17 c 1,16,-1
 339 -8 l 1,17,18
 292 -8 292 -8 254.5 11 c 128,-1,19
 217 30 217 30 196 63 c 128,-1,20
 175 96 175 96 175 139 c 0,21,22
 175 185 175 185 196 220 c 128,-1,23
 217 255 217 255 254.5 275.5 c 128,-1,24
 292 296 292 296 339 296 c 0,25,26
 388 296 388 296 425.5 275.5 c 128,-1,27
 463 255 463 255 485 219.5 c 128,-1,28
 507 184 507 184 507 137 c 0,29,30
 507 92 507 92 485 57 c 128,-1,31
 463 22 463 22 425.5 2 c 128,-1,32
 388 -18 388 -18 339 -18 c 0,33,34
 254 -18 254 -18 191 15 c 128,-1,35
 128 48 128 48 94 105.5 c 128,-1,36
 60 163 60 163 60 237 c 0,37,38
 60 323 60 323 97 389 c 128,-1,39
 134 455 134 455 203.5 493 c 128,-1,40
 273 531 273 531 370 531 c 0,41,42
 457 531 457 531 525 491.5 c 128,-1,43
 593 452 593 452 630 384 c 1,44,-1
 630 513 l 1,45,-1
 1184 513 l 1,46,-1
 1189 478 l 1,47,-1
 988 478 l 1,48,-1
 988 0 l 1,49,-1
 944 0 l 1,50,-1
 944 478 l 1,51,-1
 674 478 l 1,52,-1
 674 0 l 1,53,-1
 630 0 l 1,54,-1
 630 228 l 2,55,56
 630 304 630 304 596.5 362.5 c 128,-1,57
 563 421 563 421 504.5 455 c 128,-1,58
 446 489 446 489 370 489 c 0,59,60
 287 489 287 489 228 456.5 c 128,-1,61
 169 424 169 424 138.5 367 c 128,-1,62
 108 310 108 310 108 237 c 0,0,1
EndSplineSet
EndChar

StartChar: M
Encoding: 77 77 20
Width: 786
Flags: W
AnchorPoint: "Anchor-1" 454 0 basechar 0
AnchorPoint: "Anchor-0" 799 0 basechar 0
LayerCount: 2
Fore
SplineSet
144 35 m 1,0,-1
 144 518 l 1,1,-1
 100 513 l 1,2,-1
 100 0 l 1,3,-1
 537 0 l 2,4,5
 605 0 605 0 646.5 30 c 128,-1,6
 688 60 688 60 707 112 c 128,-1,7
 726 164 726 164 726 231 c 0,8,9
 726 318 726 318 702 386 c 128,-1,10
 678 454 678 454 633 492.5 c 128,-1,11
 588 531 588 531 525 531 c 0,12,13
 481 531 481 531 446 512 c 128,-1,14
 411 493 411 493 391.5 454 c 128,-1,15
 372 415 372 415 372 355 c 2,16,-1
 372 10 l 1,17,-1
 416 19 l 1,18,-1
 416 356 l 2,19,20
 416 430 416 430 448 459.5 c 128,-1,21
 480 489 480 489 528 489 c 256,22,23
 576 489 576 489 609.5 456 c 128,-1,24
 643 423 643 423 660.5 364.5 c 128,-1,25
 678 306 678 306 678 231 c 0,26,27
 678 175 678 175 665.5 130.5 c 128,-1,28
 653 86 653 86 622.5 60.5 c 128,-1,29
 592 35 592 35 537 35 c 2,30,-1
 144 35 l 1,0,-1
EndSplineSet
EndChar

StartChar: N
Encoding: 78 78 21
Width: 734
Flags: W
AnchorPoint: "Anchor-1" 361 0 basechar 0
AnchorPoint: "Anchor-0" 634 0 basechar 0
LayerCount: 2
Fore
SplineSet
514 343 m 0,0,1
 568 343 568 343 603.5 315 c 128,-1,2
 639 287 639 287 656.5 237.5 c 128,-1,3
 674 188 674 188 674 123 c 0,4,5
 674 45 674 45 643.5 -20.5 c 128,-1,6
 613 -86 613 -86 551.5 -125 c 128,-1,7
 490 -164 490 -164 397 -164 c 2,8,-1
 300 -164 l 2,9,10
 242 -164 242 -164 199 -186 c 128,-1,11
 156 -208 156 -208 134 -243 c 1,12,-1
 100 -222 l 1,13,14
 124 -181 124 -181 178.5 -155 c 128,-1,15
 233 -129 233 -129 300 -129 c 2,16,-1
 397 -129 l 2,17,18
 475 -129 475 -129 526 -94 c 128,-1,19
 577 -59 577 -59 602 -1.5 c 128,-1,20
 627 56 627 56 627 125 c 0,21,22
 627 204 627 204 599 252.5 c 128,-1,23
 571 301 571 301 511 301 c 0,24,25
 456 301 456 301 421 263 c 128,-1,26
 386 225 386 225 386 166 c 2,27,-1
 386 0 l 1,28,-1
 342 0 l 1,29,-1
 342 478 l 1,30,-1
 144 478 l 1,31,-1
 144 0 l 1,32,-1
 100 0 l 1,33,-1
 100 513 l 1,34,-1
 582 513 l 1,35,-1
 587 478 l 1,36,-1
 386 478 l 1,37,-1
 386 282 l 1,38,39
 409 311 409 311 441.5 327 c 128,-1,40
 474 343 474 343 514 343 c 0,0,1
EndSplineSet
EndChar

StartChar: O
Encoding: 79 79 22
Width: 819
Flags: W
LayerCount: 2
Fore
SplineSet
720 0 m 1,0,-1
 720 -35 l 1,1,-1
 661 -35 l 2,2,3
 642 -35 642 -35 625 -32.5 c 128,-1,4
 608 -30 608 -30 593 -26 c 1,5,-1
 593 -50 l 2,6,7
 593 -99 593 -99 566.5 -137 c 128,-1,8
 540 -175 540 -175 493.5 -197 c 128,-1,9
 447 -219 447 -219 387 -219 c 0,10,11
 332 -219 332 -219 289.5 -202 c 128,-1,12
 247 -185 247 -185 222.5 -154.5 c 128,-1,13
 198 -124 198 -124 198 -86 c 0,14,15
 198 -39 198 -39 231.5 -9 c 128,-1,16
 265 21 265 21 317 21 c 2,17,-1
 338 21 l 1,18,-1
 338 -14 l 1,19,-1
 317 -14 l 2,20,21
 284 -14 284 -14 263 -34 c 128,-1,22
 242 -54 242 -54 242 -86 c 0,23,24
 242 -127 242 -127 283 -153.5 c 128,-1,25
 324 -180 324 -180 387 -180 c 0,26,27
 434 -180 434 -180 470.5 -163 c 128,-1,28
 507 -146 507 -146 528 -116.5 c 128,-1,29
 549 -87 549 -87 549 -50 c 2,30,-1
 549 -3 l 1,31,32
 522 18 522 18 509.5 52.5 c 128,-1,33
 497 87 497 87 497 133 c 2,34,-1
 497 269 l 1,35,-1
 541 269 l 1,36,37
 543 224 543 224 567.5 196 c 128,-1,38
 592 168 592 168 629 168 c 0,39,40
 673 168 673 168 692 199.5 c 128,-1,41
 711 231 711 231 711 282 c 0,42,43
 711 343 711 343 671.5 390 c 128,-1,44
 632 437 632 437 564 464 c 128,-1,45
 496 491 496 491 409 491 c 0,46,47
 312 491 312 491 240 457 c 128,-1,48
 168 423 168 423 132 365 c 128,-1,49
 96 307 96 307 107 234 c 1,50,51
 114 276 114 276 145 302 c 128,-1,52
 176 328 176 328 220 328 c 0,53,54
 271 328 271 328 304 295.5 c 128,-1,55
 337 263 337 263 337 213 c 0,56,57
 337 165 337 165 303.5 133.5 c 128,-1,58
 270 102 270 102 217 102 c 0,59,60
 172 102 172 102 136.5 123.5 c 128,-1,61
 101 145 101 145 80.5 183 c 128,-1,62
 60 221 60 221 60 269 c 0,63,64
 60 327 60 327 86 375.5 c 128,-1,65
 112 424 112 424 159 459.5 c 128,-1,66
 206 495 206 495 269.5 514.5 c 128,-1,67
 333 534 333 534 409 534 c 256,68,69
 485 534 485 534 549 515.5 c 128,-1,70
 613 497 613 497 660 463 c 128,-1,71
 707 429 707 429 733 383 c 128,-1,72
 759 337 759 337 759 282 c 0,73,74
 759 237 759 237 744 201.5 c 128,-1,75
 729 166 729 166 700.5 146 c 128,-1,76
 672 126 672 126 629 126 c 0,77,78
 601 126 601 126 577 138 c 128,-1,79
 553 150 553 150 536 172 c 1,80,-1
 536 133 l 2,81,82
 536 69 536 69 565 34.5 c 128,-1,83
 594 0 594 0 661 0 c 2,84,-1
 720 0 l 1,0,-1
141 212 m 0,85,86
 141 181 141 181 162.5 160.5 c 128,-1,87
 184 140 184 140 217 140 c 0,88,89
 249 140 249 140 270 161 c 128,-1,90
 291 182 291 182 292 213 c 0,91,92
 292 246 292 246 271.5 267 c 128,-1,93
 251 288 251 288 219 288 c 0,94,95
 185 288 185 288 163 267 c 128,-1,96
 141 246 141 246 141 212 c 0,85,86
EndSplineSet
EndChar

StartChar: P
Encoding: 80 80 23
Width: 706
Flags: W
AnchorPoint: "Anchor-1" 347 0 basechar 0
AnchorPoint: "Anchor-0" 768 0 basechar 0
LayerCount: 2
Fore
SplineSet
606 513 m 1,0,-1
 606 0 l 1,1,-1
 100 0 l 1,2,-1
 100 513 l 1,3,-1
 144 518 l 1,4,-1
 144 35 l 1,5,-1
 562 35 l 1,6,-1
 562 513 l 1,7,-1
 606 513 l 1,0,-1
EndSplineSet
EndChar

StartChar: Q
Encoding: 81 81 24
Width: 723
Flags: W
AnchorPoint: "Anchor-1" 381 0 basechar 0
AnchorPoint: "Anchor-0" 680 0 basechar 0
LayerCount: 2
Fore
SplineSet
453 205 m 2,0,1
 453 132 453 132 425 82 c 128,-1,2
 397 32 397 32 348 7 c 128,-1,3
 299 -18 299 -18 236 -18 c 0,4,5
 180 -18 180 -18 138 2 c 128,-1,6
 96 22 96 22 73 57 c 128,-1,7
 50 92 50 92 50 136 c 0,8,9
 50 201 50 201 96 244 c 128,-1,10
 142 287 142 287 225 287 c 2,11,-1
 504 287 l 2,12,13
 560 287 560 287 600 268 c 128,-1,14
 640 249 640 249 661.5 216 c 128,-1,15
 683 183 683 183 683 140 c 0,16,17
 683 95 683 95 660.5 59 c 128,-1,18
 638 23 638 23 595 2.5 c 128,-1,19
 552 -18 552 -18 492 -18 c 1,20,-1
 492 17 l 1,21,22
 563 17 563 17 599 51.5 c 128,-1,23
 635 86 635 86 635 140 c 0,24,25
 635 188 635 188 602.5 220 c 128,-1,26
 570 252 570 252 505 252 c 2,27,-1
 226 252 l 2,28,29
 164 252 164 252 131 219 c 128,-1,30
 98 186 98 186 98 135 c 0,31,32
 98 85 98 85 134.5 54.5 c 128,-1,33
 171 24 171 24 236 24 c 0,34,35
 286 24 286 24 325 44 c 128,-1,36
 364 64 364 64 386.5 104.5 c 128,-1,37
 409 145 409 145 409 205 c 2,38,-1
 409 478 l 1,39,-1
 211 478 l 1,40,-1
 211 263 l 1,41,-1
 167 263 l 1,42,-1
 167 513 l 1,43,-1
 622 513 l 1,44,-1
 627 478 l 1,45,-1
 453 478 l 1,46,-1
 453 205 l 2,0,1
EndSplineSet
EndChar

StartChar: R
Encoding: 82 82 25
Width: 775
Flags: W
AnchorPoint: "Anchor-1" 377 0 basechar 0
AnchorPoint: "Anchor-0" 778 0 basechar 0
LayerCount: 2
Fore
SplineSet
517 531 m 0,0,1
 584 531 584 531 628 492.5 c 128,-1,2
 672 454 672 454 693.5 386 c 128,-1,3
 715 318 715 318 715 231 c 0,4,5
 715 116 715 116 683.5 27 c 128,-1,6
 652 -62 652 -62 582 -113 c 128,-1,7
 512 -164 512 -164 396 -164 c 2,8,-1
 290 -164 l 2,9,10
 232 -164 232 -164 189 -186 c 128,-1,11
 146 -208 146 -208 124 -243 c 1,12,-1
 90 -222 l 1,13,14
 115 -181 115 -181 169 -155 c 128,-1,15
 223 -129 223 -129 290 -129 c 2,16,-1
 396 -129 l 2,17,18
 498 -129 498 -129 557 -82 c 128,-1,19
 616 -35 616 -35 641.5 46.5 c 128,-1,20
 667 128 667 128 667 231 c 0,21,22
 667 307 667 307 651 365 c 128,-1,23
 635 423 635 423 602.5 456 c 128,-1,24
 570 489 570 489 520 489 c 0,25,26
 486 489 486 489 460 472.5 c 128,-1,27
 434 456 434 456 419.5 422.5 c 128,-1,28
 405 389 405 389 405 338 c 2,29,-1
 405 0 l 1,30,-1
 361 0 l 1,31,-1
 361 320 l 2,32,33
 361 369 361 369 347 407 c 128,-1,34
 333 445 333 445 306.5 467 c 128,-1,35
 280 489 280 489 243 489 c 0,36,37
 192 489 192 489 163 452 c 128,-1,38
 134 415 134 415 134 338 c 2,39,-1
 134 0 l 1,40,-1
 90 0 l 1,41,-1
 90 337 l 2,42,43
 90 401 90 401 108.5 444 c 128,-1,44
 127 487 127 487 161 509 c 128,-1,45
 195 531 195 531 239 531 c 0,46,47
 288 531 288 531 324 504.5 c 128,-1,48
 360 478 360 478 379 433 c 1,49,50
 399 481 399 481 436.5 506 c 128,-1,51
 474 531 474 531 517 531 c 0,0,1
EndSplineSet
EndChar

StartChar: S
Encoding: 83 83 26
Width: 998
Flags: W
AnchorPoint: "Anchor-1" 524 0 basechar 0
AnchorPoint: "Anchor-0" 963 0 basechar 0
LayerCount: 2
Fore
SplineSet
749 513 m 2,0,1
 818 513 818 513 859.5 483 c 128,-1,2
 901 453 901 453 919.5 401 c 128,-1,3
 938 349 938 349 938 282 c 0,4,5
 938 195 938 195 914 127.5 c 128,-1,6
 890 60 890 60 845 21 c 128,-1,7
 800 -18 800 -18 737 -18 c 0,8,9
 693 -18 693 -18 658 1 c 128,-1,10
 623 20 623 20 603.5 59 c 128,-1,11
 584 98 584 98 584 158 c 2,12,-1
 584 478 l 1,13,-1
 414 478 l 1,14,-1
 414 176 l 2,15,16
 414 111 414 111 393 68 c 128,-1,17
 372 25 372 25 335.5 3.5 c 128,-1,18
 299 -18 299 -18 252 -18 c 256,19,20
 205 -18 205 -18 168.5 3.5 c 128,-1,21
 132 25 132 25 111 68 c 128,-1,22
 90 111 90 111 90 176 c 2,23,-1
 90 513 l 1,24,-1
 134 518 l 1,25,-1
 134 175 l 2,26,27
 134 100 134 100 167.5 62 c 128,-1,28
 201 24 201 24 252 24 c 256,29,30
 303 24 303 24 336.5 62 c 128,-1,31
 370 100 370 100 370 175 c 2,32,-1
 370 513 l 1,33,-1
 749 513 l 2,0,1
741 24 m 0,34,35
 789 24 789 24 822 57 c 128,-1,36
 855 90 855 90 872.5 148.5 c 128,-1,37
 890 207 890 207 890 282 c 0,38,39
 890 339 890 339 878 383 c 128,-1,40
 866 427 866 427 835.5 452.5 c 128,-1,41
 805 478 805 478 749 478 c 2,42,-1
 628 478 l 1,43,-1
 628 157 l 2,44,45
 628 84 628 84 660 54 c 128,-1,46
 692 24 692 24 741 24 c 0,34,35
EndSplineSet
EndChar

StartChar: T
Encoding: 84 84 27
Width: 733
Flags: W
AnchorPoint: "Anchor-1" 376 0 basechar 0
AnchorPoint: "Anchor-0" 709 0 basechar 0
LayerCount: 2
Fore
SplineSet
477 252 m 2,0,-1
 226 252 l 2,1,2
 164 252 164 252 131 219 c 128,-1,3
 98 186 98 186 98 135 c 0,4,5
 98 85 98 85 134.5 54.5 c 128,-1,6
 171 24 171 24 236 24 c 0,7,8
 286 24 286 24 325 44 c 128,-1,9
 364 64 364 64 386.5 104.5 c 128,-1,10
 409 145 409 145 409 205 c 2,11,-1
 409 478 l 1,12,-1
 211 478 l 1,13,-1
 211 263 l 1,14,-1
 167 263 l 1,15,-1
 167 513 l 1,16,-1
 622 513 l 1,17,-1
 627 478 l 1,18,-1
 453 478 l 1,19,-1
 453 205 l 2,20,21
 453 132 453 132 425 82 c 128,-1,22
 397 32 397 32 348 7 c 128,-1,23
 299 -18 299 -18 236 -18 c 0,24,25
 180 -18 180 -18 138 2 c 128,-1,26
 96 22 96 22 73 57 c 128,-1,27
 50 92 50 92 50 136 c 0,28,29
 50 201 50 201 96 244 c 128,-1,30
 142 287 142 287 225 287 c 2,31,-1
 476 287 l 2,32,33
 537 287 537 287 583.5 260 c 128,-1,34
 630 233 630 233 656.5 185.5 c 128,-1,35
 683 138 683 138 683 77 c 0,36,37
 683 7 683 7 647 -47.5 c 128,-1,38
 611 -102 611 -102 546 -133 c 128,-1,39
 481 -164 481 -164 392 -164 c 2,40,-1
 250 -164 l 2,41,42
 192 -164 192 -164 149 -186 c 128,-1,43
 106 -208 106 -208 84 -243 c 1,44,-1
 50 -222 l 1,45,46
 74 -181 74 -181 128.5 -155 c 128,-1,47
 183 -129 183 -129 250 -129 c 2,48,-1
 392 -129 l 2,49,50
 467 -129 467 -129 521.5 -102.5 c 128,-1,51
 576 -76 576 -76 605.5 -29 c 128,-1,52
 635 18 635 18 635 77 c 0,53,54
 635 128 635 128 615 167.5 c 128,-1,55
 595 207 595 207 559.5 229.5 c 128,-1,56
 524 252 524 252 477 252 c 2,0,-1
EndSplineSet
EndChar

StartChar: U
Encoding: 85 85 28
Width: 964
Flags: W
LayerCount: 2
Fore
SplineSet
954 0 m 1,0,-1
 75 0 l 1,1,-1
 75 35 l 1,2,-1
 954 35 l 1,3,-1
 954 0 l 1,0,-1
52 273 m 1,4,5
 52 309 52 309 71.5 341 c 128,-1,6
 91 373 91 373 125.5 392.5 c 128,-1,7
 160 412 160 412 203 412 c 0,8,9
 248 412 248 412 282.5 394 c 128,-1,10
 317 376 317 376 337 344 c 128,-1,11
 357 312 357 312 357 271 c 0,12,13
 357 229 357 229 336.5 196 c 128,-1,14
 316 163 316 163 280 144 c 128,-1,15
 244 125 244 125 198 125 c 0,16,17
 153 125 153 125 117 144.5 c 128,-1,18
 81 164 81 164 60.5 198 c 128,-1,19
 40 232 40 232 40 275 c 0,20,21
 40 349 40 349 74.5 407 c 128,-1,22
 109 465 109 465 171.5 498 c 128,-1,23
 234 531 234 531 317 531 c 0,24,25
 396 531 396 531 457.5 497.5 c 128,-1,26
 519 464 519 464 554 406 c 128,-1,27
 589 348 589 348 589 273 c 0,28,29
 589 194 589 194 556.5 133.5 c 128,-1,30
 524 73 524 73 463 39 c 128,-1,31
 402 5 402 5 316 5 c 1,32,-1
 316 35 l 1,33,34
 383 35 383 35 433.5 66 c 128,-1,35
 484 97 484 97 512.5 150.5 c 128,-1,36
 541 204 541 204 541 273 c 0,37,38
 541 337 541 337 512.5 385.5 c 128,-1,39
 484 434 484 434 434 461.5 c 128,-1,40
 384 489 384 489 317 489 c 0,41,42
 247 489 247 489 195 461.5 c 128,-1,43
 143 434 143 434 114.5 385.5 c 128,-1,44
 86 337 86 337 86 273 c 0,45,46
 86 226 86 226 117.5 196.5 c 128,-1,47
 149 167 149 167 198 167 c 0,48,49
 246 167 246 167 277.5 196.5 c 128,-1,50
 309 226 309 226 309 271 c 0,51,52
 309 315 309 315 279 344.5 c 128,-1,53
 249 374 249 374 203 374 c 0,54,55
 152 374 152 374 119 345.5 c 128,-1,56
 86 317 86 317 86 273 c 1,57,-1
 52 273 l 1,4,5
EndSplineSet
EndChar

StartChar: V
Encoding: 86 86 29
Width: 1027
Flags: W
AnchorPoint: "Anchor-1" 562 0 basechar 0
AnchorPoint: "Anchor-0" 1084 0 basechar 0
LayerCount: 2
Fore
SplineSet
639 255 m 0,0,1
 639 323 639 323 608.5 376 c 128,-1,2
 578 429 578 429 520 459 c 128,-1,3
 462 489 462 489 379 489 c 256,4,5
 296 489 296 489 235 456.5 c 128,-1,6
 174 424 174 424 141 367 c 128,-1,7
 108 310 108 310 108 237 c 0,8,9
 108 173 108 173 136 123.5 c 128,-1,10
 164 74 164 74 216 45.5 c 128,-1,11
 268 17 268 17 339 17 c 0,12,13
 392 17 392 17 426 51 c 128,-1,14
 460 85 460 85 460 137 c 0,15,16
 460 190 460 190 426 223.5 c 128,-1,17
 392 257 392 257 339 257 c 0,18,19
 287 257 287 257 252.5 224 c 128,-1,20
 218 191 218 191 218 139 c 0,21,22
 218 86 218 86 252.5 51.5 c 128,-1,23
 287 17 287 17 339 17 c 1,24,-1
 339 -8 l 1,25,26
 292 -8 292 -8 254.5 11 c 128,-1,27
 217 30 217 30 196 63 c 128,-1,28
 175 96 175 96 175 139 c 0,29,30
 175 185 175 185 196 220 c 128,-1,31
 217 255 217 255 254.5 275.5 c 128,-1,32
 292 296 292 296 339 296 c 0,33,34
 388 296 388 296 425.5 275.5 c 128,-1,35
 463 255 463 255 485 219.5 c 128,-1,36
 507 184 507 184 507 137 c 0,37,38
 507 92 507 92 485 57 c 128,-1,39
 463 22 463 22 425.5 2 c 128,-1,40
 388 -18 388 -18 339 -18 c 0,41,42
 254 -18 254 -18 191 15 c 128,-1,43
 128 48 128 48 94 105.5 c 128,-1,44
 60 163 60 163 60 237 c 0,45,46
 60 323 60 323 99.5 389 c 128,-1,47
 139 455 139 455 210.5 493 c 128,-1,48
 282 531 282 531 379 531 c 0,49,50
 473 531 473 531 541.5 495.5 c 128,-1,51
 610 460 610 460 648 397.5 c 128,-1,52
 686 335 686 335 686 255 c 0,53,54
 686 191 686 191 666 133.5 c 128,-1,55
 646 76 646 76 612 35 c 1,56,-1
 883 35 l 1,57,-1
 883 513 l 1,58,-1
 927 513 l 1,59,-1
 927 0 l 1,60,-1
 551 0 l 1,61,-1
 551 35 l 1,62,63
 589 73 589 73 614 129 c 128,-1,64
 639 185 639 185 639 255 c 0,0,1
EndSplineSet
EndChar

StartChar: W
Encoding: 87 87 30
Width: 1027
Flags: W
AnchorPoint: "Anchor-1" 562 0 basechar 0
AnchorPoint: "Anchor-0" 1084 0 basechar 0
LayerCount: 2
Fore
SplineSet
335 98 m 4,0,1
 351 98 351 98 362.5 109 c 132,-1,2
 374 120 374 120 374 136 c 260,3,4
 374 152 374 152 362.5 163 c 132,-1,5
 351 174 351 174 335 174 c 4,6,7
 318 174 318 174 307.5 163 c 132,-1,8
 297 152 297 152 297 136 c 260,9,10
 297 120 297 120 307.5 109 c 132,-1,11
 318 98 318 98 335 98 c 4,0,1
639 255 m 0,12,13
 639 323 639 323 608.5 376 c 128,-1,14
 578 429 578 429 520 459 c 128,-1,15
 462 489 462 489 379 489 c 256,16,17
 296 489 296 489 235 456.5 c 128,-1,18
 174 424 174 424 141 367 c 128,-1,19
 108 310 108 310 108 237 c 0,20,21
 108 173 108 173 136 123.5 c 128,-1,22
 164 74 164 74 216 45.5 c 128,-1,23
 268 17 268 17 339 17 c 0,24,25
 392 17 392 17 426 51 c 128,-1,26
 460 85 460 85 460 137 c 0,27,28
 460 190 460 190 426 223.5 c 128,-1,29
 392 257 392 257 339 257 c 0,30,31
 287 257 287 257 252.5 224 c 128,-1,32
 218 191 218 191 218 139 c 0,33,34
 218 86 218 86 252.5 51.5 c 128,-1,35
 287 17 287 17 339 17 c 1,36,-1
 339 -8 l 1,37,38
 292 -8 292 -8 254.5 11 c 128,-1,39
 217 30 217 30 196 63 c 128,-1,40
 175 96 175 96 175 139 c 0,41,42
 175 185 175 185 196 220 c 128,-1,43
 217 255 217 255 254.5 275.5 c 128,-1,44
 292 296 292 296 339 296 c 0,45,46
 388 296 388 296 425.5 275.5 c 128,-1,47
 463 255 463 255 485 219.5 c 128,-1,48
 507 184 507 184 507 137 c 0,49,50
 507 92 507 92 485 57 c 128,-1,51
 463 22 463 22 425.5 2 c 128,-1,52
 388 -18 388 -18 339 -18 c 0,53,54
 254 -18 254 -18 191 15 c 128,-1,55
 128 48 128 48 94 105.5 c 128,-1,56
 60 163 60 163 60 237 c 0,57,58
 60 323 60 323 99.5 389 c 128,-1,59
 139 455 139 455 210.5 493 c 128,-1,60
 282 531 282 531 379 531 c 0,61,62
 473 531 473 531 541.5 495.5 c 128,-1,63
 610 460 610 460 648 397.5 c 128,-1,64
 686 335 686 335 686 255 c 0,65,66
 686 191 686 191 666 133.5 c 128,-1,67
 646 76 646 76 612 35 c 1,68,-1
 883 35 l 1,69,-1
 883 513 l 1,70,-1
 927 513 l 1,71,-1
 927 0 l 1,72,-1
 551 0 l 1,73,-1
 551 35 l 1,74,75
 589 73 589 73 614 129 c 128,-1,76
 639 185 639 185 639 255 c 0,12,13
EndSplineSet
EndChar

StartChar: X
Encoding: 88 88 31
Width: 714
Flags: W
AnchorPoint: "Anchor-1" 390 0 basechar 0
LayerCount: 2
Fore
SplineSet
410 177 m 4,0,1
 439 177 439 177 462.5 189.5 c 132,-1,2
 486 202 486 202 500 224.5 c 132,-1,3
 514 247 514 247 514 276 c 260,4,5
 514 305 514 305 499.5 327.5 c 132,-1,6
 485 350 485 350 461.5 363 c 132,-1,7
 438 376 438 376 410 376 c 4,8,9
 383 376 383 376 359.5 363 c 132,-1,10
 336 350 336 350 321 327.5 c 132,-1,11
 306 305 306 305 306 276 c 260,12,13
 306 247 306 247 320.5 224.5 c 132,-1,14
 335 202 335 202 358.5 189.5 c 132,-1,15
 382 177 382 177 410 177 c 4,0,1
410 214 m 260,16,17
 383 214 383 214 365.5 231.5 c 132,-1,18
 348 249 348 249 348 276 c 260,19,20
 348 303 348 303 365.5 320.5 c 132,-1,21
 383 338 383 338 410 338 c 260,22,23
 437 338 437 338 454.5 320.5 c 132,-1,24
 472 303 472 303 472 276 c 260,25,26
 472 249 472 249 454.5 231.5 c 132,-1,27
 437 214 437 214 410 214 c 260,16,17
699 35 m 1,28,-1
 144 35 l 1,29,-1
 144 518 l 1,30,-1
 100 513 l 1,31,-1
 100 0 l 1,32,-1
 704 0 l 1,33,-1
 699 35 l 1,28,-1
EndSplineSet
EndChar

StartChar: Y
Encoding: 89 89 32
Width: 886
Flags: W
AnchorPoint: "Anchor-1" 417 0 basechar 0
AnchorPoint: "Anchor-0" 936 0 basechar 0
LayerCount: 2
Fore
SplineSet
786 513 m 1,0,-1
 786 0 l 1,1,-1
 379 0 l 1,2,-1
 379 513 l 1,3,-1
 423 513 l 1,4,-1
 423 35 l 1,5,-1
 742 35 l 1,6,-1
 742 513 l 1,7,-1
 786 513 l 1,0,-1
90 513 m 1,8,-1
 134 518 l 1,9,-1
 134 175 l 2,10,11
 134 90 134 90 167.5 57 c 128,-1,12
 201 24 201 24 252 24 c 0,13,14
 314 24 314 24 346.5 72 c 128,-1,15
 379 120 379 120 379 193 c 1,16,-1
 414 193 l 1,17,18
 414 132 414 132 395 84 c 128,-1,19
 376 36 376 36 340 9 c 128,-1,20
 304 -18 304 -18 252 -18 c 0,21,22
 205 -18 205 -18 168.5 1.5 c 128,-1,23
 132 21 132 21 111 64 c 128,-1,24
 90 107 90 107 90 176 c 2,25,-1
 90 513 l 1,8,-1
EndSplineSet
EndChar

StartChar: Z
Encoding: 90 90 33
Width: 841
Flags: W
AnchorPoint: "Anchor-1" 430 0 basechar 0
AnchorPoint: "Anchor-0" 880 0 basechar 0
LayerCount: 2
Fore
SplineSet
599.5 318 m 4,0,1
 615.5 318 615.5 318 627 329 c 132,-1,2
 638.5 340 638.5 340 638.5 356 c 260,3,4
 638.5 372 638.5 372 627 383 c 132,-1,5
 615.5 394 615.5 394 599.5 394 c 4,6,7
 582.5 394 582.5 394 572 383 c 132,-1,8
 561.5 372 561.5 372 561.5 356 c 260,9,10
 561.5 340 561.5 340 572 329 c 132,-1,11
 582.5 318 582.5 318 599.5 318 c 4,0,1
463 274 m 1,12,-1
 419 274 l 1,13,-1
 419 343 l 2,14,15
 419 408 419 408 377.5 448.5 c 128,-1,16
 336 489 336 489 271 489 c 0,17,18
 219 489 219 489 183 470 c 128,-1,19
 147 451 147 451 129 417.5 c 128,-1,20
 111 384 111 384 111 339 c 0,21,22
 111 314 111 314 128 297 c 128,-1,23
 145 280 145 280 170 280 c 0,24,25
 196 280 196 280 213.5 296.5 c 128,-1,26
 231 313 231 313 232 338 c 0,27,28
 232 365 232 365 215 383 c 128,-1,29
 198 401 198 401 172 401 c 0,30,31
 145 401 145 401 127.5 383 c 128,-1,32
 110 365 110 365 111 339 c 1,33,-1
 81 338 l 1,34,35
 80 382 80 382 106.5 409.5 c 128,-1,36
 133 437 133 437 173 437 c 0,37,38
 220 437 220 437 248.5 409.5 c 128,-1,39
 277 382 277 382 275 338 c 0,40,41
 274 298 274 298 244.5 271 c 128,-1,42
 215 244 215 244 170 245 c 256,43,44
 125 246 125 246 96 273 c 128,-1,45
 67 300 67 300 67 342 c 0,46,47
 67 397 67 397 93.5 439.5 c 128,-1,48
 120 482 120 482 166 506.5 c 128,-1,49
 212 531 212 531 271 531 c 0,50,51
 317 531 317 531 351.5 515 c 128,-1,52
 386 499 386 499 411.5 472.5 c 128,-1,53
 437 446 437 446 454 412 c 1,54,-1
 454 368 l 1,55,-1
 426 368 l 1,56,-1
 426 412 l 1,57,58
 452 462 452 462 495 496.5 c 128,-1,59
 538 531 538 531 605 531 c 0,60,61
 656 531 656 531 695.5 508.5 c 128,-1,62
 735 486 735 486 758 447 c 128,-1,63
 781 408 781 408 781 358 c 0,64,65
 781 296 781 296 748.5 255 c 128,-1,66
 716 214 716 214 656 190.5 c 128,-1,67
 596 167 596 167 511 156 c 2,68,-1
 330 131 l 2,69,70
 270 123 270 123 219.5 103 c 128,-1,71
 169 83 169 83 139 50 c 128,-1,72
 109 17 109 17 108 -32 c 0,73,74
 108 -90 108 -90 141 -126.5 c 128,-1,75
 174 -163 174 -163 231 -163 c 0,76,77
 271 -163 271 -163 309.5 -139.5 c 128,-1,78
 348 -116 348 -116 387 -81.5 c 128,-1,79
 426 -47 426 -47 466 -12 c 128,-1,80
 506 23 506 23 548 46.5 c 128,-1,81
 590 70 590 70 635 70 c 0,82,83
 678 70 678 70 710.5 53 c 128,-1,84
 743 36 743 36 762 5.5 c 128,-1,85
 781 -25 781 -25 781 -64 c 0,86,87
 781 -104 781 -104 759.5 -135 c 128,-1,88
 738 -166 738 -166 699.5 -184 c 128,-1,89
 661 -202 661 -202 609 -202 c 2,90,-1
 488 -202 l 1,91,-1
 488 -167 l 1,92,-1
 609 -167 l 2,93,94
 667 -167 667 -167 700 -137.5 c 128,-1,95
 733 -108 733 -108 733 -64 c 0,96,97
 733 -23 733 -23 706 2.5 c 128,-1,98
 679 28 679 28 635 28 c 0,99,100
 603 28 603 28 571.5 11 c 128,-1,101
 540 -6 540 -6 509 -32.5 c 128,-1,102
 478 -59 478 -59 445.5 -88.5 c 128,-1,103
 413 -118 413 -118 379 -144.5 c 128,-1,104
 345 -171 345 -171 308.5 -188 c 128,-1,105
 272 -205 272 -205 231 -205 c 0,106,107
 180 -205 180 -205 141.5 -182.5 c 128,-1,108
 103 -160 103 -160 81.5 -121 c 128,-1,109
 60 -82 60 -82 60 -32 c 0,110,111
 60 29 60 29 93 69.5 c 128,-1,112
 126 110 126 110 186.5 134.5 c 128,-1,113
 247 159 247 159 330 170 c 2,114,-1
 511 194 l 2,115,116
 572 202 572 202 622 222 c 128,-1,117
 672 242 672 242 702.5 276 c 128,-1,118
 733 310 733 310 733 358 c 0,119,120
 733 417 733 417 698 453 c 128,-1,121
 663 489 663 489 605 489 c 0,122,123
 564 489 564 489 532 470.5 c 128,-1,124
 500 452 500 452 481.5 419 c 128,-1,125
 463 386 463 386 463 343 c 2,126,-1
 463 274 l 1,12,-1
EndSplineSet
EndChar

StartChar: a
Encoding: 97 97 34
Width: 649
Flags: W
AnchorPoint: "Anchor-1" 316 0 basechar 0
LayerCount: 2
Fore
SplineSet
438 478 m 1,0,-1
 438 0 l 1,1,-1
 394 0 l 1,2,-1
 394 478 l 1,3,-1
 144 478 l 1,4,-1
 144 0 l 1,5,-1
 100 0 l 1,6,-1
 100 513 l 1,7,-1
 634 513 l 1,8,-1
 639 478 l 1,9,-1
 438 478 l 1,0,-1
EndSplineSet
EndChar

StartChar: b
Encoding: 98 98 35
Width: 512
Flags: W
LayerCount: 2
Fore
SplineSet
108 0 m 1,0,-1
 129 59 l 1,1,-1
 129 706 l 1,2,-1
 80 696 l 1,3,-1
 80 0 l 1,4,-1
 108 0 l 1,0,-1
124 386 m 1,5,6
 150 415 150 415 181.5 436 c 128,-1,7
 213 457 213 457 263 457 c 0,8,9
 318 457 318 457 352.5 427.5 c 128,-1,10
 387 398 387 398 404 348.5 c 128,-1,11
 421 299 421 299 421 239 c 0,12,13
 421 183 421 183 402.5 134.5 c 128,-1,14
 384 86 384 86 348 57 c 128,-1,15
 312 28 312 28 258 28 c 0,16,17
 212 28 212 28 178 48 c 128,-1,18
 144 68 144 68 119 92 c 1,19,-1
 99 59 l 1,20,21
 113 45 113 45 138 28 c 128,-1,22
 163 11 163 11 194 -1 c 128,-1,23
 225 -13 225 -13 256 -13 c 0,24,25
 328 -13 328 -13 376 20 c 128,-1,26
 424 53 424 53 448 110.5 c 128,-1,27
 472 168 472 168 472 240 c 0,28,29
 472 316 472 316 449.5 374 c 128,-1,30
 427 432 427 432 381 465 c 128,-1,31
 335 498 335 498 263 498 c 0,32,33
 230 498 230 498 201.5 488.5 c 128,-1,34
 173 479 173 479 148.5 461.5 c 128,-1,35
 124 444 124 444 104 420 c 1,36,-1
 124 386 l 1,5,6
EndSplineSet
EndChar

StartChar: c
Encoding: 99 99 36
Width: 667
Flags: W
AnchorPoint: "Anchor-1" 387 0 basechar 0
AnchorPoint: "Anchor-0" 675 0 basechar 0
LayerCount: 2
Fore
SplineSet
453 205 m 2,0,1
 453 132 453 132 425 82 c 128,-1,2
 397 32 397 32 348 7 c 128,-1,3
 299 -18 299 -18 236 -18 c 0,4,5
 180 -18 180 -18 138 2 c 128,-1,6
 96 22 96 22 73 57 c 128,-1,7
 50 92 50 92 50 136 c 0,8,9
 50 201 50 201 96 244 c 128,-1,10
 142 287 142 287 225 287 c 2,11,-1
 622 287 l 1,12,-1
 627 252 l 1,13,-1
 226 252 l 2,14,15
 164 252 164 252 131 219 c 128,-1,16
 98 186 98 186 98 135 c 0,17,18
 98 85 98 85 134.5 54.5 c 128,-1,19
 171 24 171 24 236 24 c 0,20,21
 286 24 286 24 325 44 c 128,-1,22
 364 64 364 64 386.5 104.5 c 128,-1,23
 409 145 409 145 409 205 c 2,24,-1
 409 478 l 1,25,-1
 211 478 l 1,26,-1
 211 263 l 1,27,-1
 167 263 l 1,28,-1
 167 513 l 1,29,-1
 622 513 l 1,30,-1
 627 478 l 1,31,-1
 453 478 l 1,32,-1
 453 205 l 2,0,1
EndSplineSet
EndChar

StartChar: d
Encoding: 100 100 37
Width: 512
Flags: W
LayerCount: 2
Fore
SplineSet
383 53 m 1,0,-1
 405 0 l 1,1,-1
 432 0 l 1,2,-1
 432 705 l 1,3,-1
 383 696 l 1,4,-1
 383 53 l 1,0,-1
388 99 m 1,5,6
 362 70 362 70 330.5 49 c 128,-1,7
 299 28 299 28 249 28 c 0,8,9
 195 28 195 28 160 57.5 c 128,-1,10
 125 87 125 87 108 137 c 128,-1,11
 91 187 91 187 91 246 c 0,12,13
 91 303 91 303 109.5 351 c 128,-1,14
 128 399 128 399 164.5 428 c 128,-1,15
 201 457 201 457 254 457 c 0,16,17
 300 457 300 457 334 437 c 128,-1,18
 368 417 368 417 393 393 c 1,19,-1
 413 426 l 1,20,21
 400 441 400 441 375 457.5 c 128,-1,22
 350 474 350 474 319 486 c 128,-1,23
 288 498 288 498 256 498 c 0,24,25
 185 498 185 498 136.5 465 c 128,-1,26
 88 432 88 432 64 375 c 128,-1,27
 40 318 40 318 40 245 c 0,28,29
 40 170 40 170 62.5 111.5 c 128,-1,30
 85 53 85 53 131.5 20 c 128,-1,31
 178 -13 178 -13 249 -13 c 0,32,33
 282 -13 282 -13 310.5 -3.5 c 128,-1,34
 339 6 339 6 363.5 24 c 128,-1,35
 388 42 388 42 408 65 c 1,36,-1
 388 99 l 1,5,6
EndSplineSet
EndChar

StartChar: e
Encoding: 101 101 38
Width: 480
Flags: W
LayerCount: 2
Fore
SplineSet
440 242 m 1,0,-1
 440 250 l 2,1,2
 440 321 440 321 415.5 377 c 128,-1,3
 391 433 391 433 349 465.5 c 128,-1,4
 307 498 307 498 252 498 c 0,5,6
 181 498 181 498 133.5 465 c 128,-1,7
 86 432 86 432 63 375 c 128,-1,8
 40 318 40 318 40 245 c 0,9,10
 40 170 40 170 64.5 111.5 c 128,-1,11
 89 53 89 53 140 20 c 128,-1,12
 191 -13 191 -13 270 -13 c 0,13,14
 290 -13 290 -13 318.5 -8.5 c 128,-1,15
 347 -4 347 -4 376 4.5 c 128,-1,16
 405 13 405 13 425 25 c 1,17,-1
 405 62 l 1,18,19
 380 49 380 49 347.5 38.5 c 128,-1,20
 315 28 315 28 262 28 c 0,21,22
 202 28 202 28 164.5 57.5 c 128,-1,23
 127 87 127 87 109.5 135.5 c 128,-1,24
 92 184 92 184 91 242 c 1,25,-1
 440 242 l 1,0,-1
93 279 m 1,26,27
 98 327 98 327 115.5 367.5 c 128,-1,28
 133 408 133 408 165 432.5 c 128,-1,29
 197 457 197 457 245 457 c 256,30,31
 293 457 293 457 323 432.5 c 128,-1,32
 353 408 353 408 368.5 367.5 c 128,-1,33
 384 327 384 327 388 279 c 1,34,-1
 93 279 l 1,26,27
EndSplineSet
EndChar

StartChar: f
Encoding: 102 102 39
Width: 264
Flags: W
LayerCount: 2
Fore
SplineSet
20 433 m 1,0,-1
 93 433 l 1,1,-1
 93 0 l 1,2,-1
 142 0 l 1,3,-1
 142 433 l 1,4,-1
 251 433 l 1,5,-1
 230 470 l 1,6,-1
 142 470 l 1,7,-1
 142 579 l 2,8,9
 142 615 142 615 157.5 638 c 128,-1,10
 173 661 173 661 211 661 c 0,11,12
 221 661 221 661 233.5 658 c 128,-1,13
 246 655 246 655 252 652 c 1,14,-1
 264 689 l 1,15,16
 258 692 258 692 247.5 695 c 128,-1,17
 237 698 237 698 224.5 700 c 128,-1,18
 212 702 212 702 198 702 c 0,19,20
 162 702 162 702 138.5 685 c 128,-1,21
 115 668 115 668 104 636.5 c 128,-1,22
 93 605 93 605 93 563 c 2,23,-1
 93 470 l 1,24,-1
 20 470 l 1,25,-1
 20 433 l 1,0,-1
EndSplineSet
EndChar

StartChar: g
Encoding: 103 103 40
Width: 508
Flags: W
LayerCount: 2
Fore
SplineSet
432 485 m 1,0,-1
 405 485 l 1,1,-1
 383 412 l 1,2,-1
 383 -72 l 2,3,4
 383 -132 383 -132 341 -160.5 c 128,-1,5
 299 -189 299 -189 238 -189 c 0,6,7
 192 -189 192 -189 160 -179 c 128,-1,8
 128 -169 128 -169 94 -154 c 1,9,-1
 75 -189 l 1,10,11
 89 -198 89 -198 110.5 -205.5 c 128,-1,12
 132 -213 132 -213 156.5 -218.5 c 128,-1,13
 181 -224 181 -224 203 -227 c 128,-1,14
 225 -230 225 -230 240 -230 c 0,15,16
 304 -230 304 -230 346.5 -208 c 128,-1,17
 389 -186 389 -186 410.5 -148 c 128,-1,18
 432 -110 432 -110 432 -62 c 2,19,-1
 432 485 l 1,0,-1
388 99 m 1,20,21
 362 70 362 70 330.5 49 c 128,-1,22
 299 28 299 28 249 28 c 0,23,24
 195 28 195 28 160 57.5 c 128,-1,25
 125 87 125 87 108 137 c 128,-1,26
 91 187 91 187 91 246 c 0,27,28
 91 303 91 303 109.5 351 c 128,-1,29
 128 399 128 399 164.5 428 c 128,-1,30
 201 457 201 457 254 457 c 0,31,32
 300 457 300 457 334 437 c 128,-1,33
 368 417 368 417 393 393 c 1,34,-1
 413 426 l 1,35,36
 400 441 400 441 375 457.5 c 128,-1,37
 350 474 350 474 319 486 c 128,-1,38
 288 498 288 498 256 498 c 0,39,40
 185 498 185 498 136.5 465 c 128,-1,41
 88 432 88 432 64 375 c 128,-1,42
 40 318 40 318 40 245 c 0,43,44
 40 170 40 170 62.5 111.5 c 128,-1,45
 85 53 85 53 131.5 20 c 128,-1,46
 178 -13 178 -13 249 -13 c 0,47,48
 282 -13 282 -13 310.5 -3.5 c 128,-1,49
 339 6 339 6 363.5 24 c 128,-1,50
 388 42 388 42 408 65 c 1,51,-1
 388 99 l 1,20,21
EndSplineSet
EndChar

StartChar: h
Encoding: 104 104 41
Width: 510
Flags: W
LayerCount: 2
Fore
SplineSet
129 359 m 1,0,1
 157 388 157 388 186.5 410 c 128,-1,2
 216 432 216 432 245.5 444.5 c 128,-1,3
 275 457 275 457 304 457 c 0,4,5
 359 457 359 457 377 422 c 128,-1,6
 395 387 395 387 395 337 c 2,7,-1
 395 0 l 1,8,-1
 444 0 l 1,9,-1
 444 337 l 2,10,11
 444 384 444 384 429.5 420 c 128,-1,12
 415 456 415 456 383.5 477 c 128,-1,13
 352 498 352 498 300 498 c 0,14,15
 270 498 270 498 238 485.5 c 128,-1,16
 206 473 206 473 177.5 453 c 128,-1,17
 149 433 149 433 128 409 c 1,18,-1
 129 359 l 1,0,1
129 0 m 1,19,-1
 129 706 l 1,20,-1
 80 696 l 1,21,-1
 80 0 l 1,22,-1
 129 0 l 1,19,-1
EndSplineSet
EndChar

StartChar: i
Encoding: 105 105 42
Width: 189
Flags: W
LayerCount: 2
Fore
SplineSet
119 0 m 1,0,-1
 119 485 l 1,1,-1
 70 485 l 1,2,-1
 70 0 l 1,3,-1
 119 0 l 1,0,-1
94 600 m 256,4,5
 111 600 111 600 122 611 c 128,-1,6
 133 622 133 622 133 638 c 256,7,8
 133 654 133 654 121.5 665 c 128,-1,9
 110 676 110 676 94 676 c 0,10,11
 77 676 77 676 66.5 665 c 128,-1,12
 56 654 56 654 56 638 c 256,13,14
 56 622 56 622 66.5 611 c 128,-1,15
 77 600 77 600 94 600 c 256,4,5
EndSplineSet
EndChar

StartChar: j
Encoding: 106 106 43
Width: 206
Flags: W
LayerCount: 2
Fore
SplineSet
101 600 m 0,0,1
 90 600 90 600 81 605 c 128,-1,2
 72 610 72 610 67.5 619 c 128,-1,3
 63 628 63 628 63 638 c 0,4,5
 63 654 63 654 73.5 665 c 128,-1,6
 84 676 84 676 101 676 c 0,7,8
 117 676 117 676 128.5 665 c 128,-1,9
 140 654 140 654 140 638 c 256,10,11
 140 622 140 622 129 611 c 128,-1,12
 118 600 118 600 101 600 c 0,0,1
126 485 m 1,13,-1
 126 -62 l 2,14,15
 126 -104 126 -104 119 -133.5 c 128,-1,16
 112 -163 112 -163 89 -183 c 128,-1,17
 66 -203 66 -203 18 -219 c 1,18,-1
 0 -183 l 1,19,20
 34 -170 34 -170 50 -155 c 128,-1,21
 66 -140 66 -140 71.5 -116 c 128,-1,22
 77 -92 77 -92 77 -54 c 2,23,-1
 77 485 l 1,24,-1
 126 485 l 1,13,-1
EndSplineSet
EndChar

StartChar: k
Encoding: 107 107 44
Width: 449
Flags: W
LayerCount: 2
Fore
SplineSet
129 0 m 1,0,-1
 129 206 l 1,1,-1
 203 280 l 1,2,-1
 390 0 l 1,3,-1
 449 0 l 1,4,-1
 236 313 l 1,5,-1
 391 467 l 1,6,-1
 354 498 l 1,7,-1
 129 264 l 1,8,-1
 129 706 l 1,9,-1
 80 696 l 1,10,-1
 80 0 l 1,11,-1
 129 0 l 1,0,-1
EndSplineSet
EndChar

StartChar: l
Encoding: 108 108 45
Width: 209
Flags: W
LayerCount: 2
Fore
SplineSet
129 0 m 1,0,-1
 129 706 l 1,1,-1
 80 696 l 1,2,-1
 80 0 l 1,3,-1
 129 0 l 1,0,-1
EndSplineSet
EndChar

StartChar: m
Encoding: 109 109 46
Width: 776
Flags: W
LayerCount: 2
Fore
SplineSet
119 0 m 1,0,-1
 119 359 l 1,1,2
 147 388 147 388 176 410 c 128,-1,3
 205 432 205 432 234 444.5 c 128,-1,4
 263 457 263 457 289 457 c 0,5,6
 323 457 323 457 340.5 441 c 128,-1,7
 358 425 358 425 364 398 c 128,-1,8
 370 371 370 371 370 337 c 2,9,-1
 370 0 l 1,10,-1
 419 0 l 1,11,-1
 419 337 l 2,12,13
 419 384 419 384 406 420 c 128,-1,14
 393 456 393 456 364 477 c 128,-1,15
 335 498 335 498 285 498 c 0,16,17
 260 498 260 498 228.5 485.5 c 128,-1,18
 197 473 197 473 168 453 c 128,-1,19
 139 433 139 433 118 409 c 1,20,-1
 108 485 l 1,21,-1
 70 485 l 1,22,-1
 70 0 l 1,23,-1
 119 0 l 1,0,-1
410 359 m 1,24,25
 438 388 438 388 467 410 c 128,-1,26
 496 432 496 432 525 444.5 c 128,-1,27
 554 457 554 457 580 457 c 0,28,29
 614 457 614 457 631.5 441 c 128,-1,30
 649 425 649 425 655 398 c 128,-1,31
 661 371 661 371 661 337 c 2,32,-1
 661 0 l 1,33,-1
 710 0 l 1,34,-1
 710 337 l 2,35,36
 710 384 710 384 697 420 c 128,-1,37
 684 456 684 456 655 477 c 128,-1,38
 626 498 626 498 576 498 c 0,39,40
 551 498 551 498 519.5 485.5 c 128,-1,41
 488 473 488 473 459 453 c 128,-1,42
 430 433 430 433 409 409 c 1,43,-1
 410 359 l 1,24,25
EndSplineSet
EndChar

StartChar: n
Encoding: 110 110 47
Width: 500
Flags: W
LayerCount: 2
Fore
SplineSet
119 0 m 1,0,-1
 119 359 l 1,1,2
 147 388 147 388 176.5 410 c 128,-1,3
 206 432 206 432 235.5 444.5 c 128,-1,4
 265 457 265 457 294 457 c 0,5,6
 349 457 349 457 367 422 c 128,-1,7
 385 387 385 387 385 337 c 2,8,-1
 385 0 l 1,9,-1
 434 0 l 1,10,-1
 434 337 l 2,11,12
 434 384 434 384 419.5 420 c 128,-1,13
 405 456 405 456 373.5 477 c 128,-1,14
 342 498 342 498 290 498 c 0,15,16
 260 498 260 498 228 485.5 c 128,-1,17
 196 473 196 473 167.5 453 c 128,-1,18
 139 433 139 433 118 409 c 1,19,-1
 108 485 l 1,20,-1
 70 485 l 1,21,-1
 70 0 l 1,22,-1
 119 0 l 1,0,-1
EndSplineSet
EndChar

StartChar: o
Encoding: 111 111 48
Width: 523
Flags: W
LayerCount: 2
Fore
SplineSet
259 -13 m 0,0,1
 187 -12 187 -12 138.5 21 c 128,-1,2
 90 54 90 54 65 112 c 128,-1,3
 40 170 40 170 40 245 c 0,4,5
 40 317 40 317 66.5 374 c 128,-1,6
 93 431 93 431 143.5 464.5 c 128,-1,7
 194 498 194 498 265 498 c 0,8,9
 337 498 337 498 385.5 464.5 c 128,-1,10
 434 431 434 431 458.5 373 c 128,-1,11
 483 315 483 315 483 240 c 0,12,13
 483 168 483 168 456.5 111 c 128,-1,14
 430 54 430 54 380 21 c 128,-1,15
 330 -12 330 -12 259 -13 c 0,0,1
259 28 m 256,16,17
 313 28 313 28 351.5 57 c 128,-1,18
 390 86 390 86 411 134.5 c 128,-1,19
 432 183 432 183 432 239 c 0,20,21
 432 299 432 299 412.5 348.5 c 128,-1,22
 393 398 393 398 356 427.5 c 128,-1,23
 319 457 319 457 264 457 c 0,24,25
 211 457 211 457 172 428 c 128,-1,26
 133 399 133 399 112 351 c 128,-1,27
 91 303 91 303 91 246 c 0,28,29
 91 187 91 187 110.5 137 c 128,-1,30
 130 87 130 87 167.5 57.5 c 128,-1,31
 205 28 205 28 259 28 c 256,16,17
EndSplineSet
EndChar

StartChar: p
Encoding: 112 112 49
Width: 508
Flags: W
LayerCount: 2
Fore
SplineSet
125 -208 m 1,0,-1
 125 418 l 1,1,-1
 104 485 l 1,2,-1
 76 485 l 1,3,-1
 76 -219 l 1,4,-1
 125 -208 l 1,0,-1
120 386 m 1,5,6
 146 415 146 415 177.5 436 c 128,-1,7
 209 457 209 457 259 457 c 0,8,9
 314 457 314 457 348.5 427.5 c 128,-1,10
 383 398 383 398 400 348.5 c 128,-1,11
 417 299 417 299 417 239 c 0,12,13
 417 183 417 183 398.5 134.5 c 128,-1,14
 380 86 380 86 344 57 c 128,-1,15
 308 28 308 28 254 28 c 0,16,17
 208 28 208 28 174 48 c 128,-1,18
 140 68 140 68 115 92 c 1,19,-1
 95 59 l 1,20,21
 109 45 109 45 134 28 c 128,-1,22
 159 11 159 11 190 -1 c 128,-1,23
 221 -13 221 -13 252 -13 c 0,24,25
 324 -13 324 -13 372 20 c 128,-1,26
 420 53 420 53 444 110.5 c 128,-1,27
 468 168 468 168 468 240 c 0,28,29
 468 316 468 316 445.5 374 c 128,-1,30
 423 432 423 432 377 465 c 128,-1,31
 331 498 331 498 259 498 c 0,32,33
 226 498 226 498 197.5 488.5 c 128,-1,34
 169 479 169 479 144.5 461.5 c 128,-1,35
 120 444 120 444 100 420 c 1,36,-1
 120 386 l 1,5,6
EndSplineSet
EndChar

StartChar: q
Encoding: 113 113 50
Width: 508
Flags: W
LayerCount: 2
Fore
SplineSet
405 485 m 1,0,-1
 383 419 l 1,1,-1
 383 -219 l 1,2,-1
 432 -208 l 1,3,-1
 432 485 l 1,4,-1
 405 485 l 1,0,-1
388 99 m 1,5,6
 362 70 362 70 330.5 49 c 128,-1,7
 299 28 299 28 249 28 c 0,8,9
 195 28 195 28 160 57.5 c 128,-1,10
 125 87 125 87 108 137 c 128,-1,11
 91 187 91 187 91 246 c 0,12,13
 91 303 91 303 109.5 351 c 128,-1,14
 128 399 128 399 164.5 428 c 128,-1,15
 201 457 201 457 254 457 c 0,16,17
 300 457 300 457 334 437 c 128,-1,18
 368 417 368 417 393 393 c 1,19,-1
 413 426 l 1,20,21
 400 441 400 441 375 457.5 c 128,-1,22
 350 474 350 474 319 486 c 128,-1,23
 288 498 288 498 256 498 c 0,24,25
 185 498 185 498 136.5 465 c 128,-1,26
 88 432 88 432 64 375 c 128,-1,27
 40 318 40 318 40 245 c 0,28,29
 40 170 40 170 62.5 111.5 c 128,-1,30
 85 53 85 53 131.5 20 c 128,-1,31
 178 -13 178 -13 249 -13 c 0,32,33
 282 -13 282 -13 310.5 -3.5 c 128,-1,34
 339 6 339 6 363.5 24 c 128,-1,35
 388 42 388 42 408 65 c 1,36,-1
 388 99 l 1,5,6
EndSplineSet
EndChar

StartChar: r
Encoding: 114 114 51
Width: 302
Flags: W
LayerCount: 2
Fore
SplineSet
119 0 m 1,0,-1
 119 357 l 1,1,2
 138 378 138 378 166.5 398.5 c 128,-1,3
 195 419 195 419 228.5 433 c 128,-1,4
 262 447 262 447 292 447 c 1,5,-1
 275 485 l 1,6,7
 250 485 250 485 219.5 472 c 128,-1,8
 189 459 189 459 161.5 441 c 128,-1,9
 134 423 134 423 116 408 c 1,10,-1
 98 485 l 1,11,-1
 70 485 l 1,12,-1
 70 0 l 1,13,-1
 119 0 l 1,0,-1
EndSplineSet
EndChar

StartChar: s
Encoding: 115 115 52
Width: 406
Flags: W
LayerCount: 2
Fore
SplineSet
42 25 m 1,0,1
 61 13 61 13 87.5 4.5 c 128,-1,2
 114 -4 114 -4 141.5 -8.5 c 128,-1,3
 169 -13 169 -13 189 -13 c 0,4,5
 282 -13 282 -13 324 23 c 128,-1,6
 366 59 366 59 366 123 c 0,7,8
 366 157 366 157 345.5 183.5 c 128,-1,9
 325 210 325 210 292 230 c 128,-1,10
 259 250 259 250 219 266 c 0,11,12
 169 286 169 286 133 310 c 128,-1,13
 97 334 97 334 97 368 c 0,14,15
 97 403 97 403 128 430 c 128,-1,16
 159 457 159 457 210 457 c 0,17,18
 255 457 255 457 284.5 445 c 128,-1,19
 314 433 314 433 334 423 c 1,20,-1
 354 458 l 1,21,22
 338 470 338 470 313.5 479 c 128,-1,23
 289 488 289 488 263.5 493 c 128,-1,24
 238 498 238 498 217 498 c 0,25,26
 135 498 135 498 92.5 459.5 c 128,-1,27
 50 421 50 421 50 364 c 0,28,29
 50 333 50 333 69.5 307.5 c 128,-1,30
 89 282 89 282 121.5 263 c 128,-1,31
 154 244 154 244 191 229 c 0,32,33
 227 215 227 215 256 198.5 c 128,-1,34
 285 182 285 182 302 162.5 c 128,-1,35
 319 143 319 143 319 119 c 0,36,37
 319 92 319 92 303.5 71.5 c 128,-1,38
 288 51 288 51 259.5 39.5 c 128,-1,39
 231 28 231 28 191 28 c 0,40,41
 166 28 166 28 142.5 34 c 128,-1,42
 119 40 119 40 98.5 49 c 128,-1,43
 78 58 78 58 60 66 c 1,44,-1
 42 25 l 1,0,1
EndSplineSet
EndChar

StartChar: t
Encoding: 116 116 53
Width: 714
Flags: W
AnchorPoint: "Anchor-1" 390 0 basechar 0
LayerCount: 2
Fore
SplineSet
699 35 m 1,0,-1
 144 35 l 1,1,-1
 144 518 l 1,2,-1
 100 513 l 1,3,-1
 100 0 l 1,4,-1
 704 0 l 1,5,-1
 699 35 l 1,0,-1
EndSplineSet
EndChar

StartChar: u
Encoding: 117 117 54
Width: 500
Flags: W
LayerCount: 2
Fore
SplineSet
381 485 m 1,0,-1
 381 126 l 1,1,2
 353 98 353 98 323.5 75.5 c 128,-1,3
 294 53 294 53 264.5 40.5 c 128,-1,4
 235 28 235 28 206 28 c 0,5,6
 151 28 151 28 133 63 c 128,-1,7
 115 98 115 98 115 148 c 2,8,-1
 115 485 l 1,9,-1
 66 485 l 1,10,-1
 66 148 l 2,11,12
 66 102 66 102 80.5 65.5 c 128,-1,13
 95 29 95 29 126.5 8 c 128,-1,14
 158 -13 158 -13 210 -13 c 0,15,16
 240 -13 240 -13 272 -1 c 128,-1,17
 304 11 304 11 333 31.5 c 128,-1,18
 362 52 362 52 382 76 c 1,19,-1
 392 0 l 1,20,-1
 430 0 l 1,21,-1
 430 485 l 1,22,-1
 381 485 l 1,0,-1
EndSplineSet
EndChar

StartChar: v
Encoding: 118 118 55
Width: 430
Flags: W
LayerCount: 2
Fore
SplineSet
240 0 m 1,0,-1
 420 485 l 1,1,-1
 370 485 l 1,2,-1
 216 56 l 1,3,-1
 56 492 l 1,4,-1
 10 474 l 1,5,-1
 193 0 l 1,6,-1
 240 0 l 1,0,-1
EndSplineSet
EndChar

StartChar: w
Encoding: 119 119 56
Width: 642
Flags: W
LayerCount: 2
Fore
SplineSet
488 0 m 1,0,-1
 632 485 l 1,1,-1
 582 485 l 1,2,-1
 466 64 l 1,3,-1
 340 485 l 1,4,-1
 298 485 l 1,5,-1
 175 64 l 1,6,-1
 56 491 l 1,7,-1
 10 473 l 1,8,-1
 153 0 l 1,9,-1
 200 0 l 1,10,-1
 315 409 l 1,11,-1
 441 0 l 1,12,-1
 488 0 l 1,0,-1
EndSplineSet
EndChar

StartChar: x
Encoding: 120 120 57
Width: 405
Flags: W
LayerCount: 2
Fore
SplineSet
66 0 m 1,0,-1
 196 207 l 1,1,-1
 327 0 l 1,2,-1
 382 0 l 1,3,-1
 235 232 l 1,4,-1
 395 485 l 1,5,-1
 341 485 l 1,6,-1
 209 267 l 1,7,-1
 73 494 l 1,8,-1
 30 474 l 1,9,-1
 171 244 l 1,10,-1
 10 0 l 1,11,-1
 66 0 l 1,0,-1
EndSplineSet
EndChar

StartChar: y
Encoding: 121 121 58
Width: 430
Flags: W
LayerCount: 2
Fore
SplineSet
162 -98 m 2,0,1
 154 -120 154 -120 140.5 -135.5 c 128,-1,2
 127 -151 127 -151 108 -161.5 c 128,-1,3
 89 -172 89 -172 63 -181 c 1,4,-1
 68 -219 l 1,5,6
 100 -212 100 -212 126.5 -197.5 c 128,-1,7
 153 -183 153 -183 172 -161 c 128,-1,8
 191 -139 191 -139 201 -112 c 2,9,-1
 420 485 l 1,10,-1
 370 485 l 1,11,-1
 216 56 l 1,12,-1
 56 491 l 1,13,-1
 10 473 l 1,14,-1
 193 0 l 1,15,-1
 162 -98 l 2,0,1
EndSplineSet
EndChar

StartChar: z
Encoding: 122 122 59
Width: 841
Flags: W
AnchorPoint: "Anchor-1" 430 0 basechar 0
AnchorPoint: "Anchor-0" 880 0 basechar 0
LayerCount: 2
Fore
SplineSet
463 274 m 1,0,-1
 419 274 l 1,1,-1
 419 343 l 2,2,3
 419 408 419 408 377.5 448.5 c 128,-1,4
 336 489 336 489 271 489 c 0,5,6
 219 489 219 489 183 470 c 128,-1,7
 147 451 147 451 129 417.5 c 128,-1,8
 111 384 111 384 111 339 c 0,9,10
 111 314 111 314 128 297 c 128,-1,11
 145 280 145 280 170 280 c 0,12,13
 196 280 196 280 213.5 296.5 c 128,-1,14
 231 313 231 313 232 338 c 0,15,16
 232 365 232 365 215 383 c 128,-1,17
 198 401 198 401 172 401 c 0,18,19
 145 401 145 401 127.5 383 c 128,-1,20
 110 365 110 365 111 339 c 1,21,-1
 81 338 l 1,22,23
 80 382 80 382 106.5 409.5 c 128,-1,24
 133 437 133 437 173 437 c 0,25,26
 220 437 220 437 248.5 409.5 c 128,-1,27
 277 382 277 382 275 338 c 0,28,29
 274 298 274 298 244.5 271 c 128,-1,30
 215 244 215 244 170 245 c 256,31,32
 125 246 125 246 96 273 c 128,-1,33
 67 300 67 300 67 342 c 0,34,35
 67 397 67 397 93.5 439.5 c 128,-1,36
 120 482 120 482 166 506.5 c 128,-1,37
 212 531 212 531 271 531 c 0,38,39
 317 531 317 531 351.5 515 c 128,-1,40
 386 499 386 499 411.5 472.5 c 128,-1,41
 437 446 437 446 454 412 c 1,42,-1
 454 368 l 1,43,-1
 426 368 l 1,44,-1
 426 412 l 1,45,46
 452 462 452 462 495 496.5 c 128,-1,47
 538 531 538 531 605 531 c 0,48,49
 656 531 656 531 695.5 508.5 c 128,-1,50
 735 486 735 486 758 447 c 128,-1,51
 781 408 781 408 781 358 c 0,52,53
 781 296 781 296 748.5 255 c 128,-1,54
 716 214 716 214 656 190.5 c 128,-1,55
 596 167 596 167 511 156 c 2,56,-1
 330 131 l 2,57,58
 270 123 270 123 219.5 103 c 128,-1,59
 169 83 169 83 139 50 c 128,-1,60
 109 17 109 17 108 -32 c 0,61,62
 108 -90 108 -90 141 -126.5 c 128,-1,63
 174 -163 174 -163 231 -163 c 0,64,65
 271 -163 271 -163 309.5 -139.5 c 128,-1,66
 348 -116 348 -116 387 -81.5 c 128,-1,67
 426 -47 426 -47 466 -12 c 128,-1,68
 506 23 506 23 548 46.5 c 128,-1,69
 590 70 590 70 635 70 c 0,70,71
 678 70 678 70 710.5 53 c 128,-1,72
 743 36 743 36 762 5.5 c 128,-1,73
 781 -25 781 -25 781 -64 c 0,74,75
 781 -104 781 -104 759.5 -135 c 128,-1,76
 738 -166 738 -166 699.5 -184 c 128,-1,77
 661 -202 661 -202 609 -202 c 2,78,-1
 488 -202 l 1,79,-1
 488 -167 l 1,80,-1
 609 -167 l 2,81,82
 667 -167 667 -167 700 -137.5 c 128,-1,83
 733 -108 733 -108 733 -64 c 0,84,85
 733 -23 733 -23 706 2.5 c 128,-1,86
 679 28 679 28 635 28 c 0,87,88
 603 28 603 28 571.5 11 c 128,-1,89
 540 -6 540 -6 509 -32.5 c 128,-1,90
 478 -59 478 -59 445.5 -88.5 c 128,-1,91
 413 -118 413 -118 379 -144.5 c 128,-1,92
 345 -171 345 -171 308.5 -188 c 128,-1,93
 272 -205 272 -205 231 -205 c 0,94,95
 180 -205 180 -205 141.5 -182.5 c 128,-1,96
 103 -160 103 -160 81.5 -121 c 128,-1,97
 60 -82 60 -82 60 -32 c 0,98,99
 60 29 60 29 93 69.5 c 128,-1,100
 126 110 126 110 186.5 134.5 c 128,-1,101
 247 159 247 159 330 170 c 2,102,-1
 511 194 l 2,103,104
 572 202 572 202 622 222 c 128,-1,105
 672 242 672 242 702.5 276 c 128,-1,106
 733 310 733 310 733 358 c 0,107,108
 733 417 733 417 698 453 c 128,-1,109
 663 489 663 489 605 489 c 0,110,111
 564 489 564 489 532 470.5 c 128,-1,112
 500 452 500 452 481.5 419 c 128,-1,113
 463 386 463 386 463 343 c 2,114,-1
 463 274 l 1,0,-1
EndSplineSet
EndChar

StartChar: zero
Encoding: 48 48 62
Width: 570
Flags: W
LayerCount: 2
Fore
SplineSet
40 288 m 0,0,1
 40 201 40 201 71.5 133 c 128,-1,2
 103 65 103 65 159 26 c 128,-1,3
 215 -13 215 -13 286 -13 c 256,4,5
 357 -13 357 -13 412 26 c 128,-1,6
 467 65 467 65 498.5 133.5 c 128,-1,7
 530 202 530 202 530 289 c 0,8,9
 530 373 530 373 498.5 438.5 c 128,-1,10
 467 504 467 504 412 541.5 c 128,-1,11
 357 579 357 579 286 579 c 256,12,13
 215 579 215 579 159 541.5 c 128,-1,14
 103 504 103 504 71.5 438.5 c 128,-1,15
 40 373 40 373 40 288 c 0,0,1
91 291 m 0,16,17
 91 363 91 363 116 418.5 c 128,-1,18
 141 474 141 474 185.5 506 c 128,-1,19
 230 538 230 538 286 538 c 256,20,21
 342 538 342 538 385.5 505.5 c 128,-1,22
 429 473 429 473 454 416 c 128,-1,23
 479 359 479 359 479 286 c 0,24,25
 479 211 479 211 454 152.5 c 128,-1,26
 429 94 429 94 385.5 61 c 128,-1,27
 342 28 342 28 286 28 c 256,28,29
 230 28 230 28 185.5 62 c 128,-1,30
 141 96 141 96 116 155.5 c 128,-1,31
 91 215 91 215 91 291 c 0,16,17
EndSplineSet
EndChar

StartChar: one
Encoding: 49 49 63
Width: 300
Flags: W
LayerCount: 2
Fore
SplineSet
220 0 m 1,0,-1
 220 566 l 1,1,-1
 185 566 l 1,2,-1
 10 481 l 1,3,-1
 28 445 l 1,4,-1
 171 508 l 1,5,-1
 171 0 l 1,6,-1
 220 0 l 1,0,-1
EndSplineSet
EndChar

StartChar: two
Encoding: 50 50 64
Width: 470
Flags: W
LayerCount: 2
Fore
SplineSet
219 579 m 0,0,1
 155 579 155 579 110.5 561.5 c 128,-1,2
 66 544 66 544 38 527 c 1,3,-1
 60 493 l 1,4,5
 78 503 78 503 100.5 513.5 c 128,-1,6
 123 524 123 524 152 531.5 c 128,-1,7
 181 539 181 539 217 539 c 0,8,9
 282 539 282 539 324.5 504.5 c 128,-1,10
 367 470 367 470 367 417 c 0,11,12
 367 385 367 385 356.5 358.5 c 128,-1,13
 346 332 346 332 320.5 304 c 128,-1,14
 295 276 295 276 250 238 c 2,15,-1
 25 50 l 1,16,-1
 25 0 l 1,17,-1
 450 0 l 1,18,-1
 442 39 l 1,19,-1
 75 39 l 1,20,-1
 270 196 l 2,21,22
 320 236 320 236 353 272.5 c 128,-1,23
 386 309 386 309 402.5 345 c 128,-1,24
 419 381 419 381 419 418 c 0,25,26
 419 465 419 465 393 501 c 128,-1,27
 367 537 367 537 322 558 c 128,-1,28
 277 579 277 579 219 579 c 0,0,1
EndSplineSet
EndChar

StartChar: three
Encoding: 51 51 65
Width: 447
Flags: W
LayerCount: 2
Fore
SplineSet
205 579 m 0,0,1
 145 579 145 579 97.5 562 c 128,-1,2
 50 545 50 545 11 520 c 1,3,-1
 42 489 l 1,4,5
 66 505 66 505 107 521.5 c 128,-1,6
 148 538 148 538 202 538 c 0,7,8
 244 538 244 538 275 520 c 128,-1,9
 306 502 306 502 322.5 474 c 128,-1,10
 339 446 339 446 339 416 c 0,11,12
 339 359 339 359 291.5 322.5 c 128,-1,13
 244 286 244 286 160 286 c 2,14,-1
 126 286 l 1,15,-1
 136 247 l 1,16,-1
 154 247 l 2,17,18
 258 247 258 247 304.5 207.5 c 128,-1,19
 351 168 351 168 351 104 c 0,20,21
 351 64 351 64 328 32.5 c 128,-1,22
 305 1 305 1 269 -17 c 128,-1,23
 233 -35 233 -35 193 -35 c 0,24,25
 138 -35 138 -35 103 -23 c 128,-1,26
 68 -11 68 -11 33 10 c 1,27,-1
 0 -24 l 1,28,29
 34 -43 34 -43 84 -59.5 c 128,-1,30
 134 -76 134 -76 190 -76 c 0,31,32
 255 -76 255 -76 302.5 -52 c 128,-1,33
 350 -28 350 -28 376 13.5 c 128,-1,34
 402 55 402 55 402 106 c 0,35,36
 402 147 402 147 386 180.5 c 128,-1,37
 370 214 370 214 342 237 c 128,-1,38
 314 260 314 260 276 268 c 1,39,40
 308 278 308 278 333.5 299.5 c 128,-1,41
 359 321 359 321 374.5 351 c 128,-1,42
 390 381 390 381 390 417 c 0,43,44
 390 459 390 459 369.5 496 c 128,-1,45
 349 533 349 533 308 556 c 128,-1,46
 267 579 267 579 205 579 c 0,0,1
EndSplineSet
EndChar

StartChar: four
Encoding: 52 52 66
Width: 512
Flags: W
LayerCount: 2
Fore
SplineSet
492 113 m 1,0,-1
 375 113 l 1,1,-1
 375 571 l 1,2,-1
 347 571 l 1,3,-1
 10 125 l 1,4,-1
 19 74 l 1,5,-1
 326 74 l 1,6,-1
 326 -69 l 1,7,-1
 375 -69 l 1,8,-1
 375 74 l 1,9,-1
 484 74 l 1,10,-1
 492 113 l 1,0,-1
326 470 m 1,11,-1
 326 113 l 1,12,-1
 60 113 l 1,13,-1
 326 470 l 1,11,-1
EndSplineSet
EndChar

StartChar: five
Encoding: 53 53 67
Width: 491
Flags: W
LayerCount: 2
Fore
SplineSet
116 230 m 1,0,1
 136 252 136 252 171.5 270.5 c 128,-1,2
 207 289 207 289 247 289 c 0,3,4
 316 289 316 289 357.5 245.5 c 128,-1,5
 399 202 399 202 399 130 c 256,6,7
 399 58 399 58 353.5 11.5 c 128,-1,8
 308 -35 308 -35 224 -35 c 0,9,10
 178 -35 178 -35 138.5 -23 c 128,-1,11
 99 -11 99 -11 64 10 c 1,12,-1
 40 -26 l 1,13,14
 64 -38 64 -38 91.5 -49.5 c 128,-1,15
 119 -61 119 -61 151.5 -68.5 c 128,-1,16
 184 -76 184 -76 220 -76 c 0,17,18
 296 -76 296 -76 347 -47.5 c 128,-1,19
 398 -19 398 -19 424.5 28 c 128,-1,20
 451 75 451 75 451 130 c 0,21,22
 451 184 451 184 429.5 229.5 c 128,-1,23
 408 275 408 275 362.5 302.5 c 128,-1,24
 317 330 317 330 243 330 c 0,25,26
 218 330 218 330 187 319.5 c 128,-1,27
 156 309 156 309 129 289 c 1,28,-1
 140 527 l 1,29,-1
 409 527 l 1,30,-1
 412 566 l 1,31,-1
 95 566 l 1,32,-1
 80 230 l 1,33,-1
 116 230 l 1,0,1
EndSplineSet
EndChar

StartChar: six
Encoding: 54 54 68
Width: 492
Flags: W
LayerCount: 2
Fore
SplineSet
65 285 m 1,0,-1
 82 248 l 1,1,2
 97 272 97 272 123 294.5 c 128,-1,3
 149 317 149 317 183 331.5 c 128,-1,4
 217 346 217 346 253 346 c 0,5,6
 300 346 300 346 333 324.5 c 128,-1,7
 366 303 366 303 383.5 266.5 c 128,-1,8
 401 230 401 230 401 185 c 0,9,10
 401 147 401 147 383.5 111 c 128,-1,11
 366 75 366 75 333 51.5 c 128,-1,12
 300 28 300 28 252 28 c 0,13,14
 199 28 199 28 162 56.5 c 128,-1,15
 125 85 125 85 106 139 c 128,-1,16
 87 193 87 193 87 270 c 0,17,18
 87 328 87 328 106 377 c 128,-1,19
 125 426 125 426 157 465.5 c 128,-1,20
 189 505 189 505 229 533 c 128,-1,21
 269 561 269 561 311.5 576.5 c 128,-1,22
 354 592 354 592 393 594 c 1,23,-1
 375 634 l 1,24,25
 327 628 327 628 279 609 c 128,-1,26
 231 590 231 590 188 558.5 c 128,-1,27
 145 527 145 527 111.5 483 c 128,-1,28
 78 439 78 439 59 383.5 c 128,-1,29
 40 328 40 328 40 260 c 0,30,31
 40 172 40 172 67 111 c 128,-1,32
 94 50 94 50 142.5 18.5 c 128,-1,33
 191 -13 191 -13 254 -13 c 0,34,35
 313 -13 313 -13 357.5 16 c 128,-1,36
 402 45 402 45 427 91.5 c 128,-1,37
 452 138 452 138 452 190 c 0,38,39
 452 241 452 241 429 286 c 128,-1,40
 406 331 406 331 361.5 359 c 128,-1,41
 317 387 317 387 253 387 c 0,42,43
 202 387 202 387 165.5 369 c 128,-1,44
 129 351 129 351 104.5 327.5 c 128,-1,45
 80 304 80 304 65 285 c 1,0,-1
EndSplineSet
EndChar

StartChar: seven
Encoding: 55 55 69
Width: 429
Flags: W
LayerCount: 2
Fore
SplineSet
169 -69 m 1,0,-1
 409 537 l 1,1,-1
 387 566 l 1,2,-1
 10 566 l 1,3,-1
 18 527 l 1,4,-1
 360 527 l 1,5,-1
 123 -49 l 1,6,-1
 169 -69 l 1,0,-1
EndSplineSet
EndChar

StartChar: eight
Encoding: 56 56 70
Width: 501
Flags: W
LayerCount: 2
Fore
SplineSet
251 643 m 0,0,1
 187 643 187 643 146.5 620 c 128,-1,2
 106 597 106 597 87 560 c 128,-1,3
 68 523 68 523 68 481 c 0,4,5
 68 431 68 431 99.5 394 c 128,-1,6
 131 357 131 357 177 339 c 1,7,8
 139 331 139 331 108 304 c 128,-1,9
 77 277 77 277 58.5 241 c 128,-1,10
 40 205 40 205 40 169 c 0,11,12
 40 119 40 119 63 77.5 c 128,-1,13
 86 36 86 36 133 11.5 c 128,-1,14
 180 -13 180 -13 251 -13 c 256,15,16
 322 -13 322 -13 368.5 12.5 c 128,-1,17
 415 38 415 38 438 79.5 c 128,-1,18
 461 121 461 121 461 169 c 0,19,20
 461 211 461 211 442 246.5 c 128,-1,21
 423 282 423 282 392 306.5 c 128,-1,22
 361 331 361 331 325 339 c 1,23,24
 352 351 352 351 376.5 371.5 c 128,-1,25
 401 392 401 392 417 419.5 c 128,-1,26
 433 447 433 447 433 481 c 0,27,28
 433 521 433 521 414.5 558 c 128,-1,29
 396 595 396 595 356 619 c 128,-1,30
 316 643 316 643 251 643 c 0,0,1
248 602 m 0,31,32
 318 602 318 602 351 566 c 128,-1,33
 384 530 384 530 384 484 c 0,34,35
 384 458 384 458 368 431.5 c 128,-1,36
 352 405 352 405 322.5 385.5 c 128,-1,37
 293 366 293 366 251 360 c 1,38,39
 187 369 187 369 152.5 405.5 c 128,-1,40
 118 442 118 442 118 484 c 0,41,42
 118 514 118 514 132 541 c 128,-1,43
 146 568 146 568 175 585 c 128,-1,44
 204 602 204 602 248 602 c 0,31,32
251 316 m 1,45,46
 330 306 330 306 370 262.5 c 128,-1,47
 410 219 410 219 410 162 c 0,48,49
 410 124 410 124 388.5 93.5 c 128,-1,50
 367 63 367 63 331 45.5 c 128,-1,51
 295 28 295 28 251 28 c 0,52,53
 206 28 206 28 169.5 45.5 c 128,-1,54
 133 63 133 63 112 93.5 c 128,-1,55
 91 124 91 124 91 162 c 0,56,57
 91 219 91 219 131 262.5 c 128,-1,58
 171 306 171 306 251 316 c 1,45,46
EndSplineSet
EndChar

StartChar: nine
Encoding: 57 57 71
Width: 492
Flags: W
LayerCount: 2
Fore
SplineSet
427 280 m 1,0,-1
 410 317 l 1,1,2
 396 294 396 294 369.5 271 c 128,-1,3
 343 248 343 248 309.5 233.5 c 128,-1,4
 276 219 276 219 239 219 c 0,5,6
 193 219 193 219 159.5 240.5 c 128,-1,7
 126 262 126 262 108.5 299 c 128,-1,8
 91 336 91 336 91 380 c 0,9,10
 91 418 91 418 108.5 454 c 128,-1,11
 126 490 126 490 159.5 513.5 c 128,-1,12
 193 537 193 537 240 537 c 0,13,14
 294 537 294 537 330.5 508.5 c 128,-1,15
 367 480 367 480 386 426 c 128,-1,16
 405 372 405 372 405 295 c 0,17,18
 405 237 405 237 386 188 c 128,-1,19
 367 139 367 139 335 99.5 c 128,-1,20
 303 60 303 60 263 32 c 128,-1,21
 223 4 223 4 180.5 -11.5 c 128,-1,22
 138 -27 138 -27 99 -29 c 1,23,-1
 117 -69 l 1,24,25
 165 -63 165 -63 213 -44 c 128,-1,26
 261 -25 261 -25 304 6.5 c 128,-1,27
 347 38 347 38 380.5 82 c 128,-1,28
 414 126 414 126 433 182 c 128,-1,29
 452 238 452 238 452 305 c 0,30,31
 452 394 452 394 425 454.5 c 128,-1,32
 398 515 398 515 350 546.5 c 128,-1,33
 302 578 302 578 238 578 c 0,34,35
 180 578 180 578 135 549 c 128,-1,36
 90 520 90 520 65 473.5 c 128,-1,37
 40 427 40 427 40 375 c 0,38,39
 40 325 40 325 63 279.5 c 128,-1,40
 86 234 86 234 130.5 206 c 128,-1,41
 175 178 175 178 239 178 c 0,42,43
 290 178 290 178 326.5 196 c 128,-1,44
 363 214 363 214 388 238 c 128,-1,45
 413 262 413 262 427 280 c 1,0,-1
EndSplineSet
EndChar

StartChar: grave
Encoding: 96 96 72
Width: 137
Flags: W
LayerCount: 2
Fore
SplineSet
95 589 m 1,0,-1
 127 600 l 1,1,-1
 71 742 l 1,2,-1
 10 742 l 1,3,-1
 95 589 l 1,0,-1
EndSplineSet
EndChar

StartChar: dieresis
Encoding: 168 168 73
Width: 253
Flags: W
LayerCount: 2
Fore
SplineSet
47 618 m 0,0,1
 62 618 62 618 73 628.5 c 128,-1,2
 84 639 84 639 84 655 c 256,3,4
 84 671 84 671 73 681 c 128,-1,5
 62 691 62 691 47 691 c 0,6,7
 30 691 30 691 20 681 c 128,-1,8
 10 671 10 671 10 655 c 256,9,10
 10 639 10 639 20 628.5 c 128,-1,11
 30 618 30 618 47 618 c 0,0,1
206 618 m 0,12,13
 221 618 221 618 232 628.5 c 128,-1,14
 243 639 243 639 243 655 c 256,15,16
 243 671 243 671 232 681 c 128,-1,17
 221 691 221 691 206 691 c 0,18,19
 189 691 189 691 179 681 c 128,-1,20
 169 671 169 671 169 655 c 256,21,22
 169 639 169 639 179 628.5 c 128,-1,23
 189 618 189 618 206 618 c 0,12,13
EndSplineSet
EndChar

StartChar: macron
Encoding: 175 175 74
Width: 261
Flags: W
LayerCount: 2
Fore
SplineSet
10 640 m 1,0,-1
 251 640 l 1,1,-1
 245 677 l 1,2,-1
 10 677 l 1,3,-1
 10 640 l 1,0,-1
EndSplineSet
EndChar

StartChar: acute
Encoding: 180 180 75
Width: 137
Flags: W
LayerCount: 2
Fore
SplineSet
42 589 m 1,0,-1
 127 742 l 1,1,-1
 66 742 l 1,2,-1
 10 600 l 1,3,-1
 42 589 l 1,0,-1
EndSplineSet
EndChar

StartChar: circumflex
Encoding: 710 710 76
Width: 271
Flags: W
LayerCount: 2
Fore
SplineSet
137 707 m 1,0,-1
 220 589 l 1,1,-1
 261 603 l 1,2,-1
 156 742 l 1,3,-1
 116 742 l 1,4,-1
 10 599 l 1,5,-1
 51 589 l 1,6,-1
 137 707 l 1,0,-1
EndSplineSet
EndChar

StartChar: caron
Encoding: 711 711 77
Width: 271
Flags: W
LayerCount: 2
Fore
SplineSet
137 624 m 1,0,-1
 51 742 l 1,1,-1
 10 732 l 1,2,-1
 116 589 l 1,3,-1
 156 589 l 1,4,-1
 261 728 l 1,5,-1
 220 742 l 1,6,-1
 137 624 l 1,0,-1
EndSplineSet
EndChar

StartChar: breve
Encoding: 728 728 78
Width: 280
Flags: W
LayerCount: 2
Fore
SplineSet
229 731 m 1,0,1
 229 694 229 694 205.5 667 c 128,-1,2
 182 640 182 640 140 640 c 256,3,4
 98 640 98 640 74.5 668 c 128,-1,5
 51 696 51 696 51 731 c 1,6,-1
 10 731 l 1,7,8
 10 698 10 698 25 668 c 128,-1,9
 40 638 40 638 69 619.5 c 128,-1,10
 98 601 98 601 140 601 c 0,11,12
 184 601 184 601 212.5 619.5 c 128,-1,13
 241 638 241 638 255.5 668 c 128,-1,14
 270 698 270 698 270 731 c 1,15,-1
 229 731 l 1,0,1
EndSplineSet
EndChar

StartChar: dotaccent
Encoding: 729 729 79
Width: 97
Flags: W
LayerCount: 2
Fore
SplineSet
48 618 m 0,0,1
 64 618 64 618 75.5 629 c 128,-1,2
 87 640 87 640 87 656 c 256,3,4
 87 672 87 672 75.5 683 c 128,-1,5
 64 694 64 694 48 694 c 0,6,7
 31 694 31 694 20.5 683 c 128,-1,8
 10 672 10 672 10 656 c 256,9,10
 10 640 10 640 20.5 629 c 128,-1,11
 31 618 31 618 48 618 c 0,0,1
EndSplineSet
EndChar

StartChar: ring
Encoding: 730 730 80
Width: 197
Flags: W
LayerCount: 2
Fore
SplineSet
99 759 m 256,0,1
 75 759 75 759 55 748 c 128,-1,2
 35 737 35 737 22.5 718 c 128,-1,3
 10 699 10 699 10 675 c 0,4,5
 10 640 10 640 36.5 617 c 128,-1,6
 63 594 63 594 99 594 c 0,7,8
 123 594 123 594 143 604.5 c 128,-1,9
 163 615 163 615 175 633.5 c 128,-1,10
 187 652 187 652 187 675 c 0,11,12
 187 699 187 699 175 718 c 128,-1,13
 163 737 163 737 143 748 c 128,-1,14
 123 759 123 759 99 759 c 256,0,1
99 624 m 256,15,16
 77 624 77 624 63 638.5 c 128,-1,17
 49 653 49 653 49 675 c 0,18,19
 49 698 49 698 63 713 c 128,-1,20
 77 728 77 728 99 728 c 256,21,22
 121 728 121 728 134.5 713 c 128,-1,23
 148 698 148 698 148 675 c 0,24,25
 148 653 148 653 134.5 638.5 c 128,-1,26
 121 624 121 624 99 624 c 256,15,16
EndSplineSet
EndChar

StartChar: tilde
Encoding: 732 732 81
Width: 299
Flags: W
LayerCount: 2
Fore
SplineSet
251 699 m 1,0,1
 249 676 249 676 238 661 c 128,-1,2
 227 646 227 646 206 646 c 0,3,4
 193 646 193 646 181 653.5 c 128,-1,5
 169 661 169 661 158 675 c 256,6,7
 147 689 147 689 130.5 696 c 128,-1,8
 114 703 114 703 93 703 c 0,9,10
 71 703 71 703 52 693.5 c 128,-1,11
 33 684 33 684 21.5 664 c 128,-1,12
 10 644 10 644 10 612 c 1,13,-1
 49 612 l 1,14,15
 51 635 51 635 61.5 650 c 128,-1,16
 72 665 72 665 94 665 c 0,17,18
 107 665 107 665 120 658 c 128,-1,19
 133 651 133 651 146 637 c 256,20,21
 159 623 159 623 174 615.5 c 128,-1,22
 189 608 189 608 206 608 c 0,23,24
 229 608 229 608 247.5 617.5 c 128,-1,25
 266 627 266 627 277.5 647.5 c 128,-1,26
 289 668 289 668 289 699 c 1,27,-1
 251 699 l 1,0,1
EndSplineSet
EndChar

StartChar: hungarumlaut
Encoding: 733 733 82
Width: 265
Flags: W
LayerCount: 2
Fore
SplineSet
42 589 m 1,0,-1
 127 742 l 1,1,-1
 66 742 l 1,2,-1
 10 600 l 1,3,-1
 42 589 l 1,0,-1
170 589 m 1,4,-1
 255 742 l 1,5,-1
 194 742 l 1,6,-1
 138 600 l 1,7,-1
 170 589 l 1,4,-1
EndSplineSet
EndChar

StartChar: ogonek
Encoding: 731 731 83
Width: 205
Flags: W
LayerCount: 2
Fore
SplineSet
72 4 m 1,0,1
 54 -11 54 -11 40 -30.5 c 128,-1,2
 26 -50 26 -50 18 -71 c 128,-1,3
 10 -92 10 -92 10 -111 c 0,4,5
 10 -139 10 -139 24 -161 c 128,-1,6
 38 -183 38 -183 61.5 -195 c 128,-1,7
 85 -207 85 -207 115 -207 c 0,8,9
 140 -207 140 -207 161 -198.5 c 128,-1,10
 182 -190 182 -190 195 -177 c 1,11,-1
 173 -150 l 1,12,13
 161 -160 161 -160 147.5 -165.5 c 128,-1,14
 134 -171 134 -171 118 -171 c 0,15,16
 99 -171 99 -171 77.5 -156.5 c 128,-1,17
 56 -142 56 -142 56 -112 c 0,18,19
 56 -90 56 -90 62 -70.5 c 128,-1,20
 68 -51 68 -51 79.5 -33.5 c 128,-1,21
 91 -16 91 -16 109 0 c 1,22,-1
 72 4 l 1,0,1
EndSplineSet
EndChar

StartChar: cedilla
Encoding: 184 184 84
Width: 206
Flags: W
LayerCount: 2
Fore
SplineSet
55 -77 m 1,0,1
 87 -77 87 -77 109 -86.5 c 128,-1,2
 131 -96 131 -96 142.5 -110 c 128,-1,3
 154 -124 154 -124 154 -138 c 0,4,5
 154 -157 154 -157 134.5 -171 c 128,-1,6
 115 -185 115 -185 84 -185 c 0,7,8
 68 -185 68 -185 51 -180 c 128,-1,9
 34 -175 34 -175 25 -171 c 1,10,-1
 10 -202 l 1,11,12
 23 -210 23 -210 46 -215.5 c 128,-1,13
 69 -221 69 -221 87 -221 c 0,14,15
 120 -221 120 -221 144.5 -210.5 c 128,-1,16
 169 -200 169 -200 182.5 -180.5 c 128,-1,17
 196 -161 196 -161 196 -136 c 0,18,19
 196 -118 196 -118 186 -100.5 c 128,-1,20
 176 -83 176 -83 155.5 -69.5 c 128,-1,21
 135 -56 135 -56 105 -51 c 1,22,-1
 130 13 l 1,23,-1
 89 13 l 1,24,-1
 55 -77 l 1,0,1
EndSplineSet
EndChar

StartChar: commaaccent
Encoding: 63171 63171 85
Width: 0
Flags: W
LayerCount: 2
Fore
SplineSet
73 -21 m 0,0,1
 61 -21 61 -21 52.5 -26.5 c 128,-1,2
 44 -32 44 -32 39.5 -41 c 128,-1,3
 35 -50 35 -50 35 -60 c 256,4,5
 35 -70 35 -70 44 -84 c 128,-1,6
 53 -98 53 -98 71 -98 c 1,7,8
 70 -125 70 -125 53 -145.5 c 128,-1,9
 36 -166 36 -166 10 -180 c 1,10,-1
 26 -205 l 1,11,12
 54 -191 54 -191 73 -170 c 128,-1,13
 92 -149 92 -149 102 -121.5 c 128,-1,14
 112 -94 112 -94 112 -64 c 0,15,16
 112 -49 112 -49 101.5 -35 c 128,-1,17
 91 -21 91 -21 73 -21 c 0,0,1
EndSplineSet
EndChar

StartChar: grave.case
Encoding: 65537 -1 86
Width: 137
Flags: W
LayerCount: 2
Fore
SplineSet
95 739 m 1,0,-1
 127 750 l 1,1,-1
 71 892 l 1,2,-1
 10 892 l 1,3,-1
 95 739 l 1,0,-1
EndSplineSet
EndChar

StartChar: dieresis.case
Encoding: 65538 -1 87
Width: 253
Flags: W
LayerCount: 2
Fore
SplineSet
47 768 m 0,0,1
 62 768 62 768 73 778.5 c 128,-1,2
 84 789 84 789 84 805 c 256,3,4
 84 821 84 821 73 831 c 128,-1,5
 62 841 62 841 47 841 c 0,6,7
 30 841 30 841 20 831 c 128,-1,8
 10 821 10 821 10 805 c 256,9,10
 10 789 10 789 20 778.5 c 128,-1,11
 30 768 30 768 47 768 c 0,0,1
206 768 m 0,12,13
 221 768 221 768 232 778.5 c 128,-1,14
 243 789 243 789 243 805 c 256,15,16
 243 821 243 821 232 831 c 128,-1,17
 221 841 221 841 206 841 c 0,18,19
 189 841 189 841 179 831 c 128,-1,20
 169 821 169 821 169 805 c 256,21,22
 169 789 169 789 179 778.5 c 128,-1,23
 189 768 189 768 206 768 c 0,12,13
EndSplineSet
EndChar

StartChar: macron.case
Encoding: 65539 -1 88
Width: 261
Flags: W
LayerCount: 2
Fore
SplineSet
10 790 m 1,0,-1
 251 790 l 1,1,-1
 246 827 l 1,2,-1
 10 827 l 1,3,-1
 10 790 l 1,0,-1
EndSplineSet
EndChar

StartChar: acute.case
Encoding: 65540 -1 89
Width: 137
Flags: W
LayerCount: 2
Fore
SplineSet
42 739 m 1,0,-1
 127 892 l 1,1,-1
 66 892 l 1,2,-1
 10 750 l 1,3,-1
 42 739 l 1,0,-1
EndSplineSet
EndChar

StartChar: circumflex.case
Encoding: 65541 -1 90
Width: 271
Flags: W
LayerCount: 2
Fore
SplineSet
137 858 m 1,0,-1
 220 740 l 1,1,-1
 261 754 l 1,2,-1
 156 893 l 1,3,-1
 116 893 l 1,4,-1
 10 750 l 1,5,-1
 51 740 l 1,6,-1
 137 858 l 1,0,-1
EndSplineSet
EndChar

StartChar: caron.case
Encoding: 65542 -1 91
Width: 271
Flags: W
LayerCount: 2
Fore
SplineSet
137 774 m 1,0,-1
 51 892 l 1,1,-1
 10 882 l 1,2,-1
 116 739 l 1,3,-1
 156 739 l 1,4,-1
 261 878 l 1,5,-1
 220 892 l 1,6,-1
 137 774 l 1,0,-1
EndSplineSet
EndChar

StartChar: breve.case
Encoding: 65543 -1 92
Width: 280
Flags: W
LayerCount: 2
Fore
SplineSet
229 881 m 1,0,1
 229 844 229 844 205.5 817 c 128,-1,2
 182 790 182 790 140 790 c 256,3,4
 98 790 98 790 74.5 818 c 128,-1,5
 51 846 51 846 51 881 c 1,6,-1
 10 881 l 1,7,8
 10 848 10 848 25 818 c 128,-1,9
 40 788 40 788 69 769.5 c 128,-1,10
 98 751 98 751 140 751 c 0,11,12
 184 751 184 751 212.5 769.5 c 128,-1,13
 241 788 241 788 255.5 818 c 128,-1,14
 270 848 270 848 270 881 c 1,15,-1
 229 881 l 1,0,1
EndSplineSet
EndChar

StartChar: dotaccent.case
Encoding: 65544 -1 93
Width: 97
Flags: W
LayerCount: 2
Fore
SplineSet
48 768 m 0,0,1
 64 768 64 768 75.5 779 c 128,-1,2
 87 790 87 790 87 806 c 256,3,4
 87 822 87 822 75.5 833 c 128,-1,5
 64 844 64 844 48 844 c 0,6,7
 31 844 31 844 20.5 833 c 128,-1,8
 10 822 10 822 10 806 c 256,9,10
 10 790 10 790 20.5 779 c 128,-1,11
 31 768 31 768 48 768 c 0,0,1
EndSplineSet
EndChar

StartChar: ring.case
Encoding: 65545 -1 94
Width: 197
Flags: W
LayerCount: 2
Fore
SplineSet
99 909 m 256,0,1
 75 909 75 909 55 898 c 128,-1,2
 35 887 35 887 22.5 868 c 128,-1,3
 10 849 10 849 10 825 c 0,4,5
 10 790 10 790 36.5 767 c 128,-1,6
 63 744 63 744 99 744 c 0,7,8
 123 744 123 744 143 754.5 c 128,-1,9
 163 765 163 765 175 783.5 c 128,-1,10
 187 802 187 802 187 825 c 0,11,12
 187 849 187 849 175 868 c 128,-1,13
 163 887 163 887 143 898 c 128,-1,14
 123 909 123 909 99 909 c 256,0,1
99 774 m 256,15,16
 77 774 77 774 63 788.5 c 128,-1,17
 49 803 49 803 49 825 c 0,18,19
 49 848 49 848 63 863 c 128,-1,20
 77 878 77 878 99 878 c 256,21,22
 121 878 121 878 134.5 863 c 128,-1,23
 148 848 148 848 148 825 c 0,24,25
 148 803 148 803 134.5 788.5 c 128,-1,26
 121 774 121 774 99 774 c 256,15,16
EndSplineSet
EndChar

StartChar: tilde.case
Encoding: 65546 -1 95
Width: 299
Flags: W
LayerCount: 2
Fore
SplineSet
251 849 m 1,0,1
 249 826 249 826 238 811 c 128,-1,2
 227 796 227 796 206 796 c 0,3,4
 193 796 193 796 181 803.5 c 128,-1,5
 169 811 169 811 158 825 c 256,6,7
 147 839 147 839 130.5 846 c 128,-1,8
 114 853 114 853 93 853 c 0,9,10
 71 853 71 853 52 843.5 c 128,-1,11
 33 834 33 834 21.5 814 c 128,-1,12
 10 794 10 794 10 762 c 1,13,-1
 49 762 l 1,14,15
 51 785 51 785 61.5 800 c 128,-1,16
 72 815 72 815 94 815 c 0,17,18
 107 815 107 815 120 808 c 128,-1,19
 133 801 133 801 146 787 c 256,20,21
 159 773 159 773 174 765.5 c 128,-1,22
 189 758 189 758 206 758 c 0,23,24
 229 758 229 758 247.5 767.5 c 128,-1,25
 266 777 266 777 277.5 797.5 c 128,-1,26
 289 818 289 818 289 849 c 1,27,-1
 251 849 l 1,0,1
EndSplineSet
EndChar

StartChar: hungarumlaut.case
Encoding: 65547 -1 96
Width: 265
Flags: W
LayerCount: 2
Fore
SplineSet
42 739 m 1,0,-1
 127 892 l 1,1,-1
 66 892 l 1,2,-1
 10 750 l 1,3,-1
 42 739 l 1,0,-1
170 739 m 1,4,-1
 255 892 l 1,5,-1
 194 892 l 1,6,-1
 138 750 l 1,7,-1
 170 739 l 1,4,-1
EndSplineSet
EndChar

StartChar: Thorn
Encoding: 222 222 97
Width: 1189
Flags: W
AnchorPoint: "Anchor-1" 639 0 basechar 0
AnchorPoint: "Anchor-0" 1072 0 basechar 0
LayerCount: 2
Fore
SplineSet
339 237 m 0,0,1
 339 173 339 173 367 123.5 c 128,-1,2
 395 74 395 74 447 45.5 c 128,-1,3
 499 17 499 17 571 17 c 0,4,5
 624 17 624 17 657.5 51 c 128,-1,6
 691 85 691 85 691 137 c 0,7,8
 691 190 691 190 657.5 223.5 c 128,-1,9
 624 257 624 257 571 257 c 256,10,11
 518 257 518 257 484 224 c 128,-1,12
 450 191 450 191 450 139 c 0,13,14
 450 86 450 86 484 51.5 c 128,-1,15
 518 17 518 17 571 17 c 1,16,-1
 571 -8 l 1,17,18
 523 -8 523 -8 486 11 c 128,-1,19
 449 30 449 30 428 63 c 128,-1,20
 407 96 407 96 407 139 c 0,21,22
 407 185 407 185 428 220 c 128,-1,23
 449 255 449 255 486 275.5 c 128,-1,24
 523 296 523 296 571 296 c 0,25,26
 620 296 620 296 657.5 275.5 c 128,-1,27
 695 255 695 255 717 219.5 c 128,-1,28
 739 184 739 184 739 137 c 0,29,30
 739 92 739 92 717 57 c 128,-1,31
 695 22 695 22 657.5 2 c 128,-1,32
 620 -18 620 -18 571 -18 c 0,33,34
 486 -18 486 -18 423 15 c 128,-1,35
 360 48 360 48 326 105.5 c 128,-1,36
 292 163 292 163 292 237 c 0,37,38
 292 320 292 320 329 382 c 128,-1,39
 366 444 366 444 438 478.5 c 128,-1,40
 510 513 510 513 616 513 c 2,41,-1
 682 513 l 1,42,-1
 682 478 l 1,43,-1
 625 478 l 2,44,45
 531 478 531 478 467 448 c 128,-1,46
 403 418 403 418 371 364 c 128,-1,47
 339 310 339 310 339 237 c 0,0,1
969 343 m 0,48,49
 1020 343 1020 343 1056 315.5 c 128,-1,50
 1092 288 1092 288 1110.5 242.5 c 128,-1,51
 1129 197 1129 197 1129 143 c 0,52,53
 1129 55 1129 55 1095 -16.5 c 128,-1,54
 1061 -88 1061 -88 997 -139.5 c 128,-1,55
 933 -191 933 -191 842 -218.5 c 128,-1,56
 751 -246 751 -246 637 -246 c 0,57,58
 508 -246 508 -246 405.5 -215 c 128,-1,59
 303 -184 303 -184 230 -126 c 128,-1,60
 157 -68 157 -68 118.5 12 c 128,-1,61
 80 92 80 92 80 190 c 0,62,63
 80 245 80 245 98 308 c 128,-1,64
 116 371 116 371 148 428.5 c 128,-1,65
 180 486 180 486 220 523 c 1,66,-1
 266 513 l 1,67,68
 226 481 226 481 195 426 c 128,-1,69
 164 371 164 371 146 308.5 c 128,-1,70
 128 246 128 246 128 188 c 0,71,72
 128 100 128 100 163 27.5 c 128,-1,73
 198 -45 198 -45 264.5 -96.5 c 128,-1,74
 331 -148 331 -148 425 -176 c 128,-1,75
 519 -204 519 -204 637 -204 c 0,76,77
 776 -204 776 -204 875.5 -160.5 c 128,-1,78
 975 -117 975 -117 1028.5 -38.5 c 128,-1,79
 1082 40 1082 40 1082 145 c 0,80,81
 1082 186 1082 186 1069 221.5 c 128,-1,82
 1056 257 1056 257 1030.5 279 c 128,-1,83
 1005 301 1005 301 967 301 c 0,84,85
 912 301 912 301 876.5 263 c 128,-1,86
 841 225 841 225 841 166 c 2,87,-1
 841 0 l 1,88,-1
 797 0 l 1,89,-1
 797 478 l 1,90,-1
 682 478 l 1,91,-1
 681 513 l 1,92,-1
 1038 513 l 1,93,-1
 1042 478 l 1,94,-1
 841 478 l 1,95,-1
 841 282 l 1,96,97
 864 311 864 311 896.5 327 c 128,-1,98
 929 343 929 343 969 343 c 0,48,49
EndSplineSet
EndChar

StartChar: Eth
Encoding: 208 208 98
Width: 841
Flags: W
LayerCount: 2
Fore
SplineSet
719 -50 m 0,0,1
 719 -18 719 -18 709.5 21.5 c 128,-1,2
 700 61 700 61 684 95 c 1,3,-1
 729 101 l 1,4,5
 746 63 746 63 756.5 29 c 128,-1,6
 767 -5 767 -5 767 -50 c 256,7,8
 767 -95 767 -95 746 -130 c 128,-1,9
 725 -165 725 -165 686 -185 c 128,-1,10
 647 -205 647 -205 591 -205 c 0,11,12
 540 -205 540 -205 506.5 -189 c 128,-1,13
 473 -173 473 -173 451 -146 c 128,-1,14
 429 -119 429 -119 412 -86 c 1,15,-1
 412 -32 l 1,16,-1
 442 -30 l 1,17,-1
 442 -86 l 1,18,19
 425 -119 425 -119 401 -146 c 128,-1,20
 377 -173 377 -173 340.5 -189 c 128,-1,21
 304 -205 304 -205 249 -205 c 256,22,23
 194 -205 194 -205 151 -182.5 c 128,-1,24
 108 -160 108 -160 84 -121 c 128,-1,25
 60 -82 60 -82 60 -32 c 0,26,27
 60 29 60 29 93 69.5 c 128,-1,28
 126 110 126 110 186.5 134.5 c 128,-1,29
 247 159 247 159 330 170 c 2,30,-1
 511 194 l 2,31,32
 572 202 572 202 622 222 c 128,-1,33
 672 242 672 242 702.5 276 c 128,-1,34
 733 310 733 310 733 358 c 0,35,36
 733 417 733 417 698 453 c 128,-1,37
 663 489 663 489 605 489 c 0,38,39
 564 489 564 489 532 470.5 c 128,-1,40
 500 452 500 452 481.5 419 c 128,-1,41
 463 386 463 386 463 343 c 2,42,-1
 463 274 l 1,43,-1
 419 274 l 1,44,-1
 419 343 l 2,45,46
 419 408 419 408 377.5 448.5 c 128,-1,47
 336 489 336 489 271 489 c 0,48,49
 219 489 219 489 183 470 c 128,-1,50
 147 451 147 451 129 417.5 c 128,-1,51
 111 384 111 384 111 339 c 0,52,53
 111 314 111 314 128 297 c 128,-1,54
 145 280 145 280 170 280 c 0,55,56
 196 280 196 280 213.5 296.5 c 128,-1,57
 231 313 231 313 232 338 c 0,58,59
 232 365 232 365 215 383 c 128,-1,60
 198 401 198 401 172 401 c 0,61,62
 145 401 145 401 127.5 383 c 128,-1,63
 110 365 110 365 111 339 c 1,64,-1
 81 338 l 1,65,66
 80 382 80 382 106.5 409.5 c 128,-1,67
 133 437 133 437 173 437 c 0,68,69
 220 437 220 437 248.5 409.5 c 128,-1,70
 277 382 277 382 275 338 c 0,71,72
 274 298 274 298 244.5 271 c 128,-1,73
 215 244 215 244 170 245 c 256,74,75
 125 246 125 246 96 273 c 128,-1,76
 67 300 67 300 67 342 c 0,77,78
 67 397 67 397 93.5 439.5 c 128,-1,79
 120 482 120 482 166 506.5 c 128,-1,80
 212 531 212 531 271 531 c 0,81,82
 317 531 317 531 351.5 515 c 128,-1,83
 386 499 386 499 411.5 472.5 c 128,-1,84
 437 446 437 446 454 412 c 1,85,-1
 454 368 l 1,86,-1
 426 368 l 1,87,-1
 426 412 l 1,88,89
 452 462 452 462 495 496.5 c 128,-1,90
 538 531 538 531 605 531 c 0,91,92
 656 531 656 531 695.5 508.5 c 128,-1,93
 735 486 735 486 758 447 c 128,-1,94
 781 408 781 408 781 358 c 0,95,96
 781 296 781 296 748.5 255 c 128,-1,97
 716 214 716 214 656 190.5 c 128,-1,98
 596 167 596 167 511 156 c 2,99,-1
 330 131 l 2,100,101
 270 123 270 123 219.5 103 c 128,-1,102
 169 83 169 83 139 50 c 128,-1,103
 109 17 109 17 108 -32 c 0,104,105
 108 -90 108 -90 146.5 -126.5 c 128,-1,106
 185 -163 185 -163 249 -163 c 0,107,108
 295 -163 295 -163 330 -144.5 c 128,-1,109
 365 -126 365 -126 385 -93 c 128,-1,110
 405 -60 405 -60 405 -17 c 2,111,-1
 405 52 l 1,112,-1
 449 52 l 1,113,-1
 449 -17 l 2,114,115
 449 -60 449 -60 466.5 -93 c 128,-1,116
 484 -126 484 -126 516 -144.5 c 128,-1,117
 548 -163 548 -163 591 -163 c 0,118,119
 655 -163 655 -163 687 -132 c 128,-1,120
 719 -101 719 -101 719 -50 c 0,0,1
EndSplineSet
EndChar

StartChar: AE
Encoding: 198 198 99
Width: 1248
Flags: W
LayerCount: 2
Fore
SplineSet
931 90 m 1,0,-1
 150 90 l 2,1,2
 116 90 116 90 102 74 c 128,-1,3
 88 58 88 58 88 32 c 0,4,5
 88 -8 88 -8 118.5 -38 c 128,-1,6
 149 -68 149 -68 203 -85 c 128,-1,7
 257 -102 257 -102 327 -102 c 0,8,9
 435 -102 435 -102 518 -59.5 c 128,-1,10
 601 -17 601 -17 648.5 58 c 128,-1,11
 696 133 696 133 696 230 c 0,12,13
 696 306 696 306 669 364.5 c 128,-1,14
 642 423 642 423 592 456 c 128,-1,15
 542 489 542 489 471 489 c 0,16,17
 416 489 416 489 372.5 469 c 128,-1,18
 329 449 329 449 304.5 413.5 c 128,-1,19
 280 378 280 378 280 329 c 0,20,21
 280 298 280 298 303 277 c 128,-1,22
 326 256 326 256 360 254 c 0,23,24
 395 253 395 253 418 274 c 128,-1,25
 441 295 441 295 441 329 c 0,26,27
 441 362 441 362 418.5 383 c 128,-1,28
 396 404 396 404 361 404 c 0,29,30
 327 404 327 404 303.5 383 c 128,-1,31
 280 362 280 362 280 329 c 1,32,-1
 253 329 l 1,33,34
 253 362 253 362 267.5 387 c 128,-1,35
 282 412 282 412 307 426.5 c 128,-1,36
 332 441 332 441 361 441 c 0,37,38
 415 441 415 441 450.5 409 c 128,-1,39
 486 377 486 377 485 329 c 0,40,41
 484 279 484 279 449 247 c 128,-1,42
 414 215 414 215 360 216 c 0,43,44
 308 217 308 217 274.5 250 c 128,-1,45
 241 283 241 283 241 332 c 0,46,47
 241 390 241 390 271 434.5 c 128,-1,48
 301 479 301 479 353 505 c 128,-1,49
 405 531 405 531 471 531 c 0,50,51
 555 531 555 531 616.5 492 c 128,-1,52
 678 453 678 453 711 385 c 128,-1,53
 744 317 744 317 744 230 c 0,54,55
 744 149 744 149 713 80.5 c 128,-1,56
 682 12 682 12 626 -38.5 c 128,-1,57
 570 -89 570 -89 494 -116.5 c 128,-1,58
 418 -144 418 -144 327 -144 c 0,59,60
 244 -144 244 -144 179 -121 c 128,-1,61
 114 -98 114 -98 77 -58 c 128,-1,62
 40 -18 40 -18 40 32 c 0,63,64
 40 73 40 73 67 99 c 128,-1,65
 94 125 94 125 146 125 c 2,66,-1
 931 125 l 1,67,-1
 931 90 l 1,0,-1
1083 84 m 0,68,69
 1132 84 1132 84 1166.5 61.5 c 128,-1,70
 1201 39 1201 39 1219.5 0.5 c 128,-1,71
 1238 -38 1238 -38 1238 -86 c 0,72,73
 1238 -150 1238 -150 1211.5 -203.5 c 128,-1,74
 1185 -257 1185 -257 1136.5 -296 c 128,-1,75
 1088 -335 1088 -335 1023.5 -356 c 128,-1,76
 959 -377 959 -377 882 -377 c 0,77,78
 820 -377 820 -377 771 -360 c 128,-1,79
 722 -343 722 -343 694.5 -312.5 c 128,-1,80
 667 -282 667 -282 667 -244 c 0,81,82
 667 -198 667 -198 701 -168 c 128,-1,83
 735 -138 735 -138 787 -138 c 2,84,-1
 808 -138 l 1,85,-1
 808 -173 l 1,86,-1
 787 -173 l 2,87,88
 754 -173 754 -173 734.5 -193 c 128,-1,89
 715 -213 715 -213 715 -244 c 0,90,91
 715 -285 715 -285 761.5 -310 c 128,-1,92
 808 -335 808 -335 882 -335 c 0,93,94
 972 -335 972 -335 1041.5 -303.5 c 128,-1,95
 1111 -272 1111 -272 1150.5 -215 c 128,-1,96
 1190 -158 1190 -158 1190 -84 c 0,97,98
 1190 -31 1190 -31 1161.5 5 c 128,-1,99
 1133 41 1133 41 1080 41 c 0,100,101
 1026 41 1026 41 990.5 3 c 128,-1,102
 955 -35 955 -35 955 -94 c 2,103,-1
 955 -126 l 1,104,-1
 911 -126 l 1,105,-1
 911 513 l 1,106,-1
 955 513 l 1,107,-1
 955 23 l 1,108,109
 978 52 978 52 1010.5 68 c 128,-1,110
 1043 84 1043 84 1083 84 c 0,68,69
EndSplineSet
EndChar

StartChar: Dcroat
Encoding: 272 272 100
Width: 819
Flags: W
LayerCount: 2
Fore
SplineSet
415 32 m 0,0,1
 422 32 422 32 426.5 36.5 c 128,-1,2
 431 41 431 41 431 48 c 0,3,4
 431 56 431 56 426.5 60.5 c 128,-1,5
 422 65 422 65 415 65 c 0,6,7
 399 65 399 65 399 48 c 0,8,9
 399 32 399 32 415 32 c 0,0,1
371 -72 m 1,10,-1
 371 12 l 1,11,-1
 346 11 l 1,12,-1
 346 -95 l 1,13,-1
 442 -95 l 2,14,15
 467 -95 467 -95 480.5 -80 c 128,-1,16
 494 -65 494 -65 494 -41 c 0,17,18
 494 -16 494 -16 481 -0.5 c 128,-1,19
 468 15 468 15 444 15 c 0,20,21
 424 15 424 15 413.5 2 c 128,-1,22
 403 -11 403 -11 403 -31 c 2,23,-1
 403 -94 l 1,24,-1
 428 -91 l 1,25,-1
 428 -32 l 2,26,27
 428 -22 428 -22 431.5 -14.5 c 128,-1,28
 435 -7 435 -7 447 -7 c 0,29,30
 458 -7 458 -7 463.5 -17 c 128,-1,31
 469 -27 469 -27 469 -41 c 0,32,33
 469 -54 469 -54 462 -63 c 128,-1,34
 455 -72 455 -72 444 -72 c 2,35,-1
 371 -72 l 1,10,-1
409 534 m 256,36,37
 485 534 485 534 549 515.5 c 128,-1,38
 613 497 613 497 660 463 c 128,-1,39
 707 429 707 429 733 383 c 128,-1,40
 759 337 759 337 759 282 c 0,41,42
 759 237 759 237 744 201.5 c 128,-1,43
 729 166 729 166 700.5 146 c 128,-1,44
 672 126 672 126 629 126 c 0,45,46
 594 126 594 126 566 144.5 c 128,-1,47
 538 163 538 163 522 195.5 c 128,-1,48
 506 228 506 228 506 269 c 1,49,-1
 541 269 l 1,50,51
 543 224 543 224 567.5 196 c 128,-1,52
 592 168 592 168 629 168 c 0,53,54
 673 168 673 168 692 199.5 c 128,-1,55
 711 231 711 231 711 282 c 0,56,57
 711 343 711 343 671.5 390 c 128,-1,58
 632 437 632 437 564 464 c 128,-1,59
 496 491 496 491 409 491 c 0,60,61
 321 491 321 491 252 462.5 c 128,-1,62
 183 434 183 434 143.5 384 c 128,-1,63
 104 334 104 334 104 269 c 0,64,65
 104 231 104 231 118 202 c 128,-1,66
 132 173 132 173 157.5 156.5 c 128,-1,67
 183 140 183 140 217 140 c 0,68,69
 249 140 249 140 270 161 c 128,-1,70
 291 182 291 182 292 213 c 0,71,72
 292 246 292 246 271.5 267 c 128,-1,73
 251 288 251 288 219 288 c 0,74,75
 185 288 185 288 163 267 c 128,-1,76
 141 246 141 246 141 212 c 0,77,78
 141 181 141 181 162.5 160.5 c 128,-1,79
 184 140 184 140 217 140 c 1,80,-1
 217 106 l 1,81,82
 169 106 169 106 137.5 137 c 128,-1,83
 106 168 106 168 106 215 c 0,84,85
 106 265 106 265 138.5 296.5 c 128,-1,86
 171 328 171 328 220 328 c 0,87,88
 271 328 271 328 304 295.5 c 128,-1,89
 337 263 337 263 337 213 c 0,90,91
 337 165 337 165 303.5 133.5 c 128,-1,92
 270 102 270 102 217 102 c 0,93,94
 172 102 172 102 136.5 123.5 c 128,-1,95
 101 145 101 145 80.5 183 c 128,-1,96
 60 221 60 221 60 269 c 0,97,98
 60 327 60 327 86 375.5 c 128,-1,99
 112 424 112 424 159 459.5 c 128,-1,100
 206 495 206 495 269.5 514.5 c 128,-1,101
 333 534 333 534 409 534 c 256,36,37
720 -35 m 1,102,-1
 661 -35 l 2,103,104
 575 -35 575 -35 536 9.5 c 128,-1,105
 497 54 497 54 497 133 c 2,106,-1
 497 269 l 1,107,-1
 536 269 l 1,108,-1
 536 133 l 2,109,110
 536 69 536 69 565 34.5 c 128,-1,111
 594 0 594 0 661 0 c 2,112,-1
 720 0 l 1,113,-1
 720 -35 l 1,102,-1
414 -180 m 0,114,115
 473 -180 473 -180 511 -143 c 128,-1,116
 549 -106 549 -106 549 -50 c 2,117,-1
 549 19 l 1,118,-1
 593 0 l 1,119,-1
 593 -50 l 2,120,121
 593 -99 593 -99 570 -137 c 128,-1,122
 547 -175 547 -175 506.5 -197 c 128,-1,123
 466 -219 466 -219 414 -219 c 256,124,125
 362 -219 362 -219 321.5 -197 c 128,-1,126
 281 -175 281 -175 258 -137 c 128,-1,127
 235 -99 235 -99 235 -50 c 2,128,-1
 235 0 l 1,129,-1
 279 0 l 1,130,-1
 279 -50 l 2,131,132
 279 -106 279 -106 317.5 -143 c 128,-1,133
 356 -180 356 -180 414 -180 c 0,114,115
EndSplineSet
EndChar

StartChar: OE
Encoding: 338 338 101
Width: 892
Flags: W
LayerCount: 2
Fore
SplineSet
523 657 m 1,0,1
 505 670 505 670 474 678 c 128,-1,2
 443 686 443 686 412 690 c 128,-1,3
 381 694 381 694 360 694 c 0,4,5
 287 694 287 694 229 666.5 c 128,-1,6
 171 639 171 639 131.5 590 c 128,-1,7
 92 541 92 541 71 476 c 128,-1,8
 50 411 50 411 50 336 c 0,9,10
 50 267 50 267 68.5 204 c 128,-1,11
 87 141 87 141 124 92 c 128,-1,12
 161 43 161 43 218.5 14.5 c 128,-1,13
 276 -14 276 -14 354 -14 c 0,14,15
 383 -14 383 -14 415 -9 c 128,-1,16
 447 -4 447 -4 476 4.5 c 128,-1,17
 505 13 505 13 523 23 c 1,18,-1
 499 59 l 1,19,20
 472 47 472 47 437.5 38 c 128,-1,21
 403 29 403 29 349 29 c 0,22,23
 291 29 291 29 245.5 54 c 128,-1,24
 200 79 200 79 169 122 c 128,-1,25
 138 165 138 165 121.5 220.5 c 128,-1,26
 105 276 105 276 105 337 c 0,27,28
 105 433 105 433 138.5 503.5 c 128,-1,29
 172 574 172 574 229.5 612.5 c 128,-1,30
 287 651 287 651 358 651 c 0,31,32
 394 651 394 651 418.5 647 c 128,-1,33
 443 643 443 643 463 636.5 c 128,-1,34
 483 630 483 630 503 621 c 1,35,-1
 523 657 l 1,0,1
872 0 m 1,36,-1
 866 39 l 1,37,-1
 546 39 l 1,38,-1
 546 329 l 1,39,-1
 791 329 l 1,40,-1
 786 368 l 1,41,-1
 546 368 l 1,42,-1
 546 641 l 1,43,-1
 849 641 l 1,44,-1
 844 680 l 1,45,-1
 497 680 l 1,46,-1
 497 0 l 1,47,-1
 872 0 l 1,36,-1
EndSplineSet
EndChar

StartChar: germandbls
Encoding: 223 223 102
Width: 714
Flags: W
AnchorPoint: "Anchor-1" 390 0 basechar 0
LayerCount: 2
Fore
SplineSet
699 35 m 1,0,-1
 144 35 l 1,1,-1
 144 518 l 1,2,-1
 100 513 l 1,3,-1
 100 0 l 1,4,-1
 704 0 l 1,5,-1
 699 35 l 1,0,-1
EndSplineSet
EndChar

StartChar: eth
Encoding: 240 240 103
Width: 669
Flags: W
AnchorPoint: "Anchor-1" 330 0 basechar 0
AnchorPoint: "Anchor-0" 692 0 basechar 0
LayerCount: 2
Fore
SplineSet
659 478 m 1,0,-1
 458 478 l 1,1,-1
 458 26 l 2,2,3
 458 -13 458 -13 453 -37.5 c 128,-1,4
 448 -62 448 -62 433.5 -79.5 c 128,-1,5
 419 -97 419 -97 390 -115 c 2,6,-1
 163 -250 l 1,7,-1
 142 -215 l 1,8,-1
 365 -80 l 2,9,10
 386 -67 386 -67 396.5 -53 c 128,-1,11
 407 -39 407 -39 410.5 -19 c 128,-1,12
 414 1 414 1 414 33 c 2,13,-1
 414 478 l 1,14,-1
 144 478 l 1,15,-1
 144 0 l 1,16,-1
 100 0 l 1,17,-1
 100 513 l 1,18,-1
 654 513 l 1,19,-1
 659 478 l 1,0,-1
EndSplineSet
EndChar

StartChar: thorn
Encoding: 254 254 104
Width: 649
Flags: W
AnchorPoint: "Anchor-1" 316 0 basechar 0
LayerCount: 2
Fore
SplineSet
438 478 m 1,0,-1
 438 0 l 1,1,-1
 394 0 l 1,2,-1
 394 478 l 1,3,-1
 144 478 l 1,4,-1
 144 0 l 1,5,-1
 100 0 l 1,6,-1
 100 513 l 1,7,-1
 634 513 l 1,8,-1
 639 478 l 1,9,-1
 438 478 l 1,0,-1
EndSplineSet
EndChar

StartChar: florin
Encoding: 402 402 105
Width: 293
Flags: W
LayerCount: 2
Fore
SplineSet
49 470 m 1,0,-1
 49 433 l 1,1,-1
 122 433 l 1,2,-1
 122 57 l 2,3,4
 122 21 122 21 106.5 -2 c 128,-1,5
 91 -25 91 -25 53 -25 c 0,6,7
 43 -25 43 -25 30.5 -22 c 128,-1,8
 18 -19 18 -19 12 -16 c 1,9,-1
 0 -53 l 1,10,11
 7 -55 7 -55 17 -58.5 c 128,-1,12
 27 -62 27 -62 40 -64 c 128,-1,13
 53 -66 53 -66 66 -66 c 0,14,15
 102 -66 102 -66 125.5 -48.5 c 128,-1,16
 149 -31 149 -31 160 0 c 128,-1,17
 171 31 171 31 171 73 c 2,18,-1
 171 433 l 1,19,-1
 280 433 l 1,20,-1
 259 470 l 1,21,-1
 171 470 l 1,22,-1
 171 579 l 2,23,24
 171 615 171 615 186.5 638 c 128,-1,25
 202 661 202 661 240 661 c 0,26,27
 250 661 250 661 262.5 658 c 128,-1,28
 275 655 275 655 281 652 c 1,29,-1
 293 689 l 1,30,31
 287 692 287 692 276.5 695 c 128,-1,32
 266 698 266 698 253.5 700 c 128,-1,33
 241 702 241 702 227 702 c 0,34,35
 191 702 191 702 168 685 c 128,-1,36
 145 668 145 668 133.5 636.5 c 128,-1,37
 122 605 122 605 122 563 c 2,38,-1
 122 470 l 1,39,-1
 49 470 l 1,0,-1
EndSplineSet
EndChar

StartChar: oe
Encoding: 339 339 106
Width: 758
Flags: W
LayerCount: 2
Fore
SplineSet
718 242 m 1,0,-1
 369 242 l 1,1,2
 370 184 370 184 387.5 135.5 c 128,-1,3
 405 87 405 87 442.5 57.5 c 128,-1,4
 480 28 480 28 540 28 c 0,5,6
 593 28 593 28 625.5 38.5 c 128,-1,7
 658 49 658 49 683 62 c 1,8,-1
 703 25 l 1,9,10
 683 13 683 13 654 4.5 c 128,-1,11
 625 -4 625 -4 596.5 -8.5 c 128,-1,12
 568 -13 568 -13 548 -13 c 0,13,14
 504 -13 504 -13 469 -2.5 c 128,-1,15
 434 8 434 8 407 27 c 1,16,17
 387 15 387 15 365 6 c 128,-1,18
 343 -3 343 -3 317 -8 c 128,-1,19
 291 -13 291 -13 259 -13 c 0,20,21
 188 -13 188 -13 139 20 c 128,-1,22
 90 53 90 53 65 111.5 c 128,-1,23
 40 170 40 170 40 245 c 0,24,25
 40 318 40 318 66.5 375 c 128,-1,26
 93 432 93 432 144 465 c 128,-1,27
 195 498 195 498 266 498 c 0,28,29
 294 498 294 498 318.5 493.5 c 128,-1,30
 343 489 343 489 365 480.5 c 128,-1,31
 387 472 387 472 406 461 c 1,32,33
 430 478 430 478 461 488 c 128,-1,34
 492 498 492 498 530 498 c 0,35,36
 586 498 586 498 628.5 464.5 c 128,-1,37
 671 431 671 431 694.5 374 c 128,-1,38
 718 317 718 317 718 245 c 2,39,-1
 718 242 l 1,0,-1
371 279 m 1,40,-1
 666 279 l 1,41,42
 662 327 662 327 646.5 367.5 c 128,-1,43
 631 408 631 408 601 432.5 c 128,-1,44
 571 457 571 457 523 457 c 256,45,46
 475 457 475 457 443 432.5 c 128,-1,47
 411 408 411 408 393.5 367.5 c 128,-1,48
 376 327 376 327 371 279 c 1,40,-1
91 246 m 0,49,50
 91 187 91 187 110.5 137 c 128,-1,51
 130 87 130 87 167.5 57.5 c 128,-1,52
 205 28 205 28 259 28 c 0,53,54
 303 28 303 28 328.5 36.5 c 128,-1,55
 354 45 354 45 376 56 c 1,56,57
 347 91 347 91 332.5 139 c 128,-1,58
 318 187 318 187 318 245 c 0,59,60
 318 302 318 302 332.5 350 c 128,-1,61
 347 398 347 398 375 432 c 1,62,63
 354 442 354 442 328 449.5 c 128,-1,64
 302 457 302 457 264 457 c 0,65,66
 211 457 211 457 172 428 c 128,-1,67
 133 399 133 399 112 351 c 128,-1,68
 91 303 91 303 91 246 c 0,49,50
EndSplineSet
EndChar

StartChar: lacute
Encoding: 314 314 107
Width: 966
Flags: W
LayerCount: 2
Fore
SplineSet
812 723 m 0,0,1
 812 774 812 774 772 804.5 c 128,-1,2
 732 835 732 835 670 835 c 0,3,4
 613 835 613 835 569 814 c 128,-1,5
 525 793 525 793 500.5 755.5 c 128,-1,6
 476 718 476 718 476 668 c 0,7,8
 476 634 476 634 492.5 611.5 c 128,-1,9
 509 589 509 589 538 589 c 0,10,11
 564 589 564 589 581 611.5 c 128,-1,12
 598 634 598 634 598 668 c 0,13,14
 598 717 598 717 578.5 754.5 c 128,-1,15
 559 792 559 792 524.5 813.5 c 128,-1,16
 490 835 490 835 446 835 c 0,17,18
 400 835 400 835 364 814 c 128,-1,19
 328 793 328 793 307.5 756.5 c 128,-1,20
 287 720 287 720 287 672 c 0,21,22
 287 626 287 626 304.5 590 c 128,-1,23
 322 554 322 554 352.5 533.5 c 128,-1,24
 383 513 383 513 421 513 c 1,25,-1
 421 478 l 1,26,27
 369 478 369 478 328 503 c 128,-1,28
 287 528 287 528 263.5 572 c 128,-1,29
 240 616 240 616 240 672 c 0,30,31
 240 732 240 732 266.5 778.5 c 128,-1,32
 293 825 293 825 339.5 851.5 c 128,-1,33
 386 878 386 878 446 878 c 0,34,35
 504 878 504 878 549 850.5 c 128,-1,36
 594 823 594 823 619.5 776 c 128,-1,37
 645 729 645 729 645 668 c 0,38,39
 645 635 645 635 631.5 607 c 128,-1,40
 618 579 618 579 594 562.5 c 128,-1,41
 570 546 570 546 538 546 c 0,42,43
 504 546 504 546 479.5 562.5 c 128,-1,44
 455 579 455 579 442 607 c 128,-1,45
 429 635 429 635 429 668 c 0,46,47
 429 713 429 713 447 751.5 c 128,-1,48
 465 790 465 790 497 818.5 c 128,-1,49
 529 847 529 847 573.5 862.5 c 128,-1,50
 618 878 618 878 670 878 c 0,51,52
 725 878 725 878 768 858 c 128,-1,53
 811 838 811 838 835.5 803 c 128,-1,54
 860 768 860 768 860 723 c 0,55,56
 860 684 860 684 843 652 c 128,-1,57
 826 620 826 620 794 599 c 1,58,-1
 966 599 l 1,59,-1
 966 564 l 1,60,-1
 676 564 l 1,61,-1
 676 599 l 1,62,63
 743 599 743 599 777.5 634.5 c 128,-1,64
 812 670 812 670 812 723 c 0,0,1
514 343 m 0,65,66
 568 343 568 343 603.5 315 c 128,-1,67
 639 287 639 287 656.5 237.5 c 128,-1,68
 674 188 674 188 674 123 c 0,69,70
 674 45 674 45 643.5 -20.5 c 128,-1,71
 613 -86 613 -86 551.5 -125 c 128,-1,72
 490 -164 490 -164 397 -164 c 2,73,-1
 300 -164 l 2,74,75
 242 -164 242 -164 199 -186 c 128,-1,76
 156 -208 156 -208 134 -243 c 1,77,-1
 100 -222 l 1,78,79
 124 -181 124 -181 178.5 -155 c 128,-1,80
 233 -129 233 -129 300 -129 c 2,81,-1
 397 -129 l 2,82,83
 475 -129 475 -129 526 -94 c 128,-1,84
 577 -59 577 -59 602 -1.5 c 128,-1,85
 627 56 627 56 627 125 c 0,86,87
 627 204 627 204 599 252.5 c 128,-1,88
 571 301 571 301 511 301 c 0,89,90
 456 301 456 301 421 263 c 128,-1,91
 386 225 386 225 386 166 c 2,92,-1
 386 0 l 1,93,-1
 342 0 l 1,94,-1
 342 478 l 1,95,-1
 144 478 l 1,96,-1
 144 0 l 1,97,-1
 100 0 l 1,98,-1
 100 513 l 1,99,-1
 582 513 l 1,100,-1
 587 478 l 1,101,-1
 386 478 l 1,102,-1
 386 282 l 1,103,104
 409 311 409 311 441.5 327 c 128,-1,105
 474 343 474 343 514 343 c 0,65,66
EndSplineSet
EndChar

StartChar: dotlessi
Encoding: 305 305 108
Width: 948
Flags: W
LayerCount: 2
Fore
SplineSet
90 0 m 1,0,-1
 90 337 l 2,1,2
 90 406 90 406 111 449 c 128,-1,3
 132 492 132 492 168.5 511.5 c 128,-1,4
 205 531 205 531 252 531 c 0,5,6
 294 531 294 531 326 512.5 c 128,-1,7
 358 494 358 494 379 461 c 1,8,-1
 379 513 l 1,9,-1
 933 513 l 1,10,-1
 938 478 l 1,11,-1
 737 478 l 1,12,-1
 737 0 l 1,13,-1
 693 0 l 1,14,-1
 693 478 l 1,15,-1
 423 478 l 1,16,-1
 423 0 l 1,17,-1
 379 0 l 1,18,-1
 379 320 l 2,19,20
 379 394 379 394 346.5 441.5 c 128,-1,21
 314 489 314 489 252 489 c 0,22,23
 201 489 201 489 167.5 456.5 c 128,-1,24
 134 424 134 424 134 338 c 2,25,-1
 134 0 l 1,26,-1
 90 0 l 1,0,-1
EndSplineSet
EndChar

StartChar: oslash
Encoding: 248 248 109
Width: 1277
Flags: W
AnchorPoint: "Anchor-1" 596 0 basechar 0
AnchorPoint: "Anchor-0" 1305 0 basechar 0
LayerCount: 2
Fore
SplineSet
603 0 m 1,0,-1
 603 255 l 2,1,2
 603 328 603 328 573 380.5 c 128,-1,3
 543 433 543 433 490 461 c 128,-1,4
 437 489 437 489 368 489 c 0,5,6
 285 489 285 489 226.5 456.5 c 128,-1,7
 168 424 168 424 138 367 c 128,-1,8
 108 310 108 310 108 237 c 0,9,10
 108 173 108 173 136 123.5 c 128,-1,11
 164 74 164 74 216 45.5 c 128,-1,12
 268 17 268 17 339 17 c 0,13,14
 392 17 392 17 426 51 c 128,-1,15
 460 85 460 85 460 137 c 0,16,17
 460 190 460 190 426 223.5 c 128,-1,18
 392 257 392 257 339 257 c 0,19,20
 287 257 287 257 252.5 224 c 128,-1,21
 218 191 218 191 218 139 c 0,22,23
 218 86 218 86 252.5 51.5 c 128,-1,24
 287 17 287 17 339 17 c 1,25,-1
 339 -8 l 1,26,27
 292 -8 292 -8 254.5 11 c 128,-1,28
 217 30 217 30 196 63 c 128,-1,29
 175 96 175 96 175 139 c 0,30,31
 175 185 175 185 196 220 c 128,-1,32
 217 255 217 255 254.5 275.5 c 128,-1,33
 292 296 292 296 339 296 c 0,34,35
 388 296 388 296 425.5 275.5 c 128,-1,36
 463 255 463 255 485 219.5 c 128,-1,37
 507 184 507 184 507 137 c 0,38,39
 507 92 507 92 485 57 c 128,-1,40
 463 22 463 22 425.5 2 c 128,-1,41
 388 -18 388 -18 339 -18 c 0,42,43
 254 -18 254 -18 191 15 c 128,-1,44
 128 48 128 48 94 105.5 c 128,-1,45
 60 163 60 163 60 237 c 0,46,47
 60 323 60 323 96.5 389 c 128,-1,48
 133 455 133 455 202 493 c 128,-1,49
 271 531 271 531 368 531 c 0,50,51
 454 531 454 531 519 493.5 c 128,-1,52
 584 456 584 456 618 388 c 1,53,54
 635 453 635 453 671.5 492 c 128,-1,55
 708 531 708 531 769 531 c 0,56,57
 812 531 812 531 845.5 511.5 c 128,-1,58
 879 492 879 492 898.5 449 c 128,-1,59
 918 406 918 406 918 337 c 2,60,-1
 918 210 l 2,61,62
 918 110 918 110 953 67 c 128,-1,63
 988 24 988 24 1042 24 c 0,64,65
 1103 24 1103 24 1136.5 80 c 128,-1,66
 1170 136 1170 136 1170 233 c 0,67,68
 1170 271 1170 271 1161.5 321 c 128,-1,69
 1153 371 1153 371 1135 422 c 128,-1,70
 1117 473 1117 473 1088 513 c 1,71,-1
 1133 527 l 1,72,73
 1163 478 1163 478 1181.5 425.5 c 128,-1,74
 1200 373 1200 373 1208.5 323.5 c 128,-1,75
 1217 274 1217 274 1217 235 c 0,76,77
 1217 159 1217 159 1197 102 c 128,-1,78
 1177 45 1177 45 1138 13.5 c 128,-1,79
 1099 -18 1099 -18 1042 -18 c 0,80,81
 994 -18 994 -18 956 5.5 c 128,-1,82
 918 29 918 29 896 79.5 c 128,-1,83
 874 130 874 130 874 210 c 2,84,-1
 874 338 l 2,85,86
 874 424 874 424 844 456.5 c 128,-1,87
 814 489 814 489 769 489 c 0,88,89
 726 489 726 489 699 459 c 128,-1,90
 672 429 672 429 659.5 376 c 128,-1,91
 647 323 647 323 647 255 c 2,92,-1
 647 0 l 1,93,-1
 603 0 l 1,0,-1
EndSplineSet
EndChar

StartChar: Acircumflex
Encoding: 194 194 110
Width: 0
Flags: W
AnchorPoint: "Anchor-1" 0 0 mark 0
LayerCount: 2
Fore
SplineSet
0 638 m 0,0,1
 30 638 30 638 53.5 651 c 128,-1,2
 77 664 77 664 90.5 686.5 c 128,-1,3
 104 709 104 709 104 737 c 0,4,5
 104 767 104 767 90 789.5 c 128,-1,6
 76 812 76 812 52.5 824.5 c 128,-1,7
 29 837 29 837 0 837 c 0,8,9
 -27 837 -27 837 -50.5 824.5 c 128,-1,10
 -74 812 -74 812 -89 789.5 c 128,-1,11
 -104 767 -104 767 -104 737 c 0,12,13
 -104 709 -104 709 -89.5 686.5 c 128,-1,14
 -75 664 -75 664 -51.5 651 c 128,-1,15
 -28 638 -28 638 0 638 c 0,0,1
0 675 m 0,16,17
 -26 675 -26 675 -43.5 692.5 c 128,-1,18
 -61 710 -61 710 -61 737 c 256,19,20
 -61 764 -61 764 -43.5 781.5 c 128,-1,21
 -26 799 -26 799 0 799 c 0,22,23
 27 799 27 799 44.5 781.5 c 128,-1,24
 62 764 62 764 62 737 c 256,25,26
 62 710 62 710 44.5 692.5 c 128,-1,27
 27 675 27 675 0 675 c 0,16,17
EndSplineSet
EndChar

StartChar: Atilde
Encoding: 195 195 111
Width: 670
Flags: W
LayerCount: 2
Fore
SplineSet
335 328 m 4,0,1
 364 328 364 328 387.5 340.5 c 132,-1,2
 411 353 411 353 425 375.5 c 132,-1,3
 439 398 439 398 439 427 c 260,4,5
 439 456 439 456 424.5 478.5 c 132,-1,6
 410 501 410 501 386.5 514 c 132,-1,7
 363 527 363 527 335 527 c 4,8,9
 308 527 308 527 284.5 514 c 132,-1,10
 261 501 261 501 246 478.5 c 132,-1,11
 231 456 231 456 231 427 c 260,12,13
 231 398 231 398 245.5 375.5 c 132,-1,14
 260 353 260 353 283.5 340.5 c 132,-1,15
 307 328 307 328 335 328 c 4,0,1
335 365 m 260,16,17
 308 365 308 365 290.5 382.5 c 132,-1,18
 273 400 273 400 273 427 c 260,19,20
 273 454 273 454 290.5 471.5 c 132,-1,21
 308 489 308 489 335 489 c 260,22,23
 362 489 362 489 379.5 471.5 c 132,-1,24
 397 454 397 454 397 427 c 260,25,26
 397 400 397 400 379.5 382.5 c 132,-1,27
 362 365 362 365 335 365 c 260,16,17
164 -14 m 0,28,29
 193 -14 193 -14 216.5 -1 c 128,-1,30
 240 12 240 12 254 34.5 c 128,-1,31
 268 57 268 57 268 86 c 256,32,33
 268 115 268 115 253.5 137.5 c 128,-1,34
 239 160 239 160 215.5 172.5 c 128,-1,35
 192 185 192 185 164 185 c 0,36,37
 137 185 137 185 113.5 172.5 c 128,-1,38
 90 160 90 160 75 137.5 c 128,-1,39
 60 115 60 115 60 86 c 256,40,41
 60 57 60 57 74.5 34.5 c 128,-1,42
 89 12 89 12 112.5 -1 c 128,-1,43
 136 -14 136 -14 164 -14 c 0,28,29
506 -14 m 0,44,45
 535 -14 535 -14 558.5 -1 c 128,-1,46
 582 12 582 12 596 34.5 c 128,-1,47
 610 57 610 57 610 86 c 256,48,49
 610 115 610 115 595.5 137.5 c 128,-1,50
 581 160 581 160 557.5 172.5 c 128,-1,51
 534 185 534 185 506 185 c 0,52,53
 479 185 479 185 455.5 172.5 c 128,-1,54
 432 160 432 160 417 137.5 c 128,-1,55
 402 115 402 115 402 86 c 256,56,57
 402 57 402 57 416.5 34.5 c 128,-1,58
 431 12 431 12 454.5 -1 c 128,-1,59
 478 -14 478 -14 506 -14 c 0,44,45
164 23 m 256,60,61
 137 23 137 23 119.5 41 c 128,-1,62
 102 59 102 59 102 86 c 256,63,64
 102 113 102 113 119.5 131 c 128,-1,65
 137 149 137 149 164 149 c 256,66,67
 191 149 191 149 208.5 131 c 128,-1,68
 226 113 226 113 226 86 c 256,69,70
 226 59 226 59 208.5 41 c 128,-1,71
 191 23 191 23 164 23 c 256,60,61
506 23 m 256,72,73
 479 23 479 23 461.5 41 c 128,-1,74
 444 59 444 59 444 86 c 256,75,76
 444 113 444 113 461.5 130.5 c 128,-1,77
 479 148 479 148 506 148 c 256,78,79
 533 148 533 148 550.5 130.5 c 128,-1,80
 568 113 568 113 568 86 c 256,81,82
 568 59 568 59 550.5 41 c 128,-1,83
 533 23 533 23 506 23 c 256,72,73
EndSplineSet
EndChar

StartChar: Aring
Encoding: 197 197 112
Width: 1055
Flags: W
LayerCount: 2
Fore
SplineSet
955 -126 m 1,0,-1
 955 513 l 1,1,-1
 911 513 l 1,2,-1
 911 -126 l 1,3,-1
 955 -126 l 1,0,-1
471 531 m 0,4,5
 405 531 405 531 353 505 c 128,-1,6
 301 479 301 479 271 434.5 c 128,-1,7
 241 390 241 390 241 332 c 0,8,9
 241 283 241 283 274.5 250 c 128,-1,10
 308 217 308 217 360 216 c 0,11,12
 414 215 414 215 449 247 c 128,-1,13
 484 279 484 279 485 329 c 0,14,15
 486 377 486 377 450.5 409 c 128,-1,16
 415 441 415 441 361 441 c 0,17,18
 332 441 332 441 307 426.5 c 128,-1,19
 282 412 282 412 267.5 387 c 128,-1,20
 253 362 253 362 253 329 c 1,21,-1
 280 329 l 1,22,23
 280 362 280 362 303.5 383 c 128,-1,24
 327 404 327 404 361 404 c 0,25,26
 396 404 396 404 418.5 383 c 128,-1,27
 441 362 441 362 441 329 c 0,28,29
 441 295 441 295 418 274 c 128,-1,30
 395 253 395 253 360 254 c 0,31,32
 326 256 326 256 303 277 c 128,-1,33
 280 298 280 298 280 329 c 0,34,35
 280 378 280 378 304.5 413.5 c 128,-1,36
 329 449 329 449 372.5 469 c 128,-1,37
 416 489 416 489 471 489 c 0,38,39
 542 489 542 489 592 456 c 128,-1,40
 642 423 642 423 669 364.5 c 128,-1,41
 696 306 696 306 696 230 c 0,42,43
 696 133 696 133 648.5 58 c 128,-1,44
 601 -17 601 -17 518 -59.5 c 128,-1,45
 435 -102 435 -102 327 -102 c 0,46,47
 257 -102 257 -102 203 -85 c 128,-1,48
 149 -68 149 -68 118.5 -38 c 128,-1,49
 88 -8 88 -8 88 32 c 0,50,51
 88 58 88 58 102 74 c 128,-1,52
 116 90 116 90 150 90 c 2,53,-1
 911 90 l 1,54,-1
 911 125 l 1,55,-1
 146 125 l 2,56,57
 94 125 94 125 67 99 c 128,-1,58
 40 73 40 73 40 32 c 0,59,60
 40 -18 40 -18 77 -58 c 128,-1,61
 114 -98 114 -98 179 -121 c 128,-1,62
 244 -144 244 -144 327 -144 c 0,63,64
 418 -144 418 -144 494 -116.5 c 128,-1,65
 570 -89 570 -89 626 -38.5 c 128,-1,66
 682 12 682 12 713 80.5 c 128,-1,67
 744 149 744 149 744 230 c 0,68,69
 744 317 744 317 711 385 c 128,-1,70
 678 453 678 453 616.5 492 c 128,-1,71
 555 531 555 531 471 531 c 0,4,5
EndSplineSet
EndChar

StartChar: Abreve
Encoding: 258 258 113
Width: 653
Flags: W
LayerCount: 2
Fore
SplineSet
360 612 m 0,0,1
 434 612 434 612 491 579.5 c 128,-1,2
 548 547 548 547 580.5 489.5 c 128,-1,3
 613 432 613 432 613 358 c 0,4,5
 613 282 613 282 575 222.5 c 128,-1,6
 537 163 537 163 470.5 129 c 128,-1,7
 404 95 404 95 318 95 c 2,8,-1
 260 95 l 1,9,-1
 260 130 l 1,10,-1
 318 130 l 2,11,12
 391 130 391 130 446.5 159.5 c 128,-1,13
 502 189 502 189 533.5 240.5 c 128,-1,14
 565 292 565 292 565 358 c 0,15,16
 565 422 565 422 539 469.5 c 128,-1,17
 513 517 513 517 467 543.5 c 128,-1,18
 421 570 421 570 360 570 c 0,19,20
 310 570 310 570 268 555 c 128,-1,21
 226 540 226 540 195 513 c 1,22,-1
 243 513 l 2,23,24
 296 513 296 513 334.5 493 c 128,-1,25
 373 473 373 473 394.5 438 c 128,-1,26
 416 403 416 403 416 358 c 0,27,28
 416 312 416 312 395.5 276 c 128,-1,29
 375 240 375 240 339 219.5 c 128,-1,30
 303 199 303 199 257 199 c 0,31,32
 208 199 208 199 170 220.5 c 128,-1,33
 132 242 132 242 110 279.5 c 128,-1,34
 88 317 88 317 88 365 c 0,35,36
 88 397 88 397 95 425 c 128,-1,37
 102 453 102 453 115 478 c 1,38,-1
 -144 478 l 1,39,-1
 -144 513 l 1,40,-1
 138 513 l 1,41,42
 174 559 174 559 231.5 585.5 c 128,-1,43
 289 612 289 612 360 612 c 0,0,1
373 358 m 0,44,45
 373 411 373 411 338 444.5 c 128,-1,46
 303 478 303 478 243 478 c 2,47,-1
 164 478 l 1,48,49
 148 455 148 455 139.5 426.5 c 128,-1,50
 131 398 131 398 131 365 c 0,51,52
 131 310 131 310 166.5 274 c 128,-1,53
 202 238 202 238 257 238 c 0,54,55
 307 238 307 238 340 272 c 128,-1,56
 373 306 373 306 373 358 c 0,44,45
EndSplineSet
EndChar

StartChar: Amacron
Encoding: 256 256 114
Width: 0
Flags: W
AnchorPoint: "Anchor-0" 0 0 mark 0
LayerCount: 2
Fore
SplineSet
-164 878 m 0,0,1
 -100 878 -100 878 -55 852 c 128,-1,2
 -10 826 -10 826 14.5 783.5 c 128,-1,3
 39 741 39 741 39 692 c 0,4,5
 39 647 39 647 12 617.5 c 128,-1,6
 -15 588 -15 588 -56 588 c 0,7,8
 -99 588 -99 588 -127 613.5 c 128,-1,9
 -155 639 -155 639 -157 677 c 0,10,11
 -158 718 -158 718 -130.5 745 c 128,-1,12
 -103 772 -103 772 -59 772 c 0,13,14
 -17 772 -17 772 10 746 c 128,-1,15
 37 720 37 720 37 679 c 1,16,-1
 -1 680 l 1,17,18
 -1 703 -1 703 -16.5 718.5 c 128,-1,19
 -32 734 -32 734 -56 734 c 0,20,21
 -81 734 -81 734 -96.5 718.5 c 128,-1,22
 -112 703 -112 703 -112 680 c 0,23,24
 -112 656 -112 656 -96.5 640.5 c 128,-1,25
 -81 625 -81 625 -56 625 c 0,26,27
 -32 625 -32 625 -16.5 640.5 c 128,-1,28
 -1 656 -1 656 -1 680 c 0,29,30
 -1 725 -1 725 -18.5 760 c 128,-1,31
 -36 795 -36 795 -72 815 c 128,-1,32
 -108 835 -108 835 -164 835 c 0,33,34
 -215 835 -215 835 -250.5 814 c 128,-1,35
 -286 793 -286 793 -304.5 756.5 c 128,-1,36
 -323 720 -323 720 -323 672 c 0,37,38
 -323 626 -323 626 -305.5 590 c 128,-1,39
 -288 554 -288 554 -257.5 533.5 c 128,-1,40
 -227 513 -227 513 -189 513 c 1,41,-1
 -189 478 l 1,42,43
 -241 478 -241 478 -282.5 503 c 128,-1,44
 -324 528 -324 528 -347.5 572 c 128,-1,45
 -371 616 -371 616 -371 672 c 0,46,47
 -371 732 -371 732 -346.5 778.5 c 128,-1,48
 -322 825 -322 825 -275.5 851.5 c 128,-1,49
 -229 878 -229 878 -164 878 c 0,0,1
EndSplineSet
EndChar

StartChar: Ccedilla
Encoding: 199 199 115
Width: 1030
Flags: W
LayerCount: 2
Fore
SplineSet
490 531 m 0,0,1
 428 531 428 531 380 505 c 128,-1,2
 332 479 332 479 305 434.5 c 128,-1,3
 278 390 278 390 278 332 c 0,4,5
 278 283 278 283 311.5 250 c 128,-1,6
 345 217 345 217 397 216 c 0,7,8
 451 215 451 215 486 247 c 128,-1,9
 521 279 521 279 522 329 c 0,10,11
 523 377 523 377 487.5 409 c 128,-1,12
 452 441 452 441 398 441 c 0,13,14
 369 441 369 441 344 426.5 c 128,-1,15
 319 412 319 412 304.5 387 c 128,-1,16
 290 362 290 362 290 329 c 1,17,-1
 317 329 l 1,18,19
 317 362 317 362 340.5 383 c 128,-1,20
 364 404 364 404 398 404 c 0,21,22
 433 404 433 404 455.5 383 c 128,-1,23
 478 362 478 362 478 329 c 0,24,25
 478 295 478 295 455 274 c 128,-1,26
 432 253 432 253 397 254 c 0,27,28
 363 256 363 256 340 277 c 128,-1,29
 317 298 317 298 317 329 c 0,30,31
 317 402 317 402 365.5 445.5 c 128,-1,32
 414 489 414 489 490 489 c 0,33,34
 578 489 578 489 619.5 441.5 c 128,-1,35
 661 394 661 394 661 320 c 0,36,37
 661 263 661 263 632 198.5 c 128,-1,38
 603 134 603 134 554 71 c 128,-1,39
 505 8 505 8 443 -43 c 128,-1,40
 381 -94 381 -94 314 -125 c 128,-1,41
 247 -156 247 -156 183 -156 c 0,42,43
 133 -156 133 -156 110.5 -139.5 c 128,-1,44
 88 -123 88 -123 88 -95 c 0,45,46
 88 -50 88 -50 117 -12.5 c 128,-1,47
 146 25 146 25 196 52.5 c 128,-1,48
 246 80 246 80 310 95 c 128,-1,49
 374 110 374 110 444 110 c 0,50,51
 505 110 505 110 560.5 95 c 128,-1,52
 616 80 616 80 660 52.5 c 128,-1,53
 704 25 704 25 729.5 -12.5 c 128,-1,54
 755 -50 755 -50 755 -95 c 0,55,56
 755 -123 755 -123 732.5 -139.5 c 128,-1,57
 710 -156 710 -156 659 -156 c 0,58,59
 585 -156 585 -156 514 -130 c 128,-1,60
 443 -104 443 -104 381 -57 c 128,-1,61
 319 -10 319 -10 272.5 53.5 c 128,-1,62
 226 117 226 117 199.5 192 c 128,-1,63
 173 267 173 267 173 349 c 0,64,65
 173 452 173 452 220 523 c 128,-1,66
 267 594 267 594 350.5 631.5 c 128,-1,67
 434 669 434 669 542 669 c 0,68,69
 643 669 643 669 720.5 630.5 c 128,-1,70
 798 592 798 592 842 522 c 128,-1,71
 886 452 886 452 886 356 c 2,72,-1
 886 -148 l 1,73,-1
 930 -148 l 1,74,-1
 930 358 l 2,75,76
 930 438 930 438 901.5 503 c 128,-1,77
 873 568 873 568 820.5 614.5 c 128,-1,78
 768 661 768 661 697 686 c 128,-1,79
 626 711 626 711 542 711 c 0,80,81
 451 711 451 711 375 686.5 c 128,-1,82
 299 662 299 662 243 615.5 c 128,-1,83
 187 569 187 569 156.5 502 c 128,-1,84
 126 435 126 435 126 349 c 256,85,86
 126 263 126 263 155 182.5 c 128,-1,87
 184 102 184 102 235 33 c 128,-1,88
 286 -36 286 -36 353.5 -88 c 128,-1,89
 421 -140 421 -140 499 -169 c 128,-1,90
 577 -198 577 -198 659 -198 c 0,91,92
 729 -198 729 -198 765.5 -169 c 128,-1,93
 802 -140 802 -140 802 -95 c 0,94,95
 802 -41 802 -41 773 4 c 128,-1,96
 744 49 744 49 694 82.5 c 128,-1,97
 644 116 644 116 579.5 134 c 128,-1,98
 515 152 515 152 444 152 c 0,99,100
 363 152 363 152 290.5 134 c 128,-1,101
 218 116 218 116 161.5 82.5 c 128,-1,102
 105 49 105 49 72.5 4 c 128,-1,103
 40 -41 40 -41 40 -95 c 0,104,105
 40 -140 40 -140 76.5 -169 c 128,-1,106
 113 -198 113 -198 183 -198 c 0,107,108
 242 -198 242 -198 304 -174.5 c 128,-1,109
 366 -151 366 -151 424.5 -110.5 c 128,-1,110
 483 -70 483 -70 534.5 -18 c 128,-1,111
 586 34 586 34 625.5 92.5 c 128,-1,112
 665 151 665 151 687 209.5 c 128,-1,113
 709 268 709 268 709 320 c 0,114,115
 709 381 709 381 684.5 428.5 c 128,-1,116
 660 476 660 476 611.5 503.5 c 128,-1,117
 563 531 563 531 490 531 c 0,0,1
EndSplineSet
EndChar

StartChar: Cacute
Encoding: 262 262 116
Width: 783
Flags: W
LayerCount: 2
Fore
SplineSet
683 345 m 2,0,-1
 683 0 l 1,1,-1
 639 0 l 1,2,-1
 639 345 l 2,3,4
 639 439 639 439 607.5 503 c 128,-1,5
 576 567 576 567 517.5 600 c 128,-1,6
 459 633 459 633 379 633 c 0,7,8
 296 633 296 633 235 594 c 128,-1,9
 174 555 174 555 141 486 c 128,-1,10
 108 417 108 417 108 327 c 256,11,12
 108 237 108 237 138 167 c 128,-1,13
 168 97 168 97 220 57 c 128,-1,14
 272 17 272 17 339 17 c 0,15,16
 392 17 392 17 426 51 c 128,-1,17
 460 85 460 85 460 137 c 0,18,19
 460 190 460 190 426 223.5 c 128,-1,20
 392 257 392 257 339 257 c 0,21,22
 287 257 287 257 252.5 224 c 128,-1,23
 218 191 218 191 218 139 c 0,24,25
 218 86 218 86 252.5 51.5 c 128,-1,26
 287 17 287 17 339 17 c 1,27,-1
 339 -8 l 1,28,29
 292 -8 292 -8 254.5 11 c 128,-1,30
 217 30 217 30 196 63 c 128,-1,31
 175 96 175 96 175 139 c 0,32,33
 175 185 175 185 196 220 c 128,-1,34
 217 255 217 255 254.5 275.5 c 128,-1,35
 292 296 292 296 339 296 c 0,36,37
 388 296 388 296 425.5 275.5 c 128,-1,38
 463 255 463 255 485 219.5 c 128,-1,39
 507 184 507 184 507 137 c 0,40,41
 507 92 507 92 485 57 c 128,-1,42
 463 22 463 22 425.5 2 c 128,-1,43
 388 -18 388 -18 339 -18 c 0,44,45
 258 -18 258 -18 195 26.5 c 128,-1,46
 132 71 132 71 96 149 c 128,-1,47
 60 227 60 227 60 327 c 0,48,49
 60 428 60 428 99.5 506.5 c 128,-1,50
 139 585 139 585 210.5 630 c 128,-1,51
 282 675 282 675 379 675 c 0,52,53
 472 675 472 675 540 636 c 128,-1,54
 608 597 608 597 645.5 523.5 c 128,-1,55
 683 450 683 450 683 345 c 2,0,-1
EndSplineSet
EndChar

StartChar: Egrave
Encoding: 200 200 118
Width: 741
Flags: W
LayerCount: 2
Fore
SplineSet
100 0 m 1,0,-1
 100 513 l 1,1,-1
 726 513 l 1,2,-1
 731 478 l 1,3,-1
 476 478 l 1,4,-1
 476 0 l 1,5,-1
 432 0 l 1,6,-1
 432 478 l 1,7,-1
 144 478 l 1,8,-1
 144 0 l 1,9,-1
 100 0 l 1,0,-1
288 199 m 256,10,11
 304 199 304 199 313.5 209 c 128,-1,12
 323 219 323 219 323 233 c 256,13,14
 323 247 323 247 312.5 257 c 128,-1,15
 302 267 302 267 288 267 c 0,16,17
 272 267 272 267 263 257 c 128,-1,18
 254 247 254 247 254 233 c 256,19,20
 254 219 254 219 263 209 c 128,-1,21
 272 199 272 199 288 199 c 256,10,11
620 199 m 0,22,23
 636 199 636 199 645.5 209 c 128,-1,24
 655 219 655 219 655 233 c 256,25,26
 655 247 655 247 644.5 257 c 128,-1,27
 634 267 634 267 620 267 c 0,28,29
 605 267 605 267 595.5 257 c 128,-1,30
 586 247 586 247 586 233 c 256,31,32
 586 219 586 219 595.5 209 c 128,-1,33
 605 199 605 199 620 199 c 0,22,23
EndSplineSet
EndChar

StartChar: Eacute
Encoding: 201 201 119
Width: 964
Flags: W
LayerCount: 2
Fore
SplineSet
954 0 m 1,0,-1
 75 0 l 1,1,-1
 75 35 l 1,2,-1
 954 35 l 1,3,-1
 954 0 l 1,0,-1
52 273 m 1,4,5
 52 309 52 309 71.5 341 c 128,-1,6
 91 373 91 373 125.5 392.5 c 128,-1,7
 160 412 160 412 203 412 c 0,8,9
 248 412 248 412 282.5 394 c 128,-1,10
 317 376 317 376 337 344 c 128,-1,11
 357 312 357 312 357 271 c 0,12,13
 357 229 357 229 336.5 196 c 128,-1,14
 316 163 316 163 280 144 c 128,-1,15
 244 125 244 125 198 125 c 0,16,17
 153 125 153 125 117 144.5 c 128,-1,18
 81 164 81 164 60.5 198 c 128,-1,19
 40 232 40 232 40 275 c 0,20,21
 40 349 40 349 74.5 407 c 128,-1,22
 109 465 109 465 171.5 498 c 128,-1,23
 234 531 234 531 317 531 c 0,24,25
 396 531 396 531 457.5 497.5 c 128,-1,26
 519 464 519 464 554 406 c 128,-1,27
 589 348 589 348 589 273 c 0,28,29
 589 194 589 194 556.5 133.5 c 128,-1,30
 524 73 524 73 463 39 c 128,-1,31
 402 5 402 5 316 5 c 1,32,-1
 316 35 l 1,33,34
 383 35 383 35 433.5 66 c 128,-1,35
 484 97 484 97 512.5 150.5 c 128,-1,36
 541 204 541 204 541 273 c 0,37,38
 541 337 541 337 512.5 385.5 c 128,-1,39
 484 434 484 434 434 461.5 c 128,-1,40
 384 489 384 489 317 489 c 0,41,42
 247 489 247 489 195 461.5 c 128,-1,43
 143 434 143 434 114.5 385.5 c 128,-1,44
 86 337 86 337 86 273 c 0,45,46
 86 226 86 226 117.5 196.5 c 128,-1,47
 149 167 149 167 198 167 c 0,48,49
 246 167 246 167 277.5 196.5 c 128,-1,50
 309 226 309 226 309 271 c 0,51,52
 309 315 309 315 279 344.5 c 128,-1,53
 249 374 249 374 203 374 c 0,54,55
 152 374 152 374 119 345.5 c 128,-1,56
 86 317 86 317 86 273 c 1,57,-1
 52 273 l 1,4,5
EndSplineSet
EndChar

StartChar: Ecircumflex
Encoding: 202 202 120
Width: 1699
Flags: W
LayerCount: 2
Fore
SplineSet
75 35 m 1,0,-1
 316 35 l 2,1,2
 383 35 383 35 433.5 66 c 128,-1,3
 484 97 484 97 512.5 150.5 c 128,-1,4
 541 204 541 204 541 273 c 0,5,6
 541 337 541 337 512.5 385.5 c 128,-1,7
 484 434 484 434 434 461.5 c 128,-1,8
 384 489 384 489 317 489 c 0,9,10
 247 489 247 489 195 461.5 c 128,-1,11
 143 434 143 434 114.5 385.5 c 128,-1,12
 86 337 86 337 86 273 c 0,13,14
 86 226 86 226 117.5 196.5 c 128,-1,15
 149 167 149 167 198 167 c 0,16,17
 246 167 246 167 277.5 196.5 c 128,-1,18
 309 226 309 226 309 271 c 0,19,20
 309 315 309 315 279 344.5 c 128,-1,21
 249 374 249 374 203 374 c 0,22,23
 152 374 152 374 119 345.5 c 128,-1,24
 86 317 86 317 86 273 c 1,25,-1
 52 273 l 1,26,27
 52 309 52 309 71.5 341 c 128,-1,28
 91 373 91 373 125.5 392.5 c 128,-1,29
 160 412 160 412 203 412 c 0,30,31
 248 412 248 412 282.5 394 c 128,-1,32
 317 376 317 376 337 344 c 128,-1,33
 357 312 357 312 357 271 c 0,34,35
 357 229 357 229 336.5 196 c 128,-1,36
 316 163 316 163 280 144 c 128,-1,37
 244 125 244 125 198 125 c 0,38,39
 153 125 153 125 117 144.5 c 128,-1,40
 81 164 81 164 60.5 198 c 128,-1,41
 40 232 40 232 40 275 c 0,42,43
 40 349 40 349 74.5 407 c 128,-1,44
 109 465 109 465 171.5 498 c 128,-1,45
 234 531 234 531 317 531 c 0,46,47
 396 531 396 531 457.5 497.5 c 128,-1,48
 519 464 519 464 554 406 c 128,-1,49
 589 348 589 348 589 273 c 0,50,51
 589 191 589 191 554.5 129 c 128,-1,52
 520 67 520 67 456 35 c 1,53,-1
 1689 35 l 1,54,-1
 1689 0 l 1,55,-1
 75 0 l 1,56,-1
 75 35 l 1,0,-1
731 284 m 0,57,58
 731 237 731 237 751 197 c 128,-1,59
 771 157 771 157 813.5 133.5 c 128,-1,60
 856 110 856 110 923 110 c 0,61,62
 966 110 966 110 993 137.5 c 128,-1,63
 1020 165 1020 165 1020 208 c 256,64,65
 1020 251 1020 251 993 278.5 c 128,-1,66
 966 306 966 306 923 306 c 256,67,68
 880 306 880 306 853 279 c 128,-1,69
 826 252 826 252 826 210 c 0,70,71
 826 167 826 167 853 138.5 c 128,-1,72
 880 110 880 110 923 110 c 1,73,-1
 923 84 l 1,74,75
 862 84 862 84 822.5 119.5 c 128,-1,76
 783 155 783 155 783 210 c 0,77,78
 783 269 783 269 822.5 307 c 128,-1,79
 862 345 862 345 923 345 c 0,80,81
 985 345 985 345 1024.5 306 c 128,-1,82
 1064 267 1064 267 1064 208 c 0,83,84
 1064 170 1064 170 1046 139.5 c 128,-1,85
 1028 109 1028 109 996 92 c 128,-1,86
 964 75 964 75 923 75 c 0,87,88
 844 75 844 75 790.5 104 c 128,-1,89
 737 133 737 133 710.5 180.5 c 128,-1,90
 684 228 684 228 684 284 c 0,91,92
 684 356 684 356 717 411 c 128,-1,93
 750 466 750 466 809 497.5 c 128,-1,94
 868 529 868 529 945 529 c 0,95,96
 1018 529 1018 529 1074.5 496.5 c 128,-1,97
 1131 464 1131 464 1163 409 c 1,98,-1
 1163 513 l 1,99,-1
 1639 513 l 1,100,-1
 1644 478 l 1,101,-1
 1477 478 l 1,102,-1
 1477 90 l 1,103,-1
 1433 90 l 1,104,-1
 1433 478 l 1,105,-1
 1207 478 l 1,106,-1
 1207 90 l 1,107,-1
 1163 90 l 1,108,-1
 1163 268 l 2,109,110
 1163 332 1163 332 1135 381 c 128,-1,111
 1107 430 1107 430 1057.5 458.5 c 128,-1,112
 1008 487 1008 487 945 487 c 256,113,114
 882 487 882 487 833.5 460.5 c 128,-1,115
 785 434 785 434 758 388.5 c 128,-1,116
 731 343 731 343 731 284 c 0,57,58
EndSplineSet
EndChar

StartChar: Icircumflex
Encoding: 206 206 121
Width: 839
Flags: W
LayerCount: 2
Fore
SplineSet
628 478 m 1,0,-1
 628 0 l 1,1,-1
 584 0 l 1,2,-1
 584 478 l 1,3,-1
 469 478 l 1,4,-1
 468 513 l 1,5,-1
 824 513 l 1,6,-1
 829 478 l 1,7,-1
 628 478 l 1,0,-1
108 237 m 0,8,9
 108 173 108 173 136 123.5 c 128,-1,10
 164 74 164 74 216 45.5 c 128,-1,11
 268 17 268 17 339 17 c 0,12,13
 392 17 392 17 426 51 c 128,-1,14
 460 85 460 85 460 137 c 0,15,16
 460 190 460 190 426 223.5 c 128,-1,17
 392 257 392 257 339 257 c 0,18,19
 287 257 287 257 252.5 224 c 128,-1,20
 218 191 218 191 218 139 c 0,21,22
 218 86 218 86 252.5 51.5 c 128,-1,23
 287 17 287 17 339 17 c 1,24,-1
 339 -8 l 1,25,26
 292 -8 292 -8 254.5 11 c 128,-1,27
 217 30 217 30 196 63 c 128,-1,28
 175 96 175 96 175 139 c 0,29,30
 175 185 175 185 196 220 c 128,-1,31
 217 255 217 255 254.5 275.5 c 128,-1,32
 292 296 292 296 339 296 c 0,33,34
 388 296 388 296 425.5 275.5 c 128,-1,35
 463 255 463 255 485 219.5 c 128,-1,36
 507 184 507 184 507 137 c 0,37,38
 507 92 507 92 485 57 c 128,-1,39
 463 22 463 22 425.5 2 c 128,-1,40
 388 -18 388 -18 339 -18 c 0,41,42
 254 -18 254 -18 191 15 c 128,-1,43
 128 48 128 48 94 105.5 c 128,-1,44
 60 163 60 163 60 237 c 0,45,46
 60 320 60 320 97 382 c 128,-1,47
 134 444 134 444 206.5 478.5 c 128,-1,48
 279 513 279 513 385 513 c 2,49,-1
 565 513 l 1,50,-1
 565 478 l 1,51,-1
 394 478 l 2,52,53
 300 478 300 478 236 448 c 128,-1,54
 172 418 172 418 140 364 c 128,-1,55
 108 310 108 310 108 237 c 0,8,9
EndSplineSet
EndChar

StartChar: Idieresis
Encoding: 207 207 122
Width: 839
Flags: W
LayerCount: 2
Fore
SplineSet
108 237 m 0,0,1
 108 177 108 177 132.5 129.5 c 128,-1,2
 157 82 157 82 203 53 c 1,3,4
 190 70 190 70 182.5 92 c 128,-1,5
 175 114 175 114 175 139 c 0,6,7
 175 185 175 185 196 220 c 128,-1,8
 217 255 217 255 254.5 275.5 c 128,-1,9
 292 296 292 296 339 296 c 0,10,11
 388 296 388 296 425.5 275.5 c 128,-1,12
 463 255 463 255 485 219.5 c 128,-1,13
 507 184 507 184 507 137 c 0,14,15
 507 92 507 92 485 57 c 128,-1,16
 463 22 463 22 425.5 2 c 128,-1,17
 388 -18 388 -18 339 -18 c 0,18,19
 254 -18 254 -18 191 15 c 128,-1,20
 128 48 128 48 94 105.5 c 128,-1,21
 60 163 60 163 60 237 c 0,22,23
 60 320 60 320 97 382 c 128,-1,24
 134 444 134 444 206.5 478.5 c 128,-1,25
 279 513 279 513 385 513 c 2,26,-1
 824 513 l 1,27,-1
 829 478 l 1,28,-1
 628 478 l 1,29,-1
 628 26 l 2,30,31
 628 -13 628 -13 624 -39.5 c 128,-1,32
 620 -66 620 -66 605.5 -84 c 128,-1,33
 591 -102 591 -102 560 -115 c 2,34,-1
 243 -250 l 1,35,-1
 222 -215 l 1,36,-1
 520 -86 l 2,37,38
 546 -75 546 -75 560 -62.5 c 128,-1,39
 574 -50 574 -50 579 -31 c 128,-1,40
 584 -12 584 -12 584 20 c 2,41,-1
 584 478 l 1,42,-1
 394 478 l 2,43,44
 300 478 300 478 236 448 c 128,-1,45
 172 418 172 418 140 364 c 128,-1,46
 108 310 108 310 108 237 c 0,0,1
218 139 m 0,47,48
 218 86 218 86 252.5 51.5 c 128,-1,49
 287 17 287 17 339 17 c 0,50,51
 392 17 392 17 426 51 c 128,-1,52
 460 85 460 85 460 137 c 0,53,54
 460 190 460 190 426 223.5 c 128,-1,55
 392 257 392 257 339 257 c 0,56,57
 287 257 287 257 252.5 224 c 128,-1,58
 218 191 218 191 218 139 c 0,47,48
EndSplineSet
EndChar

StartChar: Imacron
Encoding: 298 298 123
Width: 790
Flags: W
LayerCount: 2
Fore
SplineSet
740 252 m 1,0,-1
 696 257 l 1,1,-1
 696 513 l 1,2,-1
 740 513 l 1,3,-1
 740 252 l 1,0,-1
453 205 m 2,4,5
 453 132 453 132 425 82 c 128,-1,6
 397 32 397 32 348 7 c 128,-1,7
 299 -18 299 -18 236 -18 c 0,8,9
 180 -18 180 -18 138 2 c 128,-1,10
 96 22 96 22 73 57 c 128,-1,11
 50 92 50 92 50 136 c 0,12,13
 50 201 50 201 96 244 c 128,-1,14
 142 287 142 287 225 287 c 2,15,-1
 736 287 l 1,16,-1
 740 252 l 1,17,-1
 226 252 l 2,18,19
 164 252 164 252 131 219 c 128,-1,20
 98 186 98 186 98 135 c 0,21,22
 98 85 98 85 134.5 54.5 c 128,-1,23
 171 24 171 24 236 24 c 0,24,25
 286 24 286 24 325 44 c 128,-1,26
 364 64 364 64 386.5 104.5 c 128,-1,27
 409 145 409 145 409 205 c 2,28,-1
 409 478 l 1,29,-1
 211 478 l 1,30,-1
 211 263 l 1,31,-1
 167 263 l 1,32,-1
 167 513 l 1,33,-1
 622 513 l 1,34,-1
 627 478 l 1,35,-1
 453 478 l 1,36,-1
 453 205 l 2,4,5
EndSplineSet
EndChar

StartChar: Iogonek
Encoding: 302 302 124
Width: 1055
Flags: W
LayerCount: 2
Fore
SplineSet
955 -126 m 1,0,-1
 955 513 l 1,1,-1
 911 513 l 1,2,-1
 911 -126 l 1,3,-1
 955 -126 l 1,0,-1
911 90 m 1,4,-1
 717 90 l 1,5,6
 689 20 689 20 632.5 -33 c 128,-1,7
 576 -86 576 -86 498 -115 c 128,-1,8
 420 -144 420 -144 327 -144 c 0,9,10
 244 -144 244 -144 179 -121 c 128,-1,11
 114 -98 114 -98 77 -58.5 c 128,-1,12
 40 -19 40 -19 40 31 c 0,13,14
 40 72 40 72 67 98.5 c 128,-1,15
 94 125 94 125 146 125 c 2,16,-1
 336 125 l 1,17,18
 290 153 290 153 263 200 c 128,-1,19
 236 247 236 247 236 305 c 0,20,21
 236 371 236 371 266.5 422 c 128,-1,22
 297 473 297 473 350 502 c 128,-1,23
 403 531 403 531 471 531 c 0,24,25
 534 531 534 531 584.5 508.5 c 128,-1,26
 635 486 635 486 670.5 445.5 c 128,-1,27
 706 405 706 405 725 350 c 128,-1,28
 744 295 744 295 744 230 c 0,29,30
 744 202 744 202 740.5 176 c 128,-1,31
 737 150 737 150 729 125 c 1,32,-1
 911 125 l 1,33,-1
 911 90 l 1,4,-1
284 305 m 0,34,35
 284 253 284 253 307.5 212.5 c 128,-1,36
 331 172 331 172 372 148.5 c 128,-1,37
 413 125 413 125 466 125 c 2,38,-1
 680 125 l 1,39,40
 688 149 688 149 692 175.5 c 128,-1,41
 696 202 696 202 696 230 c 0,42,43
 696 306 696 306 669 364.5 c 128,-1,44
 642 423 642 423 592 456 c 128,-1,45
 542 489 542 489 471 489 c 0,46,47
 417 489 417 489 374.5 465 c 128,-1,48
 332 441 332 441 308 399.5 c 128,-1,49
 284 358 284 358 284 305 c 0,34,35
327 -102 m 0,50,51
 447 -102 447 -102 536.5 -50 c 128,-1,52
 626 2 626 2 666 90 c 1,53,-1
 150 90 l 2,54,55
 116 90 116 90 102 73.5 c 128,-1,56
 88 57 88 57 88 31 c 0,57,58
 88 -8 88 -8 118.5 -38 c 128,-1,59
 149 -68 149 -68 203 -85 c 128,-1,60
 257 -102 257 -102 327 -102 c 0,50,51
EndSplineSet
EndChar

StartChar: Idotaccent
Encoding: 304 304 125
Width: 764
Flags: W
LayerCount: 2
Fore
SplineSet
619 527 m 1,0,1
 649 478 649 478 667.5 425.5 c 128,-1,2
 686 373 686 373 695 323.5 c 128,-1,3
 704 274 704 274 704 235 c 0,4,5
 704 159 704 159 683.5 102 c 128,-1,6
 663 45 663 45 624 13.5 c 128,-1,7
 585 -18 585 -18 528 -18 c 0,8,9
 479 -18 479 -18 441 5.5 c 128,-1,10
 403 29 403 29 382 80 c 1,11,12
 360 29 360 29 322 5.5 c 128,-1,13
 284 -18 284 -18 236 -18 c 0,14,15
 179 -18 179 -18 139.5 13.5 c 128,-1,16
 100 45 100 45 80 102 c 128,-1,17
 60 159 60 159 60 235 c 0,18,19
 60 274 60 274 68.5 323.5 c 128,-1,20
 77 373 77 373 96 425.5 c 128,-1,21
 115 478 115 478 145 527 c 1,22,-1
 190 513 l 1,23,24
 162 473 162 473 143.5 422 c 128,-1,25
 125 371 125 371 116.5 321 c 128,-1,26
 108 271 108 271 108 233 c 0,27,28
 108 136 108 136 141.5 80 c 128,-1,29
 175 24 175 24 236 24 c 0,30,31
 290 24 290 24 325 67 c 128,-1,32
 360 110 360 110 360 210 c 2,33,-1
 360 338 l 1,34,-1
 404 338 l 1,35,-1
 404 210 l 2,36,37
 404 110 404 110 439 67 c 128,-1,38
 474 24 474 24 528 24 c 0,39,40
 589 24 589 24 622.5 80 c 128,-1,41
 656 136 656 136 656 233 c 0,42,43
 656 271 656 271 647.5 321 c 128,-1,44
 639 371 639 371 621 422 c 128,-1,45
 603 473 603 473 574 513 c 1,46,-1
 619 527 l 1,0,1
EndSplineSet
EndChar

StartChar: Lacute
Encoding: 313 313 126
Width: 1045
Flags: W
LayerCount: 2
Fore
SplineSet
419 0 m 1,0,-1
 375 0 l 1,1,-1
 375 513 l 1,2,-1
 894 513 l 1,3,-1
 898 478 l 1,4,-1
 697 478 l 1,5,-1
 697 282 l 1,6,7
 719 311 719 311 752 327 c 128,-1,8
 785 343 785 343 825 343 c 0,9,10
 876 343 876 343 912 314.5 c 128,-1,11
 948 286 948 286 966.5 236.5 c 128,-1,12
 985 187 985 187 985 123 c 0,13,14
 985 43 985 43 956 -24.5 c 128,-1,15
 927 -92 927 -92 873 -141.5 c 128,-1,16
 819 -191 819 -191 743 -218.5 c 128,-1,17
 667 -246 667 -246 573 -246 c 0,18,19
 455 -246 455 -246 363.5 -208 c 128,-1,20
 272 -170 272 -170 209 -100.5 c 128,-1,21
 146 -31 146 -31 113 63 c 128,-1,22
 80 157 80 157 80 269 c 0,23,24
 80 408 80 408 117 520 c 128,-1,25
 154 632 154 632 221.5 712 c 128,-1,26
 289 792 289 792 380.5 835 c 128,-1,27
 472 878 472 878 580 878 c 0,28,29
 650 878 650 878 708.5 861.5 c 128,-1,30
 767 845 767 845 810 817 c 128,-1,31
 853 789 853 789 877 755.5 c 128,-1,32
 901 722 901 722 901 687 c 0,33,34
 901 641 901 641 873.5 614.5 c 128,-1,35
 846 588 846 588 805 588 c 0,36,37
 763 588 763 588 734.5 613.5 c 128,-1,38
 706 639 706 639 705 677 c 0,39,40
 703 720 703 720 733.5 747 c 128,-1,41
 764 774 764 774 813 772 c 1,42,43
 773 802 773 802 711 818.5 c 128,-1,44
 649 835 649 835 580 835 c 0,45,46
 481 835 481 835 398.5 796 c 128,-1,47
 316 757 316 757 255 683 c 128,-1,48
 194 609 194 609 161 504 c 128,-1,49
 128 399 128 399 128 267 c 0,50,51
 128 165 128 165 157 78.5 c 128,-1,52
 186 -8 186 -8 243 -71 c 128,-1,53
 300 -134 300 -134 383 -169 c 128,-1,54
 466 -204 466 -204 573 -204 c 0,55,56
 657 -204 657 -204 724 -179.5 c 128,-1,57
 791 -155 791 -155 839 -111 c 128,-1,58
 887 -67 887 -67 912.5 -7 c 128,-1,59
 938 53 938 53 938 125 c 0,60,61
 938 176 938 176 925 215.5 c 128,-1,62
 912 255 912 255 886.5 278 c 128,-1,63
 861 301 861 301 823 301 c 0,64,65
 768 301 768 301 732.5 263 c 128,-1,66
 697 225 697 225 697 166 c 2,67,-1
 697 0 l 1,68,-1
 653 0 l 1,69,-1
 653 478 l 1,70,-1
 419 478 l 1,71,-1
 419 0 l 1,0,-1
746 680 m 256,72,73
 746 654 746 654 763 637 c 128,-1,74
 780 620 780 620 805 620 c 0,75,76
 832 620 832 620 849 637 c 128,-1,77
 866 654 866 654 866 680 c 256,78,79
 866 706 866 706 849 722.5 c 128,-1,80
 832 739 832 739 805 739 c 0,81,82
 780 739 780 739 763 722.5 c 128,-1,83
 746 706 746 706 746 680 c 256,72,73
EndSplineSet
EndChar

StartChar: Ograve
Encoding: 210 210 127
Width: 819
Flags: W
LayerCount: 2
Fore
SplineSet
409 534 m 256,0,1
 485 534 485 534 549 515.5 c 128,-1,2
 613 497 613 497 660 463 c 128,-1,3
 707 429 707 429 733 383 c 128,-1,4
 759 337 759 337 759 282 c 0,5,6
 759 237 759 237 744 201.5 c 128,-1,7
 729 166 729 166 700.5 146 c 128,-1,8
 672 126 672 126 629 126 c 0,9,10
 594 126 594 126 566 144.5 c 128,-1,11
 538 163 538 163 522 195.5 c 128,-1,12
 506 228 506 228 506 269 c 1,13,-1
 541 269 l 1,14,15
 543 224 543 224 567.5 196 c 128,-1,16
 592 168 592 168 629 168 c 0,17,18
 673 168 673 168 692 199.5 c 128,-1,19
 711 231 711 231 711 282 c 0,20,21
 711 343 711 343 671.5 390 c 128,-1,22
 632 437 632 437 564 464 c 128,-1,23
 496 491 496 491 409 491 c 0,24,25
 321 491 321 491 252 462.5 c 128,-1,26
 183 434 183 434 143.5 384 c 128,-1,27
 104 334 104 334 104 269 c 0,28,29
 104 231 104 231 118 202 c 128,-1,30
 132 173 132 173 157.5 156.5 c 128,-1,31
 183 140 183 140 217 140 c 0,32,33
 249 140 249 140 270 161 c 128,-1,34
 291 182 291 182 292 213 c 0,35,36
 292 246 292 246 271.5 267 c 128,-1,37
 251 288 251 288 219 288 c 0,38,39
 185 288 185 288 163 267 c 128,-1,40
 141 246 141 246 141 212 c 0,41,42
 141 181 141 181 162.5 160.5 c 128,-1,43
 184 140 184 140 217 140 c 1,44,-1
 217 106 l 1,45,46
 169 106 169 106 137.5 137 c 128,-1,47
 106 168 106 168 106 215 c 0,48,49
 106 265 106 265 138.5 296.5 c 128,-1,50
 171 328 171 328 220 328 c 0,51,52
 271 328 271 328 304 295.5 c 128,-1,53
 337 263 337 263 337 213 c 0,54,55
 337 165 337 165 303.5 133.5 c 128,-1,56
 270 102 270 102 217 102 c 0,57,58
 172 102 172 102 136.5 123.5 c 128,-1,59
 101 145 101 145 80.5 183 c 128,-1,60
 60 221 60 221 60 269 c 0,61,62
 60 327 60 327 86 375.5 c 128,-1,63
 112 424 112 424 159 459.5 c 128,-1,64
 206 495 206 495 269.5 514.5 c 128,-1,65
 333 534 333 534 409 534 c 256,0,1
720 -35 m 1,66,-1
 661 -35 l 2,67,68
 575 -35 575 -35 536 9.5 c 128,-1,69
 497 54 497 54 497 133 c 2,70,-1
 497 269 l 1,71,-1
 536 269 l 1,72,-1
 536 133 l 2,73,74
 536 69 536 69 565 34.5 c 128,-1,75
 594 0 594 0 661 0 c 2,76,-1
 720 0 l 1,77,-1
 720 -35 l 1,66,-1
414 -180 m 0,78,79
 473 -180 473 -180 511 -143 c 128,-1,80
 549 -106 549 -106 549 -50 c 2,81,-1
 549 19 l 1,82,-1
 593 0 l 1,83,-1
 593 -50 l 2,84,85
 593 -99 593 -99 570 -137 c 128,-1,86
 547 -175 547 -175 506.5 -197 c 128,-1,87
 466 -219 466 -219 414 -219 c 256,88,89
 362 -219 362 -219 321.5 -197 c 128,-1,90
 281 -175 281 -175 258 -137 c 128,-1,91
 235 -99 235 -99 235 -50 c 2,92,-1
 235 0 l 1,93,-1
 279 0 l 1,94,-1
 279 -50 l 2,95,96
 279 -106 279 -106 317.5 -143 c 128,-1,97
 356 -180 356 -180 414 -180 c 0,78,79
EndSplineSet
EndChar

StartChar: Oacute
Encoding: 211 211 128
Width: 819
Flags: W
LayerCount: 2
Fore
SplineSet
720 0 m 1,0,-1
 720 -35 l 1,1,-1
 661 -35 l 2,2,3
 642 -35 642 -35 625 -32.5 c 128,-1,4
 608 -30 608 -30 593 -26 c 1,5,-1
 593 -50 l 2,6,7
 593 -99 593 -99 566.5 -137 c 128,-1,8
 540 -175 540 -175 493.5 -197 c 128,-1,9
 447 -219 447 -219 387 -219 c 0,10,11
 332 -219 332 -219 289.5 -202 c 128,-1,12
 247 -185 247 -185 222.5 -154.5 c 128,-1,13
 198 -124 198 -124 198 -86 c 0,14,15
 198 -39 198 -39 231.5 -9 c 128,-1,16
 265 21 265 21 317 21 c 2,17,-1
 338 21 l 1,18,-1
 338 -14 l 1,19,-1
 317 -14 l 2,20,21
 284 -14 284 -14 263 -34 c 128,-1,22
 242 -54 242 -54 242 -86 c 0,23,24
 242 -127 242 -127 283 -153.5 c 128,-1,25
 324 -180 324 -180 387 -180 c 0,26,27
 434 -180 434 -180 470.5 -163 c 128,-1,28
 507 -146 507 -146 528 -116.5 c 128,-1,29
 549 -87 549 -87 549 -50 c 2,30,-1
 549 -3 l 1,31,32
 522 18 522 18 509.5 52.5 c 128,-1,33
 497 87 497 87 497 133 c 2,34,-1
 497 269 l 1,35,-1
 541 269 l 1,36,37
 543 224 543 224 567.5 196 c 128,-1,38
 592 168 592 168 629 168 c 0,39,40
 673 168 673 168 692 199.5 c 128,-1,41
 711 231 711 231 711 282 c 0,42,43
 711 343 711 343 671.5 390 c 128,-1,44
 632 437 632 437 564 464 c 128,-1,45
 496 491 496 491 409 491 c 0,46,47
 312 491 312 491 240 457 c 128,-1,48
 168 423 168 423 132 365 c 128,-1,49
 96 307 96 307 107 234 c 1,50,51
 114 276 114 276 145 302 c 128,-1,52
 176 328 176 328 220 328 c 0,53,54
 271 328 271 328 304 295.5 c 128,-1,55
 337 263 337 263 337 213 c 0,56,57
 337 165 337 165 303.5 133.5 c 128,-1,58
 270 102 270 102 217 102 c 0,59,60
 172 102 172 102 136.5 123.5 c 128,-1,61
 101 145 101 145 80.5 183 c 128,-1,62
 60 221 60 221 60 269 c 0,63,64
 60 327 60 327 86 375.5 c 128,-1,65
 112 424 112 424 159 459.5 c 128,-1,66
 206 495 206 495 269.5 514.5 c 128,-1,67
 333 534 333 534 409 534 c 256,68,69
 485 534 485 534 549 515.5 c 128,-1,70
 613 497 613 497 660 463 c 128,-1,71
 707 429 707 429 733 383 c 128,-1,72
 759 337 759 337 759 282 c 0,73,74
 759 237 759 237 744 201.5 c 128,-1,75
 729 166 729 166 700.5 146 c 128,-1,76
 672 126 672 126 629 126 c 0,77,78
 601 126 601 126 577 138 c 128,-1,79
 553 150 553 150 536 172 c 1,80,-1
 536 133 l 2,81,82
 536 69 536 69 565 34.5 c 128,-1,83
 594 0 594 0 661 0 c 2,84,-1
 720 0 l 1,0,-1
141 212 m 0,85,86
 141 181 141 181 162.5 160.5 c 128,-1,87
 184 140 184 140 217 140 c 0,88,89
 249 140 249 140 270 161 c 128,-1,90
 291 182 291 182 292 213 c 0,91,92
 292 246 292 246 271.5 267 c 128,-1,93
 251 288 251 288 219 288 c 0,94,95
 185 288 185 288 163 267 c 128,-1,96
 141 246 141 246 141 212 c 0,85,86
EndSplineSet
EndChar

StartChar: Otilde
Encoding: 213 213 130
Width: 723
Flags: W
AnchorPoint: "Anchor-1" 381 0 basechar 0
AnchorPoint: "Anchor-0" 680 0 basechar 0
LayerCount: 2
Fore
SplineSet
453 205 m 2,0,1
 453 132 453 132 425 82 c 128,-1,2
 397 32 397 32 348 7 c 128,-1,3
 299 -18 299 -18 236 -18 c 0,4,5
 180 -18 180 -18 138 2 c 128,-1,6
 96 22 96 22 73 57 c 128,-1,7
 50 92 50 92 50 136 c 0,8,9
 50 201 50 201 96 244 c 128,-1,10
 142 287 142 287 225 287 c 2,11,-1
 504 287 l 2,12,13
 560 287 560 287 600 268 c 128,-1,14
 640 249 640 249 661.5 216 c 128,-1,15
 683 183 683 183 683 140 c 0,16,17
 683 95 683 95 660.5 59 c 128,-1,18
 638 23 638 23 595 2.5 c 128,-1,19
 552 -18 552 -18 492 -18 c 1,20,-1
 492 17 l 1,21,22
 563 17 563 17 599 51.5 c 128,-1,23
 635 86 635 86 635 140 c 0,24,25
 635 188 635 188 602.5 220 c 128,-1,26
 570 252 570 252 505 252 c 2,27,-1
 226 252 l 2,28,29
 164 252 164 252 131 219 c 128,-1,30
 98 186 98 186 98 135 c 0,31,32
 98 85 98 85 134.5 54.5 c 128,-1,33
 171 24 171 24 236 24 c 0,34,35
 286 24 286 24 325 44 c 128,-1,36
 364 64 364 64 386.5 104.5 c 128,-1,37
 409 145 409 145 409 205 c 2,38,-1
 409 478 l 1,39,-1
 211 478 l 1,40,-1
 211 263 l 1,41,-1
 167 263 l 1,42,-1
 167 513 l 1,43,-1
 622 513 l 1,44,-1
 627 478 l 1,45,-1
 453 478 l 1,46,-1
 453 205 l 2,0,1
EndSplineSet
EndChar

StartChar: Ugrave
Encoding: 217 217 138
Width: 948
Flags: W
AnchorPoint: "Anchor-1" 512 0 basechar 0
AnchorPoint: "Anchor-0" 995 0 basechar 0
LayerCount: 2
Fore
SplineSet
386 478 m 1,0,-1
 386 142 l 1,1,-1
 342 142 l 1,2,-1
 342 478 l 1,3,-1
 144 478 l 1,4,-1
 144 0 l 1,5,-1
 100 0 l 1,6,-1
 100 513 l 1,7,-1
 582 513 l 1,8,-1
 587 478 l 1,9,-1
 386 478 l 1,0,-1
848 513 m 1,10,-1
 848 0 l 1,11,-1
 342 0 l 1,12,-1
 342 35 l 1,13,-1
 804 35 l 1,14,-1
 804 513 l 1,15,-1
 848 513 l 1,10,-1
621 197 m 0,16,17
 621 250 621 250 592.5 286 c 128,-1,18
 564 322 564 322 511 322 c 0,19,20
 456 322 456 322 421 284 c 128,-1,21
 386 246 386 246 386 187 c 1,22,-1
 348 187 l 1,23,24
 348 239 348 239 369.5 279 c 128,-1,25
 391 319 391 319 428.5 342 c 128,-1,26
 466 365 466 365 514 365 c 0,27,28
 563 365 563 365 597.5 342.5 c 128,-1,29
 632 320 632 320 650.5 281.5 c 128,-1,30
 669 243 669 243 669 195 c 0,31,32
 669 135 669 135 643.5 92.5 c 128,-1,33
 618 50 618 50 571 27.5 c 128,-1,34
 524 5 524 5 460 5 c 1,35,-1
 460 35 l 1,36,37
 507 35 507 35 543.5 56 c 128,-1,38
 580 77 580 77 600.5 114 c 128,-1,39
 621 151 621 151 621 197 c 0,16,17
EndSplineSet
EndChar

StartChar: Uacute
Encoding: 218 218 139
Width: 667
Flags: W
AnchorPoint: "Anchor-1" 387 0 basechar 0
AnchorPoint: "Anchor-0" 675 0 basechar 0
LayerCount: 2
Fore
SplineSet
453 205 m 2,0,1
 453 132 453 132 425 82 c 128,-1,2
 397 32 397 32 348 7 c 128,-1,3
 299 -18 299 -18 236 -18 c 0,4,5
 180 -18 180 -18 138 2 c 128,-1,6
 96 22 96 22 73 57 c 128,-1,7
 50 92 50 92 50 136 c 0,8,9
 50 201 50 201 96 244 c 128,-1,10
 142 287 142 287 225 287 c 2,11,-1
 622 287 l 1,12,-1
 627 252 l 1,13,-1
 226 252 l 2,14,15
 164 252 164 252 131 219 c 128,-1,16
 98 186 98 186 98 135 c 0,17,18
 98 85 98 85 134.5 54.5 c 128,-1,19
 171 24 171 24 236 24 c 0,20,21
 286 24 286 24 325 44 c 128,-1,22
 364 64 364 64 386.5 104.5 c 128,-1,23
 409 145 409 145 409 205 c 2,24,-1
 409 478 l 1,25,-1
 211 478 l 1,26,-1
 211 263 l 1,27,-1
 167 263 l 1,28,-1
 167 513 l 1,29,-1
 622 513 l 1,30,-1
 627 478 l 1,31,-1
 453 478 l 1,32,-1
 453 205 l 2,0,1
EndSplineSet
EndChar

StartChar: Udieresis
Encoding: 220 220 140
Width: 841
Flags: W
AnchorPoint: "Anchor-1" 430 0 basechar 0
AnchorPoint: "Anchor-0" 880 0 basechar 0
LayerCount: 2
Fore
SplineSet
463 274 m 1,0,-1
 419 274 l 1,1,-1
 419 343 l 2,2,3
 419 408 419 408 377.5 448.5 c 128,-1,4
 336 489 336 489 271 489 c 0,5,6
 219 489 219 489 183 470 c 128,-1,7
 147 451 147 451 129 417.5 c 128,-1,8
 111 384 111 384 111 339 c 0,9,10
 111 314 111 314 128 297 c 128,-1,11
 145 280 145 280 170 280 c 0,12,13
 196 280 196 280 213.5 296.5 c 128,-1,14
 231 313 231 313 232 338 c 0,15,16
 232 365 232 365 215 383 c 128,-1,17
 198 401 198 401 172 401 c 0,18,19
 145 401 145 401 127.5 383 c 128,-1,20
 110 365 110 365 111 339 c 1,21,-1
 81 338 l 1,22,23
 80 382 80 382 106.5 409.5 c 128,-1,24
 133 437 133 437 173 437 c 0,25,26
 220 437 220 437 248.5 409.5 c 128,-1,27
 277 382 277 382 275 338 c 0,28,29
 274 298 274 298 244.5 271 c 128,-1,30
 215 244 215 244 170 245 c 256,31,32
 125 246 125 246 96 273 c 128,-1,33
 67 300 67 300 67 342 c 0,34,35
 67 397 67 397 93.5 439.5 c 128,-1,36
 120 482 120 482 166 506.5 c 128,-1,37
 212 531 212 531 271 531 c 0,38,39
 317 531 317 531 351.5 515 c 128,-1,40
 386 499 386 499 411.5 472.5 c 128,-1,41
 437 446 437 446 454 412 c 1,42,-1
 454 368 l 1,43,-1
 426 368 l 1,44,-1
 426 412 l 1,45,46
 452 462 452 462 495 496.5 c 128,-1,47
 538 531 538 531 605 531 c 0,48,49
 656 531 656 531 695.5 508.5 c 128,-1,50
 735 486 735 486 758 447 c 128,-1,51
 781 408 781 408 781 358 c 0,52,53
 781 296 781 296 748.5 255 c 128,-1,54
 716 214 716 214 656 190.5 c 128,-1,55
 596 167 596 167 511 156 c 2,56,-1
 330 131 l 2,57,58
 270 123 270 123 219.5 103 c 128,-1,59
 169 83 169 83 139 50 c 128,-1,60
 109 17 109 17 108 -32 c 0,61,62
 108 -90 108 -90 141 -126.5 c 128,-1,63
 174 -163 174 -163 231 -163 c 0,64,65
 271 -163 271 -163 309.5 -139.5 c 128,-1,66
 348 -116 348 -116 387 -81.5 c 128,-1,67
 426 -47 426 -47 466 -12 c 128,-1,68
 506 23 506 23 548 46.5 c 128,-1,69
 590 70 590 70 635 70 c 0,70,71
 678 70 678 70 710.5 53 c 128,-1,72
 743 36 743 36 762 5.5 c 128,-1,73
 781 -25 781 -25 781 -64 c 0,74,75
 781 -104 781 -104 759.5 -135 c 128,-1,76
 738 -166 738 -166 699.5 -184 c 128,-1,77
 661 -202 661 -202 609 -202 c 2,78,-1
 488 -202 l 1,79,-1
 488 -167 l 1,80,-1
 609 -167 l 2,81,82
 667 -167 667 -167 700 -137.5 c 128,-1,83
 733 -108 733 -108 733 -64 c 0,84,85
 733 -23 733 -23 706 2.5 c 128,-1,86
 679 28 679 28 635 28 c 0,87,88
 603 28 603 28 571.5 11 c 128,-1,89
 540 -6 540 -6 509 -32.5 c 128,-1,90
 478 -59 478 -59 445.5 -88.5 c 128,-1,91
 413 -118 413 -118 379 -144.5 c 128,-1,92
 345 -171 345 -171 308.5 -188 c 128,-1,93
 272 -205 272 -205 231 -205 c 0,94,95
 180 -205 180 -205 141.5 -182.5 c 128,-1,96
 103 -160 103 -160 81.5 -121 c 128,-1,97
 60 -82 60 -82 60 -32 c 0,98,99
 60 29 60 29 93 69.5 c 128,-1,100
 126 110 126 110 186.5 134.5 c 128,-1,101
 247 159 247 159 330 170 c 2,102,-1
 511 194 l 2,103,104
 572 202 572 202 622 222 c 128,-1,105
 672 242 672 242 702.5 276 c 128,-1,106
 733 310 733 310 733 358 c 0,107,108
 733 417 733 417 698 453 c 128,-1,109
 663 489 663 489 605 489 c 0,110,111
 564 489 564 489 532 470.5 c 128,-1,112
 500 452 500 452 481.5 419 c 128,-1,113
 463 386 463 386 463 343 c 2,114,-1
 463 274 l 1,0,-1
EndSplineSet
EndChar

StartChar: atilde
Encoding: 227 227 152
Width: 1668
Flags: W
AnchorPoint: "Anchor-1" 892 0 basechar 0
AnchorPoint: "Anchor-0" 1676 0 basechar 0
LayerCount: 2
Fore
SplineSet
1413 0 m 1,0,-1
 1413 478 l 1,1,-1
 1313 478 l 2,2,3
 1246 478 1246 478 1187.5 454.5 c 128,-1,4
 1129 431 1129 431 1085 389 c 128,-1,5
 1041 347 1041 347 1016.5 291 c 128,-1,6
 992 235 992 235 992 171 c 256,7,8
 992 107 992 107 1019 65.5 c 128,-1,9
 1046 24 1046 24 1097 24 c 0,10,11
 1147 24 1147 24 1176.5 65.5 c 128,-1,12
 1206 107 1206 107 1206 171 c 256,13,14
 1206 235 1206 235 1184.5 292.5 c 128,-1,15
 1163 350 1163 350 1123.5 394 c 128,-1,16
 1084 438 1084 438 1029 463.5 c 128,-1,17
 974 489 974 489 907 489 c 0,18,19
 818 489 818 489 750.5 446 c 128,-1,20
 683 403 683 403 645.5 331 c 128,-1,21
 608 259 608 259 608 171 c 0,22,23
 608 107 608 107 637.5 65.5 c 128,-1,24
 667 24 667 24 717 24 c 256,25,26
 767 24 767 24 794.5 65.5 c 128,-1,27
 822 107 822 107 822 171 c 0,28,29
 822 239 822 239 793.5 297 c 128,-1,30
 765 355 765 355 714 398 c 128,-1,31
 663 441 663 441 595 465 c 128,-1,32
 527 489 527 489 447 489 c 0,33,34
 342 489 342 489 266 456 c 128,-1,35
 190 423 190 423 149 364 c 128,-1,36
 108 305 108 305 108 228 c 0,37,38
 108 167 108 167 138 119 c 128,-1,39
 168 71 168 71 220 44 c 128,-1,40
 272 17 272 17 339 17 c 0,41,42
 392 17 392 17 426 51 c 128,-1,43
 460 85 460 85 460 137 c 0,44,45
 460 190 460 190 426 223.5 c 128,-1,46
 392 257 392 257 339 257 c 0,47,48
 287 257 287 257 252.5 224 c 128,-1,49
 218 191 218 191 218 139 c 0,50,51
 218 86 218 86 252.5 51.5 c 128,-1,52
 287 17 287 17 339 17 c 1,53,-1
 339 -8 l 1,54,55
 292 -8 292 -8 254.5 11 c 128,-1,56
 217 30 217 30 196 63 c 128,-1,57
 175 96 175 96 175 139 c 0,58,59
 175 185 175 185 196 220 c 128,-1,60
 217 255 217 255 254.5 275.5 c 128,-1,61
 292 296 292 296 339 296 c 0,62,63
 388 296 388 296 425.5 275.5 c 128,-1,64
 463 255 463 255 485 219.5 c 128,-1,65
 507 184 507 184 507 137 c 0,66,67
 507 92 507 92 485 57 c 128,-1,68
 463 22 463 22 425.5 2 c 128,-1,69
 388 -18 388 -18 339 -18 c 0,70,71
 258 -18 258 -18 195 14 c 128,-1,72
 132 46 132 46 96 101.5 c 128,-1,73
 60 157 60 157 60 228 c 0,74,75
 60 316 60 316 107.5 384 c 128,-1,76
 155 452 155 452 242 491.5 c 128,-1,77
 329 531 329 531 447 531 c 0,78,79
 536 531 536 531 613 503.5 c 128,-1,80
 690 476 690 476 747.5 427 c 128,-1,81
 805 378 805 378 837.5 312.5 c 128,-1,82
 870 247 870 247 870 171 c 0,83,84
 870 116 870 116 851.5 73.5 c 128,-1,85
 833 31 833 31 799 6.5 c 128,-1,86
 765 -18 765 -18 717 -18 c 0,87,88
 670 -18 670 -18 634.5 6.5 c 128,-1,89
 599 31 599 31 579.5 73.5 c 128,-1,90
 560 116 560 116 560 171 c 0,91,92
 560 244 560 244 585 309 c 128,-1,93
 610 374 610 374 656.5 424 c 128,-1,94
 703 474 703 474 766.5 502.5 c 128,-1,95
 830 531 830 531 907 531 c 256,96,97
 984 531 984 531 1047.5 502.5 c 128,-1,98
 1111 474 1111 474 1157 424 c 128,-1,99
 1203 374 1203 374 1228 309 c 128,-1,100
 1253 244 1253 244 1253 171 c 0,101,102
 1253 116 1253 116 1233.5 73.5 c 128,-1,103
 1214 31 1214 31 1179 6.5 c 128,-1,104
 1144 -18 1144 -18 1097 -18 c 0,105,106
 1049 -18 1049 -18 1015 6.5 c 128,-1,107
 981 31 981 31 962.5 73.5 c 128,-1,108
 944 116 944 116 944 171 c 0,109,110
 944 244 944 244 972.5 306 c 128,-1,111
 1001 368 1001 368 1051.5 414.5 c 128,-1,112
 1102 461 1102 461 1169 487 c 128,-1,113
 1236 513 1236 513 1313 513 c 2,114,-1
 1653 513 l 1,115,-1
 1658 478 l 1,116,-1
 1457 478 l 1,117,-1
 1457 0 l 1,118,-1
 1413 0 l 1,0,-1
EndSplineSet
EndChar

StartChar: adieresis
Encoding: 228 228 153
Width: 733
Flags: W
AnchorPoint: "Anchor-1" 376 0 basechar 0
AnchorPoint: "Anchor-0" 709 0 basechar 0
LayerCount: 2
Fore
SplineSet
477 252 m 2,0,-1
 226 252 l 2,1,2
 164 252 164 252 131 219 c 128,-1,3
 98 186 98 186 98 135 c 0,4,5
 98 85 98 85 134.5 54.5 c 128,-1,6
 171 24 171 24 236 24 c 0,7,8
 286 24 286 24 325 44 c 128,-1,9
 364 64 364 64 386.5 104.5 c 128,-1,10
 409 145 409 145 409 205 c 2,11,-1
 409 478 l 1,12,-1
 211 478 l 1,13,-1
 211 263 l 1,14,-1
 167 263 l 1,15,-1
 167 513 l 1,16,-1
 622 513 l 1,17,-1
 627 478 l 1,18,-1
 453 478 l 1,19,-1
 453 205 l 2,20,21
 453 132 453 132 425 82 c 128,-1,22
 397 32 397 32 348 7 c 128,-1,23
 299 -18 299 -18 236 -18 c 0,24,25
 180 -18 180 -18 138 2 c 128,-1,26
 96 22 96 22 73 57 c 128,-1,27
 50 92 50 92 50 136 c 0,28,29
 50 201 50 201 96 244 c 128,-1,30
 142 287 142 287 225 287 c 2,31,-1
 476 287 l 2,32,33
 537 287 537 287 583.5 260 c 128,-1,34
 630 233 630 233 656.5 185.5 c 128,-1,35
 683 138 683 138 683 77 c 0,36,37
 683 7 683 7 647 -47.5 c 128,-1,38
 611 -102 611 -102 546 -133 c 128,-1,39
 481 -164 481 -164 392 -164 c 2,40,-1
 250 -164 l 2,41,42
 192 -164 192 -164 149 -186 c 128,-1,43
 106 -208 106 -208 84 -243 c 1,44,-1
 50 -222 l 1,45,46
 74 -181 74 -181 128.5 -155 c 128,-1,47
 183 -129 183 -129 250 -129 c 2,48,-1
 392 -129 l 2,49,50
 467 -129 467 -129 521.5 -102.5 c 128,-1,51
 576 -76 576 -76 605.5 -29 c 128,-1,52
 635 18 635 18 635 77 c 0,53,54
 635 128 635 128 615 167.5 c 128,-1,55
 595 207 595 207 559.5 229.5 c 128,-1,56
 524 252 524 252 477 252 c 2,0,-1
EndSplineSet
EndChar

StartChar: amacron
Encoding: 257 257 154
Width: 460
Flags: W
LayerCount: 2
Fore
SplineSet
252 478 m 2,0,-1
 -144 478 l 1,1,-1
 -144 513 l 1,2,-1
 252 513 l 2,3,4
 301 513 301 513 338.5 493 c 128,-1,5
 376 473 376 473 398 438 c 128,-1,6
 420 403 420 403 420 358 c 0,7,8
 420 312 420 312 398 276 c 128,-1,9
 376 240 376 240 338.5 219.5 c 128,-1,10
 301 199 301 199 252 199 c 0,11,12
 205 199 205 199 167.5 219.5 c 128,-1,13
 130 240 130 240 109 275.5 c 128,-1,14
 88 311 88 311 88 356 c 256,15,16
 88 401 88 401 109 436.5 c 128,-1,17
 130 472 130 472 167.5 492 c 128,-1,18
 205 512 205 512 252 512 c 1,19,-1
 252 478 l 1,20,21
 200 478 200 478 165.5 443.5 c 128,-1,22
 131 409 131 409 131 356 c 0,23,24
 131 304 131 304 165.5 271 c 128,-1,25
 200 238 200 238 252 238 c 0,26,27
 305 238 305 238 339 272 c 128,-1,28
 373 306 373 306 373 358 c 0,29,30
 373 411 373 411 339 444.5 c 128,-1,31
 305 478 305 478 252 478 c 2,0,-1
EndSplineSet
EndChar

StartChar: cacute
Encoding: 263 263 155
Width: 664
Flags: W
LayerCount: 2
Fore
SplineSet
108 329 m 256,0,1
 108 243 108 243 144.5 173.5 c 128,-1,2
 181 104 181 104 245.5 63.5 c 128,-1,3
 310 23 310 23 393 23 c 0,4,5
 447 23 447 23 480 28.5 c 128,-1,6
 513 34 513 34 530 46.5 c 128,-1,7
 547 59 547 59 552.5 79.5 c 128,-1,8
 558 100 558 100 558 131 c 0,9,10
 558 172 558 172 532.5 198 c 128,-1,11
 507 224 507 224 468 224 c 256,12,13
 429 224 429 224 403.5 198 c 128,-1,14
 378 172 378 172 378 131 c 256,15,16
 378 90 378 90 403.5 62.5 c 128,-1,17
 429 35 429 35 469 35 c 0,18,19
 507 35 507 35 532.5 62.5 c 128,-1,20
 558 90 558 90 558 131 c 1,21,-1
 592 117 l 1,22,-1
 560 43 l 1,23,-1
 482 -2 l 1,24,-1
 470 -2 l 2,25,26
 410 -2 410 -2 371.5 35.5 c 128,-1,27
 333 73 333 73 333 131 c 0,28,29
 333 169 333 169 350 199 c 128,-1,30
 367 229 367 229 397.5 246 c 128,-1,31
 428 263 428 263 466 263 c 0,32,33
 506 263 506 263 537 246 c 128,-1,34
 568 229 568 229 586 199.5 c 128,-1,35
 604 170 604 170 604 131 c 0,36,37
 604 86 604 86 578 52.5 c 128,-1,38
 552 19 552 19 506.5 0.5 c 128,-1,39
 461 -18 461 -18 402 -18 c 0,40,41
 324 -18 324 -18 261 9 c 128,-1,42
 198 36 198 36 153 83.5 c 128,-1,43
 108 131 108 131 84 194 c 128,-1,44
 60 257 60 257 60 329 c 256,45,46
 60 401 60 401 84 463.5 c 128,-1,47
 108 526 108 526 153 573.5 c 128,-1,48
 198 621 198 621 261 648 c 128,-1,49
 324 675 324 675 402 675 c 0,50,51
 461 675 461 675 506.5 656.5 c 128,-1,52
 552 638 552 638 578 605 c 128,-1,53
 604 572 604 572 604 526 c 0,54,55
 604 488 604 488 586 458 c 128,-1,56
 568 428 568 428 537 411 c 128,-1,57
 506 394 506 394 466 394 c 0,58,59
 428 394 428 394 397.5 411 c 128,-1,60
 367 428 367 428 350 458.5 c 128,-1,61
 333 489 333 489 333 527 c 256,62,63
 333 565 333 565 350.5 595 c 128,-1,64
 368 625 368 625 399 642 c 128,-1,65
 430 659 430 659 470 659 c 2,66,-1
 482 659 l 1,67,-1
 560 614 l 1,68,-1
 592 540 l 1,69,-1
 558 526 l 1,70,71
 558 567 558 567 532.5 594.5 c 128,-1,72
 507 622 507 622 469 622 c 0,73,74
 429 622 429 622 403.5 595 c 128,-1,75
 378 568 378 568 378 527 c 0,76,77
 378 487 378 487 403.5 460 c 128,-1,78
 429 433 429 433 468 433 c 256,79,80
 507 433 507 433 532.5 459.5 c 128,-1,81
 558 486 558 486 558 526 c 0,82,83
 558 557 558 557 552.5 578 c 128,-1,84
 547 599 547 599 530 611.5 c 128,-1,85
 513 624 513 624 480 629.5 c 128,-1,86
 447 635 447 635 393 635 c 0,87,88
 310 635 310 635 245.5 594 c 128,-1,89
 181 553 181 553 144.5 484 c 128,-1,90
 108 415 108 415 108 329 c 256,0,1
EndSplineSet
EndChar

StartChar: ccaron
Encoding: 269 269 156
Width: 0
Flags: W
AnchorPoint: "Anchor-1" 0 0 mark 0
LayerCount: 2
Fore
SplineSet
0 638 m 256,0,1
 16 638 16 638 25.5 648 c 128,-1,2
 35 658 35 658 35 672 c 256,3,4
 35 686 35 686 24.5 696.5 c 128,-1,5
 14 707 14 707 0 707 c 0,6,7
 -16 707 -16 707 -25 696.5 c 128,-1,8
 -34 686 -34 686 -34 672 c 256,9,10
 -34 658 -34 658 -25 648 c 128,-1,11
 -16 638 -16 638 0 638 c 256,0,1
EndSplineSet
EndChar

StartChar: egrave
Encoding: 232 232 157
Width: 734
Flags: W
AnchorPoint: "Anchor-1" 361 0 basechar 0
AnchorPoint: "Anchor-0" 634 0 basechar 0
LayerCount: 2
Fore
SplineSet
514 343 m 0,0,1
 568 343 568 343 603.5 315 c 128,-1,2
 639 287 639 287 656.5 237.5 c 128,-1,3
 674 188 674 188 674 123 c 0,4,5
 674 45 674 45 643.5 -20.5 c 128,-1,6
 613 -86 613 -86 551.5 -125 c 128,-1,7
 490 -164 490 -164 397 -164 c 2,8,-1
 300 -164 l 2,9,10
 242 -164 242 -164 199 -186 c 128,-1,11
 156 -208 156 -208 134 -243 c 1,12,-1
 100 -222 l 1,13,14
 124 -181 124 -181 178.5 -155 c 128,-1,15
 233 -129 233 -129 300 -129 c 2,16,-1
 397 -129 l 2,17,18
 475 -129 475 -129 526 -94 c 128,-1,19
 577 -59 577 -59 602 -1.5 c 128,-1,20
 627 56 627 56 627 125 c 0,21,22
 627 204 627 204 599 252.5 c 128,-1,23
 571 301 571 301 511 301 c 0,24,25
 456 301 456 301 421 263 c 128,-1,26
 386 225 386 225 386 166 c 2,27,-1
 386 0 l 1,28,-1
 342 0 l 1,29,-1
 342 478 l 1,30,-1
 144 478 l 1,31,-1
 144 0 l 1,32,-1
 100 0 l 1,33,-1
 100 513 l 1,34,-1
 582 513 l 1,35,-1
 587 478 l 1,36,-1
 386 478 l 1,37,-1
 386 282 l 1,38,39
 409 311 409 311 441.5 327 c 128,-1,40
 474 343 474 343 514 343 c 0,0,1
EndSplineSet
EndChar

StartChar: eacute
Encoding: 233 233 158
Width: 1284
Flags: W
AnchorPoint: "Anchor-1" 683 0 basechar 0
AnchorPoint: "Anchor-0" 1285 0 basechar 0
LayerCount: 2
Fore
SplineSet
1029 0 m 1,0,-1
 1029 478 l 1,1,-1
 929 478 l 2,2,3
 862 478 862 478 803.5 454.5 c 128,-1,4
 745 431 745 431 701 389 c 128,-1,5
 657 347 657 347 632.5 291 c 128,-1,6
 608 235 608 235 608 171 c 256,7,8
 608 107 608 107 636.5 65.5 c 128,-1,9
 665 24 665 24 715 24 c 256,10,11
 765 24 765 24 793.5 65.5 c 128,-1,12
 822 107 822 107 822 171 c 0,13,14
 822 239 822 239 793.5 297 c 128,-1,15
 765 355 765 355 714 398 c 128,-1,16
 663 441 663 441 595 465 c 128,-1,17
 527 489 527 489 447 489 c 0,18,19
 342 489 342 489 266 456 c 128,-1,20
 190 423 190 423 149 364 c 128,-1,21
 108 305 108 305 108 228 c 0,22,23
 108 167 108 167 138 119 c 128,-1,24
 168 71 168 71 220 44 c 128,-1,25
 272 17 272 17 339 17 c 0,26,27
 392 17 392 17 426 51 c 128,-1,28
 460 85 460 85 460 137 c 0,29,30
 460 190 460 190 426 223.5 c 128,-1,31
 392 257 392 257 339 257 c 0,32,33
 287 257 287 257 252.5 224 c 128,-1,34
 218 191 218 191 218 139 c 0,35,36
 218 86 218 86 252.5 51.5 c 128,-1,37
 287 17 287 17 339 17 c 1,38,-1
 339 -8 l 1,39,40
 292 -8 292 -8 254.5 11 c 128,-1,41
 217 30 217 30 196 63 c 128,-1,42
 175 96 175 96 175 139 c 0,43,44
 175 185 175 185 196 220 c 128,-1,45
 217 255 217 255 254.5 275.5 c 128,-1,46
 292 296 292 296 339 296 c 0,47,48
 388 296 388 296 425.5 275.5 c 128,-1,49
 463 255 463 255 485 219.5 c 128,-1,50
 507 184 507 184 507 137 c 0,51,52
 507 92 507 92 485 57 c 128,-1,53
 463 22 463 22 425.5 2 c 128,-1,54
 388 -18 388 -18 339 -18 c 0,55,56
 258 -18 258 -18 195 14 c 128,-1,57
 132 46 132 46 96 101.5 c 128,-1,58
 60 157 60 157 60 228 c 0,59,60
 60 316 60 316 107.5 384 c 128,-1,61
 155 452 155 452 242 491.5 c 128,-1,62
 329 531 329 531 447 531 c 0,63,64
 536 531 536 531 613 503.5 c 128,-1,65
 690 476 690 476 747.5 427 c 128,-1,66
 805 378 805 378 837.5 312.5 c 128,-1,67
 870 247 870 247 870 171 c 0,68,69
 870 116 870 116 851 73.5 c 128,-1,70
 832 31 832 31 797.5 6.5 c 128,-1,71
 763 -18 763 -18 715 -18 c 0,72,73
 668 -18 668 -18 633 6.5 c 128,-1,74
 598 31 598 31 579 73.5 c 128,-1,75
 560 116 560 116 560 171 c 0,76,77
 560 244 560 244 588.5 306 c 128,-1,78
 617 368 617 368 667.5 414.5 c 128,-1,79
 718 461 718 461 785 487 c 128,-1,80
 852 513 852 513 929 513 c 2,81,-1
 1270 513 l 1,82,-1
 1274 478 l 1,83,-1
 1073 478 l 1,84,-1
 1073 0 l 1,85,-1
 1029 0 l 1,0,-1
EndSplineSet
EndChar

StartChar: ecircumflex
Encoding: 234 234 159
Width: 706
Flags: W
AnchorPoint: "Anchor-1" 347 0 basechar 0
AnchorPoint: "Anchor-0" 768 0 basechar 0
LayerCount: 2
Fore
SplineSet
606 513 m 1,0,-1
 606 0 l 1,1,-1
 100 0 l 1,2,-1
 100 513 l 1,3,-1
 144 518 l 1,4,-1
 144 35 l 1,5,-1
 562 35 l 1,6,-1
 562 513 l 1,7,-1
 606 513 l 1,0,-1
EndSplineSet
EndChar

StartChar: edotaccent
Encoding: 279 279 160
Width: 1199
Flags: W
LayerCount: 2
Fore
SplineSet
108 237 m 0,0,1
 108 173 108 173 136 123.5 c 128,-1,2
 164 74 164 74 216 45.5 c 128,-1,3
 268 17 268 17 339 17 c 0,4,5
 392 17 392 17 426 51 c 128,-1,6
 460 85 460 85 460 137 c 0,7,8
 460 190 460 190 426 223.5 c 128,-1,9
 392 257 392 257 339 257 c 0,10,11
 287 257 287 257 252.5 224 c 128,-1,12
 218 191 218 191 218 139 c 0,13,14
 218 86 218 86 252.5 51.5 c 128,-1,15
 287 17 287 17 339 17 c 1,16,-1
 339 -8 l 1,17,18
 292 -8 292 -8 254.5 11 c 128,-1,19
 217 30 217 30 196 63 c 128,-1,20
 175 96 175 96 175 139 c 0,21,22
 175 185 175 185 196 220 c 128,-1,23
 217 255 217 255 254.5 275.5 c 128,-1,24
 292 296 292 296 339 296 c 0,25,26
 388 296 388 296 425.5 275.5 c 128,-1,27
 463 255 463 255 485 219.5 c 128,-1,28
 507 184 507 184 507 137 c 0,29,30
 507 92 507 92 485 57 c 128,-1,31
 463 22 463 22 425.5 2 c 128,-1,32
 388 -18 388 -18 339 -18 c 0,33,34
 254 -18 254 -18 191 15 c 128,-1,35
 128 48 128 48 94 105.5 c 128,-1,36
 60 163 60 163 60 237 c 0,37,38
 60 323 60 323 97 389 c 128,-1,39
 134 455 134 455 203.5 493 c 128,-1,40
 273 531 273 531 370 531 c 0,41,42
 457 531 457 531 525 491.5 c 128,-1,43
 593 452 593 452 630 384 c 1,44,-1
 630 513 l 1,45,-1
 1184 513 l 1,46,-1
 1189 478 l 1,47,-1
 988 478 l 1,48,-1
 988 0 l 1,49,-1
 944 0 l 1,50,-1
 944 478 l 1,51,-1
 674 478 l 1,52,-1
 674 0 l 1,53,-1
 630 0 l 1,54,-1
 630 228 l 2,55,56
 630 304 630 304 596.5 362.5 c 128,-1,57
 563 421 563 421 504.5 455 c 128,-1,58
 446 489 446 489 370 489 c 0,59,60
 287 489 287 489 228 456.5 c 128,-1,61
 169 424 169 424 138.5 367 c 128,-1,62
 108 310 108 310 108 237 c 0,0,1
EndSplineSet
EndChar

StartChar: icircumflex
Encoding: 238 238 161
Width: 786
Flags: W
AnchorPoint: "Anchor-1" 454 0 basechar 0
AnchorPoint: "Anchor-0" 799 0 basechar 0
LayerCount: 2
Fore
SplineSet
144 35 m 1,0,-1
 144 518 l 1,1,-1
 100 513 l 1,2,-1
 100 0 l 1,3,-1
 537 0 l 2,4,5
 605 0 605 0 646.5 30 c 128,-1,6
 688 60 688 60 707 112 c 128,-1,7
 726 164 726 164 726 231 c 0,8,9
 726 318 726 318 702 386 c 128,-1,10
 678 454 678 454 633 492.5 c 128,-1,11
 588 531 588 531 525 531 c 0,12,13
 481 531 481 531 446 512 c 128,-1,14
 411 493 411 493 391.5 454 c 128,-1,15
 372 415 372 415 372 355 c 2,16,-1
 372 10 l 1,17,-1
 416 19 l 1,18,-1
 416 356 l 2,19,20
 416 430 416 430 448 459.5 c 128,-1,21
 480 489 480 489 528 489 c 256,22,23
 576 489 576 489 609.5 456 c 128,-1,24
 643 423 643 423 660.5 364.5 c 128,-1,25
 678 306 678 306 678 231 c 0,26,27
 678 175 678 175 665.5 130.5 c 128,-1,28
 653 86 653 86 622.5 60.5 c 128,-1,29
 592 35 592 35 537 35 c 2,30,-1
 144 35 l 1,0,-1
EndSplineSet
EndChar

StartChar: idieresis
Encoding: 239 239 162
Width: 886
Flags: W
AnchorPoint: "Anchor-1" 417 0 basechar 0
AnchorPoint: "Anchor-0" 936 0 basechar 0
LayerCount: 2
Fore
SplineSet
786 513 m 1,0,-1
 786 0 l 1,1,-1
 379 0 l 1,2,-1
 379 513 l 1,3,-1
 423 513 l 1,4,-1
 423 35 l 1,5,-1
 742 35 l 1,6,-1
 742 513 l 1,7,-1
 786 513 l 1,0,-1
90 513 m 1,8,-1
 134 518 l 1,9,-1
 134 175 l 2,10,11
 134 90 134 90 167.5 57 c 128,-1,12
 201 24 201 24 252 24 c 0,13,14
 314 24 314 24 346.5 72 c 128,-1,15
 379 120 379 120 379 193 c 1,16,-1
 414 193 l 1,17,18
 414 132 414 132 395 84 c 128,-1,19
 376 36 376 36 340 9 c 128,-1,20
 304 -18 304 -18 252 -18 c 0,21,22
 205 -18 205 -18 168.5 1.5 c 128,-1,23
 132 21 132 21 111 64 c 128,-1,24
 90 107 90 107 90 176 c 2,25,-1
 90 513 l 1,8,-1
EndSplineSet
EndChar

StartChar: imacron
Encoding: 299 299 163
Width: 1221
Flags: W
LayerCount: 2
Fore
SplineSet
633 0 m 1,0,-1
 633 478 l 1,1,-1
 419 478 l 1,2,-1
 419 0 l 1,3,-1
 375 0 l 1,4,-1
 375 513 l 1,5,-1
 874 513 l 1,6,-1
 878 478 l 1,7,-1
 677 478 l 1,8,-1
 677 282 l 1,9,10
 700 311 700 311 732.5 327 c 128,-1,11
 765 343 765 343 805 343 c 0,12,13
 856 343 856 343 892 314.5 c 128,-1,14
 928 286 928 286 946.5 236.5 c 128,-1,15
 965 187 965 187 965 123 c 0,16,17
 965 36 965 36 935.5 -32 c 128,-1,18
 906 -100 906 -100 851 -148 c 128,-1,19
 796 -196 796 -196 720.5 -221 c 128,-1,20
 645 -246 645 -246 553 -246 c 0,21,22
 444 -246 444 -246 356.5 -210.5 c 128,-1,23
 269 -175 269 -175 207 -109.5 c 128,-1,24
 145 -44 145 -44 112.5 47 c 128,-1,25
 80 138 80 138 80 249 c 0,26,27
 80 363 80 363 117 461 c 128,-1,28
 154 559 154 559 225.5 632.5 c 128,-1,29
 297 706 297 706 399.5 747 c 128,-1,30
 502 788 502 788 634 788 c 0,31,32
 736 788 736 788 824.5 757.5 c 128,-1,33
 913 727 913 727 979.5 669 c 128,-1,34
 1046 611 1046 611 1083.5 527.5 c 128,-1,35
 1121 444 1121 444 1121 338 c 2,36,-1
 1121 0 l 1,37,-1
 1077 0 l 1,38,-1
 1077 336 l 2,39,40
 1077 433 1077 433 1043 509 c 128,-1,41
 1009 585 1009 585 948 638 c 128,-1,42
 887 691 887 691 807 718.5 c 128,-1,43
 727 746 727 746 634 746 c 0,44,45
 513 746 513 746 419 708 c 128,-1,46
 325 670 325 670 260 602 c 128,-1,47
 195 534 195 534 161.5 443 c 128,-1,48
 128 352 128 352 128 247 c 0,49,50
 128 146 128 146 157 63 c 128,-1,51
 186 -20 186 -20 241.5 -79.5 c 128,-1,52
 297 -139 297 -139 375.5 -171.5 c 128,-1,53
 454 -204 454 -204 553 -204 c 0,54,55
 662 -204 662 -204 744 -165 c 128,-1,56
 826 -126 826 -126 872 -52.5 c 128,-1,57
 918 21 918 21 918 125 c 0,58,59
 918 176 918 176 905 215.5 c 128,-1,60
 892 255 892 255 866.5 278 c 128,-1,61
 841 301 841 301 803 301 c 0,62,63
 748 301 748 301 712.5 263 c 128,-1,64
 677 225 677 225 677 166 c 2,65,-1
 677 0 l 1,66,-1
 633 0 l 1,0,-1
EndSplineSet
EndChar

StartChar: iogonek
Encoding: 303 303 164
Width: 924
Flags: W
LayerCount: 2
Fore
SplineSet
558 287 m 2,0,1
 619 287 619 287 662 261.5 c 128,-1,2
 705 236 705 236 728.5 194.5 c 128,-1,3
 752 153 752 153 752 104 c 0,4,5
 752 71 752 71 738.5 43 c 128,-1,6
 725 15 725 15 701 -1.5 c 128,-1,7
 677 -18 677 -18 645 -18 c 0,8,9
 611 -18 611 -18 585.5 -1.5 c 128,-1,10
 560 15 560 15 546 43 c 128,-1,11
 532 71 532 71 532 104 c 0,12,13
 532 149 532 149 546.5 187.5 c 128,-1,14
 561 226 561 226 587.5 254 c 128,-1,15
 614 282 614 282 649.5 297.5 c 128,-1,16
 685 313 685 313 728 313 c 0,17,18
 774 313 774 313 809 291 c 128,-1,19
 844 269 844 269 864 231.5 c 128,-1,20
 884 194 884 194 884 145 c 0,21,22
 884 100 884 100 874 66 c 128,-1,23
 864 32 864 32 847 -6 c 1,24,-1
 802 0 l 1,25,26
 818 33 818 33 827.5 73.5 c 128,-1,27
 837 114 837 114 837 145 c 0,28,29
 837 203 837 203 807 237 c 128,-1,30
 777 271 777 271 728 271 c 0,31,32
 684 271 684 271 650 250.5 c 128,-1,33
 616 230 616 230 596.5 192.5 c 128,-1,34
 577 155 577 155 577 104 c 0,35,36
 577 70 577 70 596 47 c 128,-1,37
 615 24 615 24 645 24 c 0,38,39
 671 24 671 24 687.5 47 c 128,-1,40
 704 70 704 70 704 104 c 0,41,42
 704 147 704 147 685.5 180.5 c 128,-1,43
 667 214 667 214 634.5 233 c 128,-1,44
 602 252 602 252 559 252 c 2,45,-1
 226 252 l 2,46,47
 164 252 164 252 131 219 c 128,-1,48
 98 186 98 186 98 135 c 0,49,50
 98 85 98 85 134.5 54.5 c 128,-1,51
 171 24 171 24 236 24 c 0,52,53
 286 24 286 24 325 44 c 128,-1,54
 364 64 364 64 386.5 104.5 c 128,-1,55
 409 145 409 145 409 205 c 2,56,-1
 409 478 l 1,57,-1
 211 478 l 1,58,-1
 211 263 l 1,59,-1
 167 263 l 1,60,-1
 167 513 l 1,61,-1
 622 513 l 1,62,-1
 627 478 l 1,63,-1
 453 478 l 1,64,-1
 453 205 l 2,65,66
 453 132 453 132 425 82 c 128,-1,67
 397 32 397 32 348 7 c 128,-1,68
 299 -18 299 -18 236 -18 c 0,69,70
 180 -18 180 -18 138 2 c 128,-1,71
 96 22 96 22 73 57 c 128,-1,72
 50 92 50 92 50 136 c 0,73,74
 50 201 50 201 96 244 c 128,-1,75
 142 287 142 287 225 287 c 2,76,-1
 558 287 l 2,0,1
EndSplineSet
EndChar

StartChar: ntilde
Encoding: 241 241 165
Width: 775
Flags: W
AnchorPoint: "Anchor-1" 377 0 basechar 0
AnchorPoint: "Anchor-0" 778 0 basechar 0
LayerCount: 2
Fore
SplineSet
517 531 m 0,0,1
 584 531 584 531 628 492.5 c 128,-1,2
 672 454 672 454 693.5 386 c 128,-1,3
 715 318 715 318 715 231 c 0,4,5
 715 116 715 116 683.5 27 c 128,-1,6
 652 -62 652 -62 582 -113 c 128,-1,7
 512 -164 512 -164 396 -164 c 2,8,-1
 290 -164 l 2,9,10
 232 -164 232 -164 189 -186 c 128,-1,11
 146 -208 146 -208 124 -243 c 1,12,-1
 90 -222 l 1,13,14
 115 -181 115 -181 169 -155 c 128,-1,15
 223 -129 223 -129 290 -129 c 2,16,-1
 396 -129 l 2,17,18
 498 -129 498 -129 557 -82 c 128,-1,19
 616 -35 616 -35 641.5 46.5 c 128,-1,20
 667 128 667 128 667 231 c 0,21,22
 667 307 667 307 651 365 c 128,-1,23
 635 423 635 423 602.5 456 c 128,-1,24
 570 489 570 489 520 489 c 0,25,26
 486 489 486 489 460 472.5 c 128,-1,27
 434 456 434 456 419.5 422.5 c 128,-1,28
 405 389 405 389 405 338 c 2,29,-1
 405 0 l 1,30,-1
 361 0 l 1,31,-1
 361 320 l 2,32,33
 361 369 361 369 347 407 c 128,-1,34
 333 445 333 445 306.5 467 c 128,-1,35
 280 489 280 489 243 489 c 0,36,37
 192 489 192 489 163 452 c 128,-1,38
 134 415 134 415 134 338 c 2,39,-1
 134 0 l 1,40,-1
 90 0 l 1,41,-1
 90 337 l 2,42,43
 90 401 90 401 108.5 444 c 128,-1,44
 127 487 127 487 161 509 c 128,-1,45
 195 531 195 531 239 531 c 0,46,47
 288 531 288 531 324 504.5 c 128,-1,48
 360 478 360 478 379 433 c 1,49,50
 399 481 399 481 436.5 506 c 128,-1,51
 474 531 474 531 517 531 c 0,0,1
EndSplineSet
EndChar

StartChar: ograve
Encoding: 242 242 167
Width: 1007
Flags: W
AnchorPoint: "Anchor-1" 564 0 basechar 0
AnchorPoint: "Anchor-0" 1033 0 basechar 0
LayerCount: 2
Fore
SplineSet
817 513 m 1,0,-1
 862 527 l 1,1,2
 892 478 892 478 910.5 425.5 c 128,-1,3
 929 373 929 373 938 323.5 c 128,-1,4
 947 274 947 274 947 235 c 0,5,6
 947 159 947 159 926.5 102 c 128,-1,7
 906 45 906 45 867 13.5 c 128,-1,8
 828 -18 828 -18 771 -18 c 0,9,10
 723 -18 723 -18 685 5.5 c 128,-1,11
 647 29 647 29 625 79.5 c 128,-1,12
 603 130 603 130 603 210 c 2,13,-1
 603 255 l 2,14,15
 603 328 603 328 573 380.5 c 128,-1,16
 543 433 543 433 490 461 c 128,-1,17
 437 489 437 489 368 489 c 0,18,19
 285 489 285 489 226.5 456.5 c 128,-1,20
 168 424 168 424 138 367 c 128,-1,21
 108 310 108 310 108 237 c 0,22,23
 108 173 108 173 136 123.5 c 128,-1,24
 164 74 164 74 216 45.5 c 128,-1,25
 268 17 268 17 339 17 c 0,26,27
 392 17 392 17 426 51 c 128,-1,28
 460 85 460 85 460 137 c 0,29,30
 460 190 460 190 426 223.5 c 128,-1,31
 392 257 392 257 339 257 c 0,32,33
 287 257 287 257 252.5 224 c 128,-1,34
 218 191 218 191 218 139 c 0,35,36
 218 86 218 86 252.5 51.5 c 128,-1,37
 287 17 287 17 339 17 c 1,38,-1
 339 -8 l 1,39,40
 292 -8 292 -8 254.5 11 c 128,-1,41
 217 30 217 30 196 63 c 128,-1,42
 175 96 175 96 175 139 c 0,43,44
 175 185 175 185 196 220 c 128,-1,45
 217 255 217 255 254.5 275.5 c 128,-1,46
 292 296 292 296 339 296 c 0,47,48
 388 296 388 296 425.5 275.5 c 128,-1,49
 463 255 463 255 485 219.5 c 128,-1,50
 507 184 507 184 507 137 c 0,51,52
 507 92 507 92 485 57 c 128,-1,53
 463 22 463 22 425.5 2 c 128,-1,54
 388 -18 388 -18 339 -18 c 0,55,56
 254 -18 254 -18 191 15 c 128,-1,57
 128 48 128 48 94 105.5 c 128,-1,58
 60 163 60 163 60 237 c 0,59,60
 60 323 60 323 96.5 389 c 128,-1,61
 133 455 133 455 202 493 c 128,-1,62
 271 531 271 531 368 531 c 0,63,64
 449 531 449 531 512 497 c 128,-1,65
 575 463 575 463 611 401.5 c 128,-1,66
 647 340 647 340 647 255 c 2,67,-1
 647 210 l 2,68,69
 647 110 647 110 682 67 c 128,-1,70
 717 24 717 24 771 24 c 0,71,72
 832 24 832 24 865.5 80 c 128,-1,73
 899 136 899 136 899 233 c 0,74,75
 899 271 899 271 890.5 321 c 128,-1,76
 882 371 882 371 864 422 c 128,-1,77
 846 473 846 473 817 513 c 1,0,-1
EndSplineSet
EndChar

StartChar: oacute
Encoding: 243 243 168
Width: 1199
Flags: W
AnchorPoint: "Anchor-1" 666 0 basechar 0
AnchorPoint: "Anchor-0" 1208 0 basechar 0
LayerCount: 2
Fore
SplineSet
108 237 m 0,0,1
 108 173 108 173 136 123.5 c 128,-1,2
 164 74 164 74 216 45.5 c 128,-1,3
 268 17 268 17 339 17 c 0,4,5
 392 17 392 17 426 51 c 128,-1,6
 460 85 460 85 460 137 c 0,7,8
 460 190 460 190 426 223.5 c 128,-1,9
 392 257 392 257 339 257 c 0,10,11
 287 257 287 257 252.5 224 c 128,-1,12
 218 191 218 191 218 139 c 0,13,14
 218 86 218 86 252.5 51.5 c 128,-1,15
 287 17 287 17 339 17 c 1,16,-1
 339 -8 l 1,17,18
 292 -8 292 -8 254.5 11 c 128,-1,19
 217 30 217 30 196 63 c 128,-1,20
 175 96 175 96 175 139 c 0,21,22
 175 185 175 185 196 220 c 128,-1,23
 217 255 217 255 254.5 275.5 c 128,-1,24
 292 296 292 296 339 296 c 0,25,26
 388 296 388 296 425.5 275.5 c 128,-1,27
 463 255 463 255 485 219.5 c 128,-1,28
 507 184 507 184 507 137 c 0,29,30
 507 92 507 92 485 57 c 128,-1,31
 463 22 463 22 425.5 2 c 128,-1,32
 388 -18 388 -18 339 -18 c 0,33,34
 254 -18 254 -18 191 15 c 128,-1,35
 128 48 128 48 94 105.5 c 128,-1,36
 60 163 60 163 60 237 c 0,37,38
 60 323 60 323 97 389 c 128,-1,39
 134 455 134 455 203.5 493 c 128,-1,40
 273 531 273 531 370 531 c 0,41,42
 457 531 457 531 525 491.5 c 128,-1,43
 593 452 593 452 630 384 c 1,44,-1
 630 513 l 1,45,-1
 1184 513 l 1,46,-1
 1189 478 l 1,47,-1
 988 478 l 1,48,-1
 988 0 l 1,49,-1
 944 0 l 1,50,-1
 944 478 l 1,51,-1
 674 478 l 1,52,-1
 674 0 l 1,53,-1
 630 0 l 1,54,-1
 630 228 l 2,55,56
 630 304 630 304 596.5 362.5 c 128,-1,57
 563 421 563 421 504.5 455 c 128,-1,58
 446 489 446 489 370 489 c 0,59,60
 287 489 287 489 228 456.5 c 128,-1,61
 169 424 169 424 138.5 367 c 128,-1,62
 108 310 108 310 108 237 c 0,0,1
EndSplineSet
EndChar

StartChar: ocircumflex
Encoding: 244 244 169
Width: 786
Flags: W
AnchorPoint: "Anchor-1" 482 0 basechar 0
AnchorPoint: "Anchor-0" 786 0 basechar 0
LayerCount: 2
Fore
SplineSet
416 10 m 1,0,-1
 372 4 l 1,1,-1
 372 -43 l 2,2,3
 372 -83 372 -83 381 -114.5 c 128,-1,4
 390 -146 390 -146 430 -163 c 1,5,6
 410 -213 410 -213 373 -236 c 128,-1,7
 336 -259 336 -259 291 -259 c 0,8,9
 227 -259 227 -259 198 -230 c 128,-1,10
 169 -201 169 -201 169 -153 c 1,11,-1
 125 -153 l 1,12,13
 125 -196 125 -196 143.5 -229.5 c 128,-1,14
 162 -263 162 -263 198.5 -282.5 c 128,-1,15
 235 -302 235 -302 290 -302 c 0,16,17
 329 -302 329 -302 365.5 -286 c 128,-1,18
 402 -270 402 -270 429 -240.5 c 128,-1,19
 456 -211 456 -211 468 -171 c 1,20,-1
 647 -171 l 1,21,-1
 643 -136 l 1,22,-1
 474 -136 l 2,23,24
 443 -136 443 -136 429.5 -116 c 128,-1,25
 416 -96 416 -96 416 -55 c 2,26,-1
 416 10 l 1,0,-1
144 35 m 1,27,-1
 144 518 l 1,28,-1
 100 513 l 1,29,-1
 100 0 l 1,30,-1
 537 0 l 2,31,32
 605 0 605 0 646.5 30 c 128,-1,33
 688 60 688 60 707 112 c 128,-1,34
 726 164 726 164 726 231 c 0,35,36
 726 318 726 318 702 386 c 128,-1,37
 678 454 678 454 633 492.5 c 128,-1,38
 588 531 588 531 525 531 c 0,39,40
 481 531 481 531 446 512 c 128,-1,41
 411 493 411 493 391.5 454 c 128,-1,42
 372 415 372 415 372 355 c 2,43,-1
 372 21 l 1,44,-1
 416 21 l 1,45,-1
 416 356 l 2,46,47
 416 430 416 430 448 459.5 c 128,-1,48
 480 489 480 489 528 489 c 256,49,50
 576 489 576 489 609.5 456 c 128,-1,51
 643 423 643 423 660.5 364.5 c 128,-1,52
 678 306 678 306 678 231 c 0,53,54
 678 175 678 175 665.5 130.5 c 128,-1,55
 653 86 653 86 622.5 60.5 c 128,-1,56
 592 35 592 35 537 35 c 2,57,-1
 144 35 l 1,27,-1
EndSplineSet
EndChar

StartChar: otilde
Encoding: 245 245 170
Width: 1027
Flags: W
AnchorPoint: "Anchor-1" 562 0 basechar 0
AnchorPoint: "Anchor-0" 1084 0 basechar 0
LayerCount: 2
Fore
SplineSet
639 255 m 0,0,1
 639 323 639 323 608.5 376 c 128,-1,2
 578 429 578 429 520 459 c 128,-1,3
 462 489 462 489 379 489 c 256,4,5
 296 489 296 489 235 456.5 c 128,-1,6
 174 424 174 424 141 367 c 128,-1,7
 108 310 108 310 108 237 c 0,8,9
 108 173 108 173 136 123.5 c 128,-1,10
 164 74 164 74 216 45.5 c 128,-1,11
 268 17 268 17 339 17 c 0,12,13
 392 17 392 17 426 51 c 128,-1,14
 460 85 460 85 460 137 c 0,15,16
 460 190 460 190 426 223.5 c 128,-1,17
 392 257 392 257 339 257 c 0,18,19
 287 257 287 257 252.5 224 c 128,-1,20
 218 191 218 191 218 139 c 0,21,22
 218 86 218 86 252.5 51.5 c 128,-1,23
 287 17 287 17 339 17 c 1,24,-1
 339 -8 l 1,25,26
 292 -8 292 -8 254.5 11 c 128,-1,27
 217 30 217 30 196 63 c 128,-1,28
 175 96 175 96 175 139 c 0,29,30
 175 185 175 185 196 220 c 128,-1,31
 217 255 217 255 254.5 275.5 c 128,-1,32
 292 296 292 296 339 296 c 0,33,34
 388 296 388 296 425.5 275.5 c 128,-1,35
 463 255 463 255 485 219.5 c 128,-1,36
 507 184 507 184 507 137 c 0,37,38
 507 92 507 92 485 57 c 128,-1,39
 463 22 463 22 425.5 2 c 128,-1,40
 388 -18 388 -18 339 -18 c 0,41,42
 254 -18 254 -18 191 15 c 128,-1,43
 128 48 128 48 94 105.5 c 128,-1,44
 60 163 60 163 60 237 c 0,45,46
 60 323 60 323 99.5 389 c 128,-1,47
 139 455 139 455 210.5 493 c 128,-1,48
 282 531 282 531 379 531 c 0,49,50
 473 531 473 531 541.5 495.5 c 128,-1,51
 610 460 610 460 648 397.5 c 128,-1,52
 686 335 686 335 686 255 c 0,53,54
 686 191 686 191 666 133.5 c 128,-1,55
 646 76 646 76 612 35 c 1,56,-1
 883 35 l 1,57,-1
 883 513 l 1,58,-1
 927 513 l 1,59,-1
 927 0 l 1,60,-1
 551 0 l 1,61,-1
 551 35 l 1,62,63
 589 73 589 73 614 129 c 128,-1,64
 639 185 639 185 639 255 c 0,0,1
EndSplineSet
EndChar

StartChar: odieresis
Encoding: 246 246 171
Width: 998
Flags: W
AnchorPoint: "Anchor-1" 524 0 basechar 0
AnchorPoint: "Anchor-0" 963 0 basechar 0
LayerCount: 2
Fore
SplineSet
749 513 m 2,0,1
 818 513 818 513 859.5 483 c 128,-1,2
 901 453 901 453 919.5 401 c 128,-1,3
 938 349 938 349 938 282 c 0,4,5
 938 195 938 195 914 127.5 c 128,-1,6
 890 60 890 60 845 21 c 128,-1,7
 800 -18 800 -18 737 -18 c 0,8,9
 693 -18 693 -18 658 1 c 128,-1,10
 623 20 623 20 603.5 59 c 128,-1,11
 584 98 584 98 584 158 c 2,12,-1
 584 478 l 1,13,-1
 414 478 l 1,14,-1
 414 176 l 2,15,16
 414 111 414 111 393 68 c 128,-1,17
 372 25 372 25 335.5 3.5 c 128,-1,18
 299 -18 299 -18 252 -18 c 256,19,20
 205 -18 205 -18 168.5 3.5 c 128,-1,21
 132 25 132 25 111 68 c 128,-1,22
 90 111 90 111 90 176 c 2,23,-1
 90 513 l 1,24,-1
 134 518 l 1,25,-1
 134 175 l 2,26,27
 134 100 134 100 167.5 62 c 128,-1,28
 201 24 201 24 252 24 c 256,29,30
 303 24 303 24 336.5 62 c 128,-1,31
 370 100 370 100 370 175 c 2,32,-1
 370 513 l 1,33,-1
 749 513 l 2,0,1
741 24 m 0,34,35
 789 24 789 24 822 57 c 128,-1,36
 855 90 855 90 872.5 148.5 c 128,-1,37
 890 207 890 207 890 282 c 0,38,39
 890 339 890 339 878 383 c 128,-1,40
 866 427 866 427 835.5 452.5 c 128,-1,41
 805 478 805 478 749 478 c 2,42,-1
 628 478 l 1,43,-1
 628 157 l 2,44,45
 628 84 628 84 660 54 c 128,-1,46
 692 24 692 24 741 24 c 0,34,35
EndSplineSet
EndChar

StartChar: tcaron
Encoding: 357 357 178
Width: 412
Flags: W
LayerCount: 2
Fore
SplineSet
343 702 m 0,0,1
 331 702 331 702 322.5 696.5 c 128,-1,2
 314 691 314 691 309.5 682 c 128,-1,3
 305 673 305 673 305 663 c 0,4,5
 305 657 305 657 309 648 c 128,-1,6
 313 639 313 639 321 632 c 128,-1,7
 329 625 329 625 341 625 c 1,8,9
 340 598 340 598 323 577.5 c 128,-1,10
 306 557 306 557 280 543 c 1,11,-1
 296 518 l 1,12,13
 324 532 324 532 343 553 c 128,-1,14
 362 574 362 574 372 601.5 c 128,-1,15
 382 629 382 629 382 659 c 0,16,17
 382 674 382 674 371.5 688 c 128,-1,18
 361 702 361 702 343 702 c 0,0,1
229 470 m 1,19,-1
 141 470 l 1,20,-1
 141 623 l 1,21,-1
 92 601 l 1,22,-1
 92 470 l 1,23,-1
 20 470 l 1,24,-1
 20 433 l 1,25,-1
 92 433 l 1,26,-1
 92 116 l 2,27,28
 92 74 92 74 105 45.5 c 128,-1,29
 118 17 118 17 141.5 2 c 128,-1,30
 165 -13 165 -13 196 -13 c 0,31,32
 209 -13 209 -13 221.5 -11 c 128,-1,33
 234 -9 234 -9 244.5 -6 c 128,-1,34
 255 -3 255 -3 262 -1 c 1,35,-1
 250 37 l 1,36,37
 245 35 245 35 232.5 31.5 c 128,-1,38
 220 28 220 28 209 28 c 0,39,40
 172 28 172 28 156.5 57.5 c 128,-1,41
 141 87 141 87 141 123 c 2,42,-1
 141 433 l 1,43,-1
 250 433 l 1,44,-1
 229 470 l 1,19,-1
EndSplineSet
EndChar

StartChar: ugrave
Encoding: 249 249 179
Width: 1531
Flags: W
AnchorPoint: "Anchor-1" 1140 0 basechar 0
AnchorPoint: "Anchor-0" 1542 0 basechar 0
LayerCount: 2
Fore
SplineSet
551 0 m 1,0,-1
 551 35 l 1,1,2
 589 73 589 73 614 129 c 128,-1,3
 639 185 639 185 639 255 c 0,4,5
 639 323 639 323 607.5 376 c 128,-1,6
 576 429 576 429 517.5 459 c 128,-1,7
 459 489 459 489 379 489 c 0,8,9
 296 489 296 489 235 456.5 c 128,-1,10
 174 424 174 424 141 367 c 128,-1,11
 108 310 108 310 108 237 c 0,12,13
 108 173 108 173 136 123.5 c 128,-1,14
 164 74 164 74 216 45.5 c 128,-1,15
 268 17 268 17 339 17 c 0,16,17
 392 17 392 17 426 51 c 128,-1,18
 460 85 460 85 460 137 c 0,19,20
 460 190 460 190 426 223.5 c 128,-1,21
 392 257 392 257 339 257 c 0,22,23
 287 257 287 257 252.5 224 c 128,-1,24
 218 191 218 191 218 139 c 0,25,26
 218 86 218 86 252.5 51.5 c 128,-1,27
 287 17 287 17 339 17 c 1,28,-1
 339 -8 l 1,29,30
 292 -8 292 -8 254.5 11 c 128,-1,31
 217 30 217 30 196 63 c 128,-1,32
 175 96 175 96 175 139 c 0,33,34
 175 185 175 185 196 220 c 128,-1,35
 217 255 217 255 254.5 275.5 c 128,-1,36
 292 296 292 296 339 296 c 0,37,38
 388 296 388 296 425.5 275.5 c 128,-1,39
 463 255 463 255 485 219.5 c 128,-1,40
 507 184 507 184 507 137 c 0,41,42
 507 92 507 92 485 57 c 128,-1,43
 463 22 463 22 425.5 2 c 128,-1,44
 388 -18 388 -18 339 -18 c 0,45,46
 254 -18 254 -18 191 15 c 128,-1,47
 128 48 128 48 94 105.5 c 128,-1,48
 60 163 60 163 60 237 c 0,49,50
 60 323 60 323 99.5 389 c 128,-1,51
 139 455 139 455 210.5 493 c 128,-1,52
 282 531 282 531 379 531 c 0,53,54
 473 531 473 531 541.5 495.5 c 128,-1,55
 610 460 610 460 648 397.5 c 128,-1,56
 686 335 686 335 686 255 c 0,57,58
 686 191 686 191 666 133.5 c 128,-1,59
 646 76 646 76 612 35 c 1,60,-1
 847 35 l 1,61,-1
 847 337 l 2,62,63
 847 401 847 401 865.5 444 c 128,-1,64
 884 487 884 487 918 509 c 128,-1,65
 952 531 952 531 996 531 c 0,66,67
 1044 531 1044 531 1080 504.5 c 128,-1,68
 1116 478 1116 478 1136 433 c 1,69,70
 1156 481 1156 481 1193.5 506 c 128,-1,71
 1231 531 1231 531 1273 531 c 0,72,73
 1340 531 1340 531 1384 492.5 c 128,-1,74
 1428 454 1428 454 1449.5 386 c 128,-1,75
 1471 318 1471 318 1471 231 c 0,76,77
 1471 116 1471 116 1439.5 27 c 128,-1,78
 1408 -62 1408 -62 1338.5 -113 c 128,-1,79
 1269 -164 1269 -164 1153 -164 c 2,80,-1
 259 -164 l 2,81,82
 201 -164 201 -164 158.5 -186 c 128,-1,83
 116 -208 116 -208 94 -243 c 1,84,-1
 60 -222 l 1,85,86
 84 -181 84 -181 138 -155 c 128,-1,87
 192 -129 192 -129 259 -129 c 2,88,-1
 1153 -129 l 2,89,90
 1254 -129 1254 -129 1313.5 -82 c 128,-1,91
 1373 -35 1373 -35 1398.5 46.5 c 128,-1,92
 1424 128 1424 128 1424 231 c 0,93,94
 1424 307 1424 307 1408 365 c 128,-1,95
 1392 423 1392 423 1359.5 456 c 128,-1,96
 1327 489 1327 489 1277 489 c 0,97,98
 1225 489 1225 489 1193.5 452 c 128,-1,99
 1162 415 1162 415 1162 338 c 2,100,-1
 1162 0 l 1,101,-1
 1118 0 l 1,102,-1
 1118 320 l 2,103,104
 1118 369 1118 369 1103.5 407 c 128,-1,105
 1089 445 1089 445 1063 467 c 128,-1,106
 1037 489 1037 489 1000 489 c 0,107,108
 948 489 948 489 919.5 452 c 128,-1,109
 891 415 891 415 891 338 c 2,110,-1
 891 0 l 1,111,-1
 551 0 l 1,0,-1
EndSplineSet
EndChar

StartChar: uogonek
Encoding: 371 371 183
Width: 500
Flags: W
LayerCount: 2
Fore
SplineSet
393 4 m 1,0,1
 375 -11 375 -11 361 -30.5 c 128,-1,2
 347 -50 347 -50 339 -71 c 128,-1,3
 331 -92 331 -92 331 -111 c 0,4,5
 331 -139 331 -139 345 -161 c 128,-1,6
 359 -183 359 -183 382.5 -195 c 128,-1,7
 406 -207 406 -207 436 -207 c 0,8,9
 461 -207 461 -207 482 -198.5 c 128,-1,10
 503 -190 503 -190 516 -177 c 1,11,-1
 494 -150 l 1,12,13
 482 -160 482 -160 468.5 -165.5 c 128,-1,14
 455 -171 455 -171 439 -171 c 0,15,16
 420 -171 420 -171 398.5 -156.5 c 128,-1,17
 377 -142 377 -142 377 -112 c 0,18,19
 377 -90 377 -90 383 -70.5 c 128,-1,20
 389 -51 389 -51 400.5 -33.5 c 128,-1,21
 412 -16 412 -16 430 0 c 1,22,-1
 393 4 l 1,0,1
381 485 m 1,23,-1
 381 126 l 1,24,25
 353 98 353 98 323.5 75.5 c 128,-1,26
 294 53 294 53 264.5 40.5 c 128,-1,27
 235 28 235 28 206 28 c 0,28,29
 151 28 151 28 133 63 c 128,-1,30
 115 98 115 98 115 148 c 2,31,-1
 115 485 l 1,32,-1
 66 485 l 1,33,-1
 66 148 l 2,34,35
 66 102 66 102 80.5 65.5 c 128,-1,36
 95 29 95 29 126.5 8 c 128,-1,37
 158 -13 158 -13 210 -13 c 0,38,39
 240 -13 240 -13 272 -1 c 128,-1,40
 304 11 304 11 333 31.5 c 128,-1,41
 362 52 362 52 382 76 c 1,42,-1
 392 0 l 1,43,-1
 430 0 l 1,44,-1
 430 485 l 1,45,-1
 381 485 l 1,23,-1
EndSplineSet
EndChar

StartChar: ydieresis
Encoding: 255 255 184
Width: 244
Flags: W
LayerCount: 2
Fore
SplineSet
-137 797 m 0,0,1
 -51 797 -51 797 12 759 c 128,-1,2
 75 721 75 721 109.5 655 c 128,-1,3
 144 589 144 589 144 503 c 2,4,-1
 144 0 l 1,5,-1
 100 0 l 1,6,-1
 100 503 l 2,7,8
 100 578 100 578 71.5 634.5 c 128,-1,9
 43 691 43 691 -10 723 c 128,-1,10
 -63 755 -63 755 -137 755 c 0,11,12
 -221 755 -221 755 -268 720 c 128,-1,13
 -315 685 -315 685 -315 627 c 0,14,15
 -315 574 -315 574 -275.5 543.5 c 128,-1,16
 -236 513 -236 513 -163 513 c 2,17,-1
 -139 513 l 1,18,-1
 -139 477 l 1,19,-1
 -163 477 l 2,20,21
 -225 477 -225 477 -269.5 496 c 128,-1,22
 -314 515 -314 515 -338 549 c 128,-1,23
 -362 583 -362 583 -363 627 c 0,24,25
 -363 677 -363 677 -335.5 715 c 128,-1,26
 -308 753 -308 753 -257.5 775 c 128,-1,27
 -207 797 -207 797 -137 797 c 0,0,1
EndSplineSet
EndChar

StartChar: mu
Encoding: 181 181 192
Width: 510
Flags: W
LayerCount: 2
Fore
SplineSet
125 -208 m 1,0,-1
 125 418 l 1,1,-1
 76 398 l 1,2,-1
 76 -219 l 1,3,-1
 125 -208 l 1,0,-1
391 485 m 1,4,-1
 391 126 l 1,5,6
 363 98 363 98 333.5 75.5 c 128,-1,7
 304 53 304 53 274.5 40.5 c 128,-1,8
 245 28 245 28 216 28 c 0,9,10
 161 28 161 28 143 63 c 128,-1,11
 125 98 125 98 125 148 c 2,12,-1
 125 485 l 1,13,-1
 76 485 l 1,14,-1
 76 148 l 2,15,16
 76 102 76 102 90.5 65.5 c 128,-1,17
 105 29 105 29 136.5 8 c 128,-1,18
 168 -13 168 -13 220 -13 c 0,19,20
 250 -13 250 -13 282 -1 c 128,-1,21
 314 11 314 11 343 31.5 c 128,-1,22
 372 52 372 52 392 76 c 1,23,-1
 402 0 l 1,24,-1
 440 0 l 1,25,-1
 440 485 l 1,26,-1
 391 485 l 1,4,-1
EndSplineSet
EndChar

StartChar: uni02C9
Encoding: 713 713 193
Width: 261
Flags: W
LayerCount: 2
Fore
SplineSet
10 650 m 1,0,-1
 251 650 l 1,1,-1
 245 689 l 1,2,-1
 10 689 l 1,3,-1
 10 650 l 1,0,-1
EndSplineSet
EndChar

StartChar: litre
Encoding: 8467 8467 194
Width: 338
Flags: W
LayerCount: 2
Fore
SplineSet
22 185 m 1,0,1
 32 192 32 192 42.5 199 c 128,-1,2
 53 206 53 206 64.5 214.5 c 128,-1,3
 76 223 76 223 87 231 c 1,4,-1
 87 127 l 2,5,6
 87 84 87 84 103 52.5 c 128,-1,7
 119 21 119 21 148 4.5 c 128,-1,8
 177 -12 177 -12 214 -12 c 0,9,10
 223 -12 223 -12 234 -9.5 c 128,-1,11
 245 -7 245 -7 255.5 -2.5 c 128,-1,12
 266 2 266 2 272 6 c 1,13,-1
 260 43 l 1,14,15
 254 40 254 40 242.5 34.5 c 128,-1,16
 231 29 231 29 215 29 c 0,17,18
 190 29 190 29 172 42.5 c 128,-1,19
 154 56 154 56 145 77 c 128,-1,20
 136 98 136 98 136 122 c 2,21,-1
 136 274 l 1,22,23
 180 316 180 316 219.5 366 c 128,-1,24
 259 416 259 416 283.5 469 c 128,-1,25
 308 522 308 522 308 574 c 0,26,27
 308 614 308 614 294 642.5 c 128,-1,28
 280 671 280 671 254.5 686.5 c 128,-1,29
 229 702 229 702 195 702 c 0,30,31
 163 702 163 702 138.5 686 c 128,-1,32
 114 670 114 670 100.5 640 c 128,-1,33
 87 610 87 610 87 566 c 2,34,-1
 87 291 l 1,35,36
 75 281 75 281 62 270.5 c 128,-1,37
 49 260 49 260 36 250.5 c 128,-1,38
 23 241 23 241 10 232 c 1,39,-1
 22 185 l 1,0,1
136 337 m 1,40,-1
 136 566 l 2,41,42
 136 615 136 615 153 638 c 128,-1,43
 170 661 170 661 196 661 c 0,44,45
 221 661 221 661 239.5 638.5 c 128,-1,46
 258 616 258 616 258 572 c 0,47,48
 258 512 258 512 222.5 451 c 128,-1,49
 187 390 187 390 136 337 c 1,40,-1
EndSplineSet
EndChar

